ISO-10303-21;
HEADER;
/* Generated by software containing ST-Developer
 * from STEP Tools, Inc. (www.steptools.com) 
 */

FILE_DESCRIPTION(
/* description */ (''),
/* implementation_level */ '2;1');

FILE_NAME(
/* name */ 'base_bottom.step',
/* time_stamp */ '2026-08-19T17:06:49-05:00',
/* author */ (''),
/* organization */ (''),
/* preprocessor_version */ 'ST-DEVELOPER v20.1',
/* originating_system */ 'Autodesk Translation Framework v15.8.0.0',
/* authorisation */ '');

FILE_SCHEMA (('AUTOMOTIVE_DESIGN { 1 0 10303 214 3 1 1 }'));
ENDSEC;

DATA;
#10=MECHANICAL_DESIGN_GEOMETRIC_PRESENTATION_REPRESENTATION('',(#13),#809);
#11=SHAPE_REPRESENTATION_RELATIONSHIP('SRR','None',#819,#12);
#12=ADVANCED_BREP_SHAPE_REPRESENTATION('',(#14),#808);
#13=STYLED_ITEM('',(#828),#14);
#14=MANIFOLD_SOLID_BREP('Body5',#501);
#15=CYLINDRICAL_SURFACE('',#536,0.15);
#16=CYLINDRICAL_SURFACE('',#538,0.15);
#17=CYLINDRICAL_SURFACE('',#540,0.15);
#18=CYLINDRICAL_SURFACE('',#542,0.15);
#19=CIRCLE('',#531,0.15);
#20=CIRCLE('',#532,0.15);
#21=CIRCLE('',#534,0.15);
#22=CIRCLE('',#535,0.15);
#23=CIRCLE('',#537,0.15);
#24=CIRCLE('',#539,0.15);
#25=CIRCLE('',#541,0.15);
#26=CIRCLE('',#543,0.15);
#27=FACE_BOUND('',#76,.T.);
#28=FACE_BOUND('',#77,.T.);
#29=FACE_BOUND('',#81,.T.);
#30=FACE_BOUND('',#82,.T.);
#31=FACE_BOUND('',#84,.T.);
#32=FACE_BOUND('',#85,.T.);
#33=FACE_BOUND('',#93,.T.);
#34=FACE_BOUND('',#94,.T.);
#35=FACE_BOUND('',#95,.T.);
#36=FACE_BOUND('',#96,.T.);
#37=FACE_BOUND('',#97,.T.);
#38=FACE_BOUND('',#98,.T.);
#39=FACE_OUTER_BOUND('',#63,.T.);
#40=FACE_OUTER_BOUND('',#64,.T.);
#41=FACE_OUTER_BOUND('',#65,.T.);
#42=FACE_OUTER_BOUND('',#66,.T.);
#43=FACE_OUTER_BOUND('',#67,.T.);
#44=FACE_OUTER_BOUND('',#68,.T.);
#45=FACE_OUTER_BOUND('',#69,.T.);
#46=FACE_OUTER_BOUND('',#70,.T.);
#47=FACE_OUTER_BOUND('',#71,.T.);
#48=FACE_OUTER_BOUND('',#72,.T.);
#49=FACE_OUTER_BOUND('',#73,.T.);
#50=FACE_OUTER_BOUND('',#74,.T.);
#51=FACE_OUTER_BOUND('',#75,.T.);
#52=FACE_OUTER_BOUND('',#78,.T.);
#53=FACE_OUTER_BOUND('',#79,.T.);
#54=FACE_OUTER_BOUND('',#80,.T.);
#55=FACE_OUTER_BOUND('',#83,.T.);
#56=FACE_OUTER_BOUND('',#86,.T.);
#57=FACE_OUTER_BOUND('',#87,.T.);
#58=FACE_OUTER_BOUND('',#88,.T.);
#59=FACE_OUTER_BOUND('',#89,.T.);
#60=FACE_OUTER_BOUND('',#90,.T.);
#61=FACE_OUTER_BOUND('',#91,.T.);
#62=FACE_OUTER_BOUND('',#92,.T.);
#63=EDGE_LOOP('',(#325,#326,#327,#328));
#64=EDGE_LOOP('',(#329,#330,#331,#332));
#65=EDGE_LOOP('',(#333,#334,#335,#336));
#66=EDGE_LOOP('',(#337,#338,#339,#340));
#67=EDGE_LOOP('',(#341,#342,#343,#344));
#68=EDGE_LOOP('',(#345,#346,#347,#348));
#69=EDGE_LOOP('',(#349,#350,#351,#352));
#70=EDGE_LOOP('',(#353,#354,#355,#356));
#71=EDGE_LOOP('',(#357,#358,#359,#360,#361,#362,#363,#364,#365,#366));
#72=EDGE_LOOP('',(#367,#368,#369,#370,#371,#372,#373,#374,#375,#376));
#73=EDGE_LOOP('',(#377,#378,#379,#380));
#74=EDGE_LOOP('',(#381,#382,#383,#384));
#75=EDGE_LOOP('',(#385,#386,#387,#388));
#76=EDGE_LOOP('',(#389,#390,#391,#392));
#77=EDGE_LOOP('',(#393,#394,#395,#396));
#78=EDGE_LOOP('',(#397,#398,#399,#400));
#79=EDGE_LOOP('',(#401,#402,#403,#404));
#80=EDGE_LOOP('',(#405,#406,#407,#408));
#81=EDGE_LOOP('',(#409));
#82=EDGE_LOOP('',(#410));
#83=EDGE_LOOP('',(#411,#412,#413,#414));
#84=EDGE_LOOP('',(#415));
#85=EDGE_LOOP('',(#416));
#86=EDGE_LOOP('',(#417,#418,#419,#420));
#87=EDGE_LOOP('',(#421,#422,#423,#424));
#88=EDGE_LOOP('',(#425,#426,#427,#428));
#89=EDGE_LOOP('',(#429,#430,#431,#432));
#90=EDGE_LOOP('',(#433,#434,#435,#436));
#91=EDGE_LOOP('',(#437,#438,#439,#440));
#92=EDGE_LOOP('',(#441,#442,#443,#444));
#93=EDGE_LOOP('',(#445,#446,#447,#448));
#94=EDGE_LOOP('',(#449,#450,#451,#452));
#95=EDGE_LOOP('',(#453));
#96=EDGE_LOOP('',(#454));
#97=EDGE_LOOP('',(#455));
#98=EDGE_LOOP('',(#456));
#99=LINE('',#675,#157);
#100=LINE('',#677,#158);
#101=LINE('',#679,#159);
#102=LINE('',#680,#160);
#103=LINE('',#683,#161);
#104=LINE('',#685,#162);
#105=LINE('',#686,#163);
#106=LINE('',#689,#164);
#107=LINE('',#691,#165);
#108=LINE('',#692,#166);
#109=LINE('',#694,#167);
#110=LINE('',#695,#168);
#111=LINE('',#699,#169);
#112=LINE('',#701,#170);
#113=LINE('',#703,#171);
#114=LINE('',#704,#172);
#115=LINE('',#707,#173);
#116=LINE('',#709,#174);
#117=LINE('',#710,#175);
#118=LINE('',#713,#176);
#119=LINE('',#715,#177);
#120=LINE('',#716,#178);
#121=LINE('',#718,#179);
#122=LINE('',#719,#180);
#123=LINE('',#723,#181);
#124=LINE('',#725,#182);
#125=LINE('',#727,#183);
#126=LINE('',#729,#184);
#127=LINE('',#731,#185);
#128=LINE('',#733,#186);
#129=LINE('',#735,#187);
#130=LINE('',#737,#188);
#131=LINE('',#739,#189);
#132=LINE('',#740,#190);
#133=LINE('',#744,#191);
#134=LINE('',#746,#192);
#135=LINE('',#748,#193);
#136=LINE('',#750,#194);
#137=LINE('',#752,#195);
#138=LINE('',#754,#196);
#139=LINE('',#756,#197);
#140=LINE('',#758,#198);
#141=LINE('',#760,#199);
#142=LINE('',#761,#200);
#143=LINE('',#763,#201);
#144=LINE('',#764,#202);
#145=LINE('',#766,#203);
#146=LINE('',#767,#204);
#147=LINE('',#769,#205);
#148=LINE('',#770,#206);
#149=LINE('',#774,#207);
#150=LINE('',#780,#208);
#151=LINE('',#787,#209);
#152=LINE('',#791,#210);
#153=LINE('',#795,#211);
#154=LINE('',#799,#212);
#155=LINE('',#802,#213);
#156=LINE('',#804,#214);
#157=VECTOR('',#551,0.393700787401575);
#158=VECTOR('',#552,0.393700787401575);
#159=VECTOR('',#553,0.393700787401575);
#160=VECTOR('',#554,0.393700787401575);
#161=VECTOR('',#557,0.393700787401575);
#162=VECTOR('',#558,0.393700787401575);
#163=VECTOR('',#559,0.393700787401575);
#164=VECTOR('',#562,0.393700787401575);
#165=VECTOR('',#563,0.393700787401575);
#166=VECTOR('',#564,0.393700787401575);
#167=VECTOR('',#567,0.393700787401575);
#168=VECTOR('',#568,0.393700787401575);
#169=VECTOR('',#571,0.393700787401575);
#170=VECTOR('',#572,0.393700787401575);
#171=VECTOR('',#573,0.393700787401575);
#172=VECTOR('',#574,0.393700787401575);
#173=VECTOR('',#577,0.393700787401575);
#174=VECTOR('',#578,0.393700787401575);
#175=VECTOR('',#579,0.393700787401575);
#176=VECTOR('',#582,0.393700787401575);
#177=VECTOR('',#583,0.393700787401575);
#178=VECTOR('',#584,0.393700787401575);
#179=VECTOR('',#587,0.393700787401575);
#180=VECTOR('',#588,0.393700787401575);
#181=VECTOR('',#591,0.393700787401575);
#182=VECTOR('',#592,0.393700787401575);
#183=VECTOR('',#593,0.393700787401575);
#184=VECTOR('',#594,0.393700787401575);
#185=VECTOR('',#595,0.393700787401575);
#186=VECTOR('',#596,0.393700787401575);
#187=VECTOR('',#597,0.393700787401575);
#188=VECTOR('',#598,0.393700787401575);
#189=VECTOR('',#599,0.393700787401575);
#190=VECTOR('',#600,0.393700787401575);
#191=VECTOR('',#603,0.393700787401575);
#192=VECTOR('',#604,0.393700787401575);
#193=VECTOR('',#605,0.393700787401575);
#194=VECTOR('',#606,0.393700787401575);
#195=VECTOR('',#607,0.393700787401575);
#196=VECTOR('',#608,0.393700787401575);
#197=VECTOR('',#609,0.393700787401575);
#198=VECTOR('',#610,0.393700787401575);
#199=VECTOR('',#611,0.393700787401575);
#200=VECTOR('',#612,0.393700787401575);
#201=VECTOR('',#615,0.393700787401575);
#202=VECTOR('',#616,0.393700787401575);
#203=VECTOR('',#619,0.393700787401575);
#204=VECTOR('',#620,0.393700787401575);
#205=VECTOR('',#623,0.393700787401575);
#206=VECTOR('',#624,0.393700787401575);
#207=VECTOR('',#631,0.393700787401575);
#208=VECTOR('',#638,0.393700787401575);
#209=VECTOR('',#645,0.15);
#210=VECTOR('',#650,0.15);
#211=VECTOR('',#655,0.15);
#212=VECTOR('',#660,0.15);
#213=VECTOR('',#665,0.393700787401575);
#214=VECTOR('',#668,0.393700787401575);
#215=VERTEX_POINT('',#673);
#216=VERTEX_POINT('',#674);
#217=VERTEX_POINT('',#676);
#218=VERTEX_POINT('',#678);
#219=VERTEX_POINT('',#682);
#220=VERTEX_POINT('',#684);
#221=VERTEX_POINT('',#688);
#222=VERTEX_POINT('',#690);
#223=VERTEX_POINT('',#697);
#224=VERTEX_POINT('',#698);
#225=VERTEX_POINT('',#700);
#226=VERTEX_POINT('',#702);
#227=VERTEX_POINT('',#706);
#228=VERTEX_POINT('',#708);
#229=VERTEX_POINT('',#712);
#230=VERTEX_POINT('',#714);
#231=VERTEX_POINT('',#721);
#232=VERTEX_POINT('',#722);
#233=VERTEX_POINT('',#724);
#234=VERTEX_POINT('',#726);
#235=VERTEX_POINT('',#728);
#236=VERTEX_POINT('',#730);
#237=VERTEX_POINT('',#732);
#238=VERTEX_POINT('',#734);
#239=VERTEX_POINT('',#736);
#240=VERTEX_POINT('',#738);
#241=VERTEX_POINT('',#742);
#242=VERTEX_POINT('',#743);
#243=VERTEX_POINT('',#745);
#244=VERTEX_POINT('',#747);
#245=VERTEX_POINT('',#749);
#246=VERTEX_POINT('',#751);
#247=VERTEX_POINT('',#753);
#248=VERTEX_POINT('',#755);
#249=VERTEX_POINT('',#757);
#250=VERTEX_POINT('',#759);
#251=VERTEX_POINT('',#775);
#252=VERTEX_POINT('',#777);
#253=VERTEX_POINT('',#781);
#254=VERTEX_POINT('',#783);
#255=VERTEX_POINT('',#786);
#256=VERTEX_POINT('',#790);
#257=VERTEX_POINT('',#794);
#258=VERTEX_POINT('',#798);
#259=EDGE_CURVE('',#215,#216,#99,.T.);
#260=EDGE_CURVE('',#217,#215,#100,.T.);
#261=EDGE_CURVE('',#218,#217,#101,.T.);
#262=EDGE_CURVE('',#218,#216,#102,.T.);
#263=EDGE_CURVE('',#216,#219,#103,.T.);
#264=EDGE_CURVE('',#220,#218,#104,.T.);
#265=EDGE_CURVE('',#219,#220,#105,.T.);
#266=EDGE_CURVE('',#219,#221,#106,.T.);
#267=EDGE_CURVE('',#222,#220,#107,.T.);
#268=EDGE_CURVE('',#222,#221,#108,.T.);
#269=EDGE_CURVE('',#221,#215,#109,.T.);
#270=EDGE_CURVE('',#217,#222,#110,.T.);
#271=EDGE_CURVE('',#223,#224,#111,.T.);
#272=EDGE_CURVE('',#225,#223,#112,.T.);
#273=EDGE_CURVE('',#226,#225,#113,.T.);
#274=EDGE_CURVE('',#226,#224,#114,.T.);
#275=EDGE_CURVE('',#224,#227,#115,.T.);
#276=EDGE_CURVE('',#228,#226,#116,.T.);
#277=EDGE_CURVE('',#227,#228,#117,.T.);
#278=EDGE_CURVE('',#227,#229,#118,.T.);
#279=EDGE_CURVE('',#230,#228,#119,.T.);
#280=EDGE_CURVE('',#230,#229,#120,.T.);
#281=EDGE_CURVE('',#229,#223,#121,.T.);
#282=EDGE_CURVE('',#225,#230,#122,.T.);
#283=EDGE_CURVE('',#231,#232,#123,.T.);
#284=EDGE_CURVE('',#232,#233,#124,.T.);
#285=EDGE_CURVE('',#233,#234,#125,.T.);
#286=EDGE_CURVE('',#234,#235,#126,.T.);
#287=EDGE_CURVE('',#235,#236,#127,.T.);
#288=EDGE_CURVE('',#236,#237,#128,.T.);
#289=EDGE_CURVE('',#237,#238,#129,.T.);
#290=EDGE_CURVE('',#238,#239,#130,.T.);
#291=EDGE_CURVE('',#239,#240,#131,.T.);
#292=EDGE_CURVE('',#240,#231,#132,.T.);
#293=EDGE_CURVE('',#241,#242,#133,.T.);
#294=EDGE_CURVE('',#242,#243,#134,.T.);
#295=EDGE_CURVE('',#243,#244,#135,.T.);
#296=EDGE_CURVE('',#244,#245,#136,.T.);
#297=EDGE_CURVE('',#245,#246,#137,.T.);
#298=EDGE_CURVE('',#246,#247,#138,.T.);
#299=EDGE_CURVE('',#247,#248,#139,.T.);
#300=EDGE_CURVE('',#248,#249,#140,.T.);
#301=EDGE_CURVE('',#249,#250,#141,.T.);
#302=EDGE_CURVE('',#250,#241,#142,.T.);
#303=EDGE_CURVE('',#241,#231,#143,.T.);
#304=EDGE_CURVE('',#242,#240,#144,.T.);
#305=EDGE_CURVE('',#246,#236,#145,.T.);
#306=EDGE_CURVE('',#245,#237,#146,.T.);
#307=EDGE_CURVE('',#239,#243,#147,.T.);
#308=EDGE_CURVE('',#244,#238,#148,.T.);
#309=EDGE_CURVE('',#232,#250,#149,.T.);
#310=EDGE_CURVE('',#251,#251,#19,.T.);
#311=EDGE_CURVE('',#252,#252,#20,.T.);
#312=EDGE_CURVE('',#247,#235,#150,.T.);
#313=EDGE_CURVE('',#253,#253,#21,.T.);
#314=EDGE_CURVE('',#254,#254,#22,.T.);
#315=EDGE_CURVE('',#254,#255,#151,.T.);
#316=EDGE_CURVE('',#255,#255,#23,.T.);
#317=EDGE_CURVE('',#251,#256,#152,.T.);
#318=EDGE_CURVE('',#256,#256,#24,.T.);
#319=EDGE_CURVE('',#253,#257,#153,.T.);
#320=EDGE_CURVE('',#257,#257,#25,.T.);
#321=EDGE_CURVE('',#252,#258,#154,.T.);
#322=EDGE_CURVE('',#258,#258,#26,.T.);
#323=EDGE_CURVE('',#233,#249,#155,.T.);
#324=EDGE_CURVE('',#248,#234,#156,.T.);
#325=ORIENTED_EDGE('',*,*,#259,.F.);
#326=ORIENTED_EDGE('',*,*,#260,.F.);
#327=ORIENTED_EDGE('',*,*,#261,.F.);
#328=ORIENTED_EDGE('',*,*,#262,.T.);
#329=ORIENTED_EDGE('',*,*,#263,.F.);
#330=ORIENTED_EDGE('',*,*,#262,.F.);
#331=ORIENTED_EDGE('',*,*,#264,.F.);
#332=ORIENTED_EDGE('',*,*,#265,.F.);
#333=ORIENTED_EDGE('',*,*,#266,.F.);
#334=ORIENTED_EDGE('',*,*,#265,.T.);
#335=ORIENTED_EDGE('',*,*,#267,.F.);
#336=ORIENTED_EDGE('',*,*,#268,.T.);
#337=ORIENTED_EDGE('',*,*,#269,.F.);
#338=ORIENTED_EDGE('',*,*,#268,.F.);
#339=ORIENTED_EDGE('',*,*,#270,.F.);
#340=ORIENTED_EDGE('',*,*,#260,.T.);
#341=ORIENTED_EDGE('',*,*,#271,.F.);
#342=ORIENTED_EDGE('',*,*,#272,.F.);
#343=ORIENTED_EDGE('',*,*,#273,.F.);
#344=ORIENTED_EDGE('',*,*,#274,.T.);
#345=ORIENTED_EDGE('',*,*,#275,.F.);
#346=ORIENTED_EDGE('',*,*,#274,.F.);
#347=ORIENTED_EDGE('',*,*,#276,.F.);
#348=ORIENTED_EDGE('',*,*,#277,.F.);
#349=ORIENTED_EDGE('',*,*,#278,.F.);
#350=ORIENTED_EDGE('',*,*,#277,.T.);
#351=ORIENTED_EDGE('',*,*,#279,.F.);
#352=ORIENTED_EDGE('',*,*,#280,.T.);
#353=ORIENTED_EDGE('',*,*,#281,.F.);
#354=ORIENTED_EDGE('',*,*,#280,.F.);
#355=ORIENTED_EDGE('',*,*,#282,.F.);
#356=ORIENTED_EDGE('',*,*,#272,.T.);
#357=ORIENTED_EDGE('',*,*,#283,.T.);
#358=ORIENTED_EDGE('',*,*,#284,.T.);
#359=ORIENTED_EDGE('',*,*,#285,.T.);
#360=ORIENTED_EDGE('',*,*,#286,.T.);
#361=ORIENTED_EDGE('',*,*,#287,.T.);
#362=ORIENTED_EDGE('',*,*,#288,.T.);
#363=ORIENTED_EDGE('',*,*,#289,.T.);
#364=ORIENTED_EDGE('',*,*,#290,.T.);
#365=ORIENTED_EDGE('',*,*,#291,.T.);
#366=ORIENTED_EDGE('',*,*,#292,.T.);
#367=ORIENTED_EDGE('',*,*,#293,.T.);
#368=ORIENTED_EDGE('',*,*,#294,.T.);
#369=ORIENTED_EDGE('',*,*,#295,.T.);
#370=ORIENTED_EDGE('',*,*,#296,.T.);
#371=ORIENTED_EDGE('',*,*,#297,.T.);
#372=ORIENTED_EDGE('',*,*,#298,.T.);
#373=ORIENTED_EDGE('',*,*,#299,.T.);
#374=ORIENTED_EDGE('',*,*,#300,.T.);
#375=ORIENTED_EDGE('',*,*,#301,.T.);
#376=ORIENTED_EDGE('',*,*,#302,.T.);
#377=ORIENTED_EDGE('',*,*,#303,.T.);
#378=ORIENTED_EDGE('',*,*,#292,.F.);
#379=ORIENTED_EDGE('',*,*,#304,.F.);
#380=ORIENTED_EDGE('',*,*,#293,.F.);
#381=ORIENTED_EDGE('',*,*,#305,.F.);
#382=ORIENTED_EDGE('',*,*,#297,.F.);
#383=ORIENTED_EDGE('',*,*,#306,.T.);
#384=ORIENTED_EDGE('',*,*,#288,.F.);
#385=ORIENTED_EDGE('',*,*,#307,.F.);
#386=ORIENTED_EDGE('',*,*,#290,.F.);
#387=ORIENTED_EDGE('',*,*,#308,.F.);
#388=ORIENTED_EDGE('',*,*,#295,.F.);
#389=ORIENTED_EDGE('',*,*,#266,.T.);
#390=ORIENTED_EDGE('',*,*,#269,.T.);
#391=ORIENTED_EDGE('',*,*,#259,.T.);
#392=ORIENTED_EDGE('',*,*,#263,.T.);
#393=ORIENTED_EDGE('',*,*,#278,.T.);
#394=ORIENTED_EDGE('',*,*,#281,.T.);
#395=ORIENTED_EDGE('',*,*,#271,.T.);
#396=ORIENTED_EDGE('',*,*,#275,.T.);
#397=ORIENTED_EDGE('',*,*,#308,.T.);
#398=ORIENTED_EDGE('',*,*,#289,.F.);
#399=ORIENTED_EDGE('',*,*,#306,.F.);
#400=ORIENTED_EDGE('',*,*,#296,.F.);
#401=ORIENTED_EDGE('',*,*,#304,.T.);
#402=ORIENTED_EDGE('',*,*,#291,.F.);
#403=ORIENTED_EDGE('',*,*,#307,.T.);
#404=ORIENTED_EDGE('',*,*,#294,.F.);
#405=ORIENTED_EDGE('',*,*,#303,.F.);
#406=ORIENTED_EDGE('',*,*,#302,.F.);
#407=ORIENTED_EDGE('',*,*,#309,.F.);
#408=ORIENTED_EDGE('',*,*,#283,.F.);
#409=ORIENTED_EDGE('',*,*,#310,.T.);
#410=ORIENTED_EDGE('',*,*,#311,.T.);
#411=ORIENTED_EDGE('',*,*,#305,.T.);
#412=ORIENTED_EDGE('',*,*,#287,.F.);
#413=ORIENTED_EDGE('',*,*,#312,.F.);
#414=ORIENTED_EDGE('',*,*,#298,.F.);
#415=ORIENTED_EDGE('',*,*,#313,.T.);
#416=ORIENTED_EDGE('',*,*,#314,.T.);
#417=ORIENTED_EDGE('',*,*,#314,.F.);
#418=ORIENTED_EDGE('',*,*,#315,.T.);
#419=ORIENTED_EDGE('',*,*,#316,.F.);
#420=ORIENTED_EDGE('',*,*,#315,.F.);
#421=ORIENTED_EDGE('',*,*,#310,.F.);
#422=ORIENTED_EDGE('',*,*,#317,.T.);
#423=ORIENTED_EDGE('',*,*,#318,.F.);
#424=ORIENTED_EDGE('',*,*,#317,.F.);
#425=ORIENTED_EDGE('',*,*,#313,.F.);
#426=ORIENTED_EDGE('',*,*,#319,.T.);
#427=ORIENTED_EDGE('',*,*,#320,.F.);
#428=ORIENTED_EDGE('',*,*,#319,.F.);
#429=ORIENTED_EDGE('',*,*,#311,.F.);
#430=ORIENTED_EDGE('',*,*,#321,.T.);
#431=ORIENTED_EDGE('',*,*,#322,.F.);
#432=ORIENTED_EDGE('',*,*,#321,.F.);
#433=ORIENTED_EDGE('',*,*,#323,.F.);
#434=ORIENTED_EDGE('',*,*,#284,.F.);
#435=ORIENTED_EDGE('',*,*,#309,.T.);
#436=ORIENTED_EDGE('',*,*,#301,.F.);
#437=ORIENTED_EDGE('',*,*,#324,.F.);
#438=ORIENTED_EDGE('',*,*,#299,.F.);
#439=ORIENTED_EDGE('',*,*,#312,.T.);
#440=ORIENTED_EDGE('',*,*,#286,.F.);
#441=ORIENTED_EDGE('',*,*,#323,.T.);
#442=ORIENTED_EDGE('',*,*,#300,.F.);
#443=ORIENTED_EDGE('',*,*,#324,.T.);
#444=ORIENTED_EDGE('',*,*,#285,.F.);
#445=ORIENTED_EDGE('',*,*,#267,.T.);
#446=ORIENTED_EDGE('',*,*,#264,.T.);
#447=ORIENTED_EDGE('',*,*,#261,.T.);
#448=ORIENTED_EDGE('',*,*,#270,.T.);
#449=ORIENTED_EDGE('',*,*,#279,.T.);
#450=ORIENTED_EDGE('',*,*,#276,.T.);
#451=ORIENTED_EDGE('',*,*,#273,.T.);
#452=ORIENTED_EDGE('',*,*,#282,.T.);
#453=ORIENTED_EDGE('',*,*,#316,.T.);
#454=ORIENTED_EDGE('',*,*,#318,.T.);
#455=ORIENTED_EDGE('',*,*,#320,.T.);
#456=ORIENTED_EDGE('',*,*,#322,.T.);
#457=PLANE('',#515);
#458=PLANE('',#516);
#459=PLANE('',#517);
#460=PLANE('',#518);
#461=PLANE('',#519);
#462=PLANE('',#520);
#463=PLANE('',#521);
#464=PLANE('',#522);
#465=PLANE('',#523);
#466=PLANE('',#524);
#467=PLANE('',#525);
#468=PLANE('',#526);
#469=PLANE('',#527);
#470=PLANE('',#528);
#471=PLANE('',#529);
#472=PLANE('',#530);
#473=PLANE('',#533);
#474=PLANE('',#544);
#475=PLANE('',#545);
#476=PLANE('',#546);
#477=ADVANCED_FACE('',(#39),#457,.F.);
#478=ADVANCED_FACE('',(#40),#458,.F.);
#479=ADVANCED_FACE('',(#41),#459,.F.);
#480=ADVANCED_FACE('',(#42),#460,.F.);
#481=ADVANCED_FACE('',(#43),#461,.F.);
#482=ADVANCED_FACE('',(#44),#462,.F.);
#483=ADVANCED_FACE('',(#45),#463,.F.);
#484=ADVANCED_FACE('',(#46),#464,.F.);
#485=ADVANCED_FACE('',(#47),#465,.T.);
#486=ADVANCED_FACE('',(#48),#466,.T.);
#487=ADVANCED_FACE('',(#49),#467,.T.);
#488=ADVANCED_FACE('',(#50),#468,.T.);
#489=ADVANCED_FACE('',(#51,#27,#28),#469,.T.);
#490=ADVANCED_FACE('',(#52),#470,.T.);
#491=ADVANCED_FACE('',(#53),#471,.T.);
#492=ADVANCED_FACE('',(#54,#29,#30),#472,.T.);
#493=ADVANCED_FACE('',(#55,#31,#32),#473,.T.);
#494=ADVANCED_FACE('',(#56),#15,.F.);
#495=ADVANCED_FACE('',(#57),#16,.F.);
#496=ADVANCED_FACE('',(#58),#17,.F.);
#497=ADVANCED_FACE('',(#59),#18,.F.);
#498=ADVANCED_FACE('',(#60),#474,.T.);
#499=ADVANCED_FACE('',(#61),#475,.T.);
#500=ADVANCED_FACE('',(#62,#33,#34,#35,#36,#37,#38),#476,.F.);
#501=CLOSED_SHELL('',(#477,#478,#479,#480,#481,#482,#483,#484,#485,#486,
#487,#488,#489,#490,#491,#492,#493,#494,#495,#496,#497,#498,#499,#500));
#502=DERIVED_UNIT_ELEMENT(#504,1.);
#503=DERIVED_UNIT_ELEMENT(#813,-3.);
#504=(
MASS_UNIT()
NAMED_UNIT(*)
SI_UNIT(.KILO.,.GRAM.)
);
#505=DERIVED_UNIT((#502,#503));
#506=MEASURE_REPRESENTATION_ITEM('density measure',
POSITIVE_RATIO_MEASURE(7850.),#505);
#507=PROPERTY_DEFINITION_REPRESENTATION(#512,#509);
#508=PROPERTY_DEFINITION_REPRESENTATION(#513,#510);
#509=REPRESENTATION('material name',(#511),#808);
#510=REPRESENTATION('density',(#506),#808);
#511=DESCRIPTIVE_REPRESENTATION_ITEM('Steel','Steel');
#512=PROPERTY_DEFINITION('material property','material name',#821);
#513=PROPERTY_DEFINITION('material property','density of part',#821);
#514=AXIS2_PLACEMENT_3D('',#671,#547,#548);
#515=AXIS2_PLACEMENT_3D('',#672,#549,#550);
#516=AXIS2_PLACEMENT_3D('',#681,#555,#556);
#517=AXIS2_PLACEMENT_3D('',#687,#560,#561);
#518=AXIS2_PLACEMENT_3D('',#693,#565,#566);
#519=AXIS2_PLACEMENT_3D('',#696,#569,#570);
#520=AXIS2_PLACEMENT_3D('',#705,#575,#576);
#521=AXIS2_PLACEMENT_3D('',#711,#580,#581);
#522=AXIS2_PLACEMENT_3D('',#717,#585,#586);
#523=AXIS2_PLACEMENT_3D('',#720,#589,#590);
#524=AXIS2_PLACEMENT_3D('',#741,#601,#602);
#525=AXIS2_PLACEMENT_3D('',#762,#613,#614);
#526=AXIS2_PLACEMENT_3D('',#765,#617,#618);
#527=AXIS2_PLACEMENT_3D('',#768,#621,#622);
#528=AXIS2_PLACEMENT_3D('',#771,#625,#626);
#529=AXIS2_PLACEMENT_3D('',#772,#627,#628);
#530=AXIS2_PLACEMENT_3D('',#773,#629,#630);
#531=AXIS2_PLACEMENT_3D('',#776,#632,#633);
#532=AXIS2_PLACEMENT_3D('',#778,#634,#635);
#533=AXIS2_PLACEMENT_3D('',#779,#636,#637);
#534=AXIS2_PLACEMENT_3D('',#782,#639,#640);
#535=AXIS2_PLACEMENT_3D('',#784,#641,#642);
#536=AXIS2_PLACEMENT_3D('',#785,#643,#644);
#537=AXIS2_PLACEMENT_3D('',#788,#646,#647);
#538=AXIS2_PLACEMENT_3D('',#789,#648,#649);
#539=AXIS2_PLACEMENT_3D('',#792,#651,#652);
#540=AXIS2_PLACEMENT_3D('',#793,#653,#654);
#541=AXIS2_PLACEMENT_3D('',#796,#656,#657);
#542=AXIS2_PLACEMENT_3D('',#797,#658,#659);
#543=AXIS2_PLACEMENT_3D('',#800,#661,#662);
#544=AXIS2_PLACEMENT_3D('',#801,#663,#664);
#545=AXIS2_PLACEMENT_3D('',#803,#666,#667);
#546=AXIS2_PLACEMENT_3D('',#805,#669,#670);
#547=DIRECTION('axis',(0.,0.,1.));
#548=DIRECTION('refdir',(1.,0.,0.));
#549=DIRECTION('center_axis',(0.,-1.,0.));
#550=DIRECTION('ref_axis',(1.,0.,0.));
#551=DIRECTION('',(-0.999999986847803,0.,0.00016218629578411));
#552=DIRECTION('',(0.,0.,1.));
#553=DIRECTION('',(1.,0.,0.));
#554=DIRECTION('',(0.,0.,1.));
#555=DIRECTION('center_axis',(-1.,0.,0.));
#556=DIRECTION('ref_axis',(0.,-1.,0.));
#557=DIRECTION('',(0.,1.,0.));
#558=DIRECTION('',(0.,-1.,0.));
#559=DIRECTION('',(0.,0.,-1.));
#560=DIRECTION('center_axis',(0.,1.,0.));
#561=DIRECTION('ref_axis',(-1.,0.,0.));
#562=DIRECTION('',(0.999999986847803,0.,-0.00016218629578411));
#563=DIRECTION('',(-1.,0.,0.));
#564=DIRECTION('',(0.,0.,1.));
#565=DIRECTION('center_axis',(1.,0.,0.));
#566=DIRECTION('ref_axis',(0.,1.,0.));
#567=DIRECTION('',(0.,-1.,0.));
#568=DIRECTION('',(0.,1.,0.));
#569=DIRECTION('center_axis',(1.,0.,0.));
#570=DIRECTION('ref_axis',(0.,1.,0.));
#571=DIRECTION('',(0.,-1.,0.));
#572=DIRECTION('',(0.,0.,1.));
#573=DIRECTION('',(0.,1.,0.));
#574=DIRECTION('',(0.,0.,1.));
#575=DIRECTION('center_axis',(0.,-1.,0.));
#576=DIRECTION('ref_axis',(1.,0.,0.));
#577=DIRECTION('',(-0.999999986847803,0.,0.00016218629578411));
#578=DIRECTION('',(1.,0.,0.));
#579=DIRECTION('',(0.,0.,-1.));
#580=DIRECTION('center_axis',(-1.,0.,0.));
#581=DIRECTION('ref_axis',(0.,-1.,0.));
#582=DIRECTION('',(0.,1.,0.));
#583=DIRECTION('',(0.,-1.,0.));
#584=DIRECTION('',(0.,0.,1.));
#585=DIRECTION('center_axis',(0.,1.,0.));
#586=DIRECTION('ref_axis',(-1.,0.,0.));
#587=DIRECTION('',(0.999999986847803,0.,-0.00016218629578411));
#588=DIRECTION('',(-1.,0.,0.));
#589=DIRECTION('center_axis',(0.,1.,0.));
#590=DIRECTION('ref_axis',(0.,0.,1.));
#591=DIRECTION('',(1.,0.,0.));
#592=DIRECTION('',(0.,0.,-1.));
#593=DIRECTION('',(-1.,0.,0.));
#594=DIRECTION('',(0.,0.,1.));
#595=DIRECTION('',(1.,0.,0.));
#596=DIRECTION('',(0.,0.,1.));
#597=DIRECTION('',(-0.706829857656752,0.,0.707383596307502));
#598=DIRECTION('',(0.999999986847803,0.,-0.00016218629578411));
#599=DIRECTION('',(-0.707383596307502,0.,-0.706829857656753));
#600=DIRECTION('',(0.,0.,-1.));
#601=DIRECTION('center_axis',(0.,-1.,0.));
#602=DIRECTION('ref_axis',(0.,0.,-1.));
#603=DIRECTION('',(0.,0.,1.));
#604=DIRECTION('',(0.707383596307502,0.,0.706829857656753));
#605=DIRECTION('',(-0.999999986847803,0.,0.00016218629578411));
#606=DIRECTION('',(0.706829857656752,0.,-0.707383596307502));
#607=DIRECTION('',(0.,0.,-1.));
#608=DIRECTION('',(-1.,0.,0.));
#609=DIRECTION('',(0.,0.,-1.));
#610=DIRECTION('',(1.,0.,0.));
#611=DIRECTION('',(0.,0.,1.));
#612=DIRECTION('',(-1.,0.,0.));
#613=DIRECTION('center_axis',(1.,0.,0.));
#614=DIRECTION('ref_axis',(0.,0.,1.));
#615=DIRECTION('',(0.,1.,0.));
#616=DIRECTION('',(0.,1.,0.));
#617=DIRECTION('center_axis',(-1.,0.,0.));
#618=DIRECTION('ref_axis',(0.,0.,-1.));
#619=DIRECTION('',(0.,1.,0.));
#620=DIRECTION('',(0.,1.,0.));
#621=DIRECTION('center_axis',(0.00016218629578411,0.,0.999999986847803));
#622=DIRECTION('ref_axis',(0.999999986847803,0.,-0.00016218629578411));
#623=DIRECTION('',(0.,-1.,0.));
#624=DIRECTION('',(0.,1.,0.));
#625=DIRECTION('center_axis',(-0.707383596307502,0.,-0.706829857656752));
#626=DIRECTION('ref_axis',(-0.706829857656752,0.,0.707383596307502));
#627=DIRECTION('center_axis',(0.706829857656753,0.,-0.707383596307502));
#628=DIRECTION('ref_axis',(-0.707383596307502,0.,-0.706829857656753));
#629=DIRECTION('center_axis',(0.,0.,1.));
#630=DIRECTION('ref_axis',(1.,0.,0.));
#631=DIRECTION('',(0.,-1.,0.));
#632=DIRECTION('center_axis',(0.,0.,-1.));
#633=DIRECTION('ref_axis',(-1.,0.,0.));
#634=DIRECTION('center_axis',(0.,0.,-1.));
#635=DIRECTION('ref_axis',(-1.,0.,0.));
#636=DIRECTION('center_axis',(0.,0.,1.));
#637=DIRECTION('ref_axis',(1.,0.,0.));
#638=DIRECTION('',(0.,1.,0.));
#639=DIRECTION('center_axis',(0.,0.,-1.));
#640=DIRECTION('ref_axis',(-1.,0.,0.));
#641=DIRECTION('center_axis',(0.,0.,-1.));
#642=DIRECTION('ref_axis',(-1.,0.,0.));
#643=DIRECTION('center_axis',(0.,0.,-1.));
#644=DIRECTION('ref_axis',(-1.,0.,0.));
#645=DIRECTION('',(0.,0.,-1.));
#646=DIRECTION('center_axis',(0.,0.,1.));
#647=DIRECTION('ref_axis',(-1.,0.,0.));
#648=DIRECTION('center_axis',(0.,0.,-1.));
#649=DIRECTION('ref_axis',(-1.,0.,0.));
#650=DIRECTION('',(0.,0.,-1.));
#651=DIRECTION('center_axis',(0.,0.,1.));
#652=DIRECTION('ref_axis',(-1.,0.,0.));
#653=DIRECTION('center_axis',(0.,0.,-1.));
#654=DIRECTION('ref_axis',(-1.,0.,0.));
#655=DIRECTION('',(0.,0.,-1.));
#656=DIRECTION('center_axis',(0.,0.,1.));
#657=DIRECTION('ref_axis',(-1.,0.,0.));
#658=DIRECTION('center_axis',(0.,0.,-1.));
#659=DIRECTION('ref_axis',(-1.,0.,0.));
#660=DIRECTION('',(0.,0.,-1.));
#661=DIRECTION('center_axis',(0.,0.,1.));
#662=DIRECTION('ref_axis',(-1.,0.,0.));
#663=DIRECTION('center_axis',(1.,0.,0.));
#664=DIRECTION('ref_axis',(0.,1.,0.));
#665=DIRECTION('',(0.,-1.,0.));
#666=DIRECTION('center_axis',(-1.,0.,0.));
#667=DIRECTION('ref_axis',(0.,-1.,0.));
#668=DIRECTION('',(0.,1.,0.));
#669=DIRECTION('center_axis',(0.,0.,1.));
#670=DIRECTION('ref_axis',(1.,0.,0.));
#671=CARTESIAN_POINT('',(0.,0.,0.));
#672=CARTESIAN_POINT('Origin',(-0.0984508830246165,-2.62708871424044,0.2));
#673=CARTESIAN_POINT('',(0.100330653803505,-2.62708871424044,0.462115768225333));
#674=CARTESIAN_POINT('',(-0.0984508830246165,-2.62708871424044,0.462148007866885));
#675=CARTESIAN_POINT('',(-0.305232721198468,-2.62708871424044,0.462181545047695));
#676=CARTESIAN_POINT('',(0.100330653803505,-2.62708871424044,0.));
#677=CARTESIAN_POINT('',(0.100330653803505,-2.62708871424044,0.2));
#678=CARTESIAN_POINT('',(-0.0984508830246165,-2.62708871424044,0.));
#679=CARTESIAN_POINT('',(-0.0492254415123082,-2.62708871424044,0.));
#680=CARTESIAN_POINT('',(-0.0984508830246165,-2.62708871424044,0.2));
#681=CARTESIAN_POINT('Origin',(-0.0984508830246165,-2.52708871424044,0.2));
#682=CARTESIAN_POINT('',(-0.0984508830246165,-2.52708871424044,0.462148007866885));
#683=CARTESIAN_POINT('',(-0.0984508830246165,-1.26354435712022,0.462148007866885));
#684=CARTESIAN_POINT('',(-0.0984508830246165,-2.52708871424044,0.));
#685=CARTESIAN_POINT('',(-0.0984508830246165,-1.26354435712022,0.));
#686=CARTESIAN_POINT('',(-0.0984508830246165,-2.52708871424044,0.2));
#687=CARTESIAN_POINT('Origin',(0.100330653803505,-2.52708871424044,0.2));
#688=CARTESIAN_POINT('',(0.100330653803505,-2.52708871424044,0.462115768225333));
#689=CARTESIAN_POINT('',(-0.205841955398822,-2.52708871424044,0.462165425227343));
#690=CARTESIAN_POINT('',(0.100330653803505,-2.52708871424044,0.));
#691=CARTESIAN_POINT('',(0.0501653269017524,-2.52708871424044,0.));
#692=CARTESIAN_POINT('',(0.100330653803505,-2.52708871424044,0.2));
#693=CARTESIAN_POINT('Origin',(0.100330653803505,-2.62708871424044,0.2));
#694=CARTESIAN_POINT('',(0.100330653803505,-1.31354435712022,0.462115768225333));
#695=CARTESIAN_POINT('',(0.100330653803505,-1.31354435712022,0.));
#696=CARTESIAN_POINT('Origin',(0.102589534903824,2.5264047873578,0.2));
#697=CARTESIAN_POINT('',(0.102589534903824,2.6264047873578,0.46211540186577));
#698=CARTESIAN_POINT('',(0.102589534903824,2.5264047873578,0.46211540186577));
#699=CARTESIAN_POINT('',(0.102589534903824,1.2632023936789,0.46211540186577));
#700=CARTESIAN_POINT('',(0.102589534903824,2.6264047873578,0.));
#701=CARTESIAN_POINT('',(0.102589534903824,2.6264047873578,0.2));
#702=CARTESIAN_POINT('',(0.102589534903824,2.5264047873578,0.));
#703=CARTESIAN_POINT('',(0.102589534903824,1.2632023936789,0.));
#704=CARTESIAN_POINT('',(0.102589534903824,2.5264047873578,0.2));
#705=CARTESIAN_POINT('Origin',(-0.0984508830246165,2.5264047873578,0.2));
#706=CARTESIAN_POINT('',(-0.0984508830246165,2.5264047873578,0.462148007866885));
#707=CARTESIAN_POINT('',(-0.305232721198468,2.5264047873578,0.462181545047695));
#708=CARTESIAN_POINT('',(-0.0984508830246165,2.5264047873578,0.));
#709=CARTESIAN_POINT('',(-0.0492254415123082,2.5264047873578,0.));
#710=CARTESIAN_POINT('',(-0.0984508830246165,2.5264047873578,0.2));
#711=CARTESIAN_POINT('Origin',(-0.0984508830246165,2.6264047873578,0.2));
#712=CARTESIAN_POINT('',(-0.0984508830246165,2.6264047873578,0.462148007866885));
#713=CARTESIAN_POINT('',(-0.0984508830246165,1.3132023936789,0.462148007866885));
#714=CARTESIAN_POINT('',(-0.0984508830246165,2.6264047873578,0.));
#715=CARTESIAN_POINT('',(-0.0984508830246165,1.3132023936789,0.));
#716=CARTESIAN_POINT('',(-0.0984508830246165,2.6264047873578,0.2));
#717=CARTESIAN_POINT('Origin',(0.102589534903824,2.6264047873578,0.2));
#718=CARTESIAN_POINT('',(-0.204712514878371,2.6264047873578,0.462165242047566));
#719=CARTESIAN_POINT('',(0.0512947674519121,2.6264047873578,0.));
#720=CARTESIAN_POINT('Origin',(2.60000008297717,2.70000008297717,0.));
#721=CARTESIAN_POINT('',(0.2999919002595,2.70000008297717,0.2));
#722=CARTESIAN_POINT('',(2.60000008297717,2.70000008297717,0.2));
#723=CARTESIAN_POINT('',(-2.60000008297717,2.70000008297717,0.2));
#724=CARTESIAN_POINT('',(2.60000008297717,2.70000008297717,0.));
#725=CARTESIAN_POINT('',(2.60000008297717,2.70000008297717,0.));
#726=CARTESIAN_POINT('',(-2.60000008297717,2.70000008297717,0.));
#727=CARTESIAN_POINT('',(-2.60000008297717,2.70000008297717,0.));
#728=CARTESIAN_POINT('',(-2.60000008297717,2.70000008297717,0.2));
#729=CARTESIAN_POINT('',(-2.60000008297717,2.70000008297717,0.));
#730=CARTESIAN_POINT('',(-0.300008118889079,2.70000008297717,0.2));
#731=CARTESIAN_POINT('',(-2.60000008297717,2.70000008297717,0.2));
#732=CARTESIAN_POINT('',(-0.300008118889079,2.7,0.250000010231899));
#733=CARTESIAN_POINT('',(-0.300008118889079,2.7,0.250000010231899));
#734=CARTESIAN_POINT('',(-0.512057076186104,2.7,0.46221508912415));
#735=CARTESIAN_POINT('',(-0.300008118889079,2.7,0.250000010231899));
#736=CARTESIAN_POINT('',(0.512206979151751,2.7,0.462048967528925));
#737=CARTESIAN_POINT('',(0.512206979151751,2.7,0.462048967528925));
#738=CARTESIAN_POINT('',(0.2999919002595,2.7,0.250000010231899));
#739=CARTESIAN_POINT('',(0.2999919002595,2.7,0.250000010231899));
#740=CARTESIAN_POINT('',(0.2999919002595,2.7,0.250000010231899));
#741=CARTESIAN_POINT('Origin',(7.49514828231903E-5,-2.7,0.356107549678024));
#742=CARTESIAN_POINT('',(0.2999919002595,-2.70000008297717,0.2));
#743=CARTESIAN_POINT('',(0.2999919002595,-2.7,0.250000010231899));
#744=CARTESIAN_POINT('',(0.2999919002595,-2.7,0.250000010231899));
#745=CARTESIAN_POINT('',(0.512206979151751,-2.7,0.462048967528925));
#746=CARTESIAN_POINT('',(0.2999919002595,-2.7,0.250000010231899));
#747=CARTESIAN_POINT('',(-0.512057076186104,-2.7,0.46221508912415));
#748=CARTESIAN_POINT('',(0.512206979151751,-2.7,0.462048967528925));
#749=CARTESIAN_POINT('',(-0.300008118889079,-2.7,0.250000010231899));
#750=CARTESIAN_POINT('',(-0.300008118889079,-2.7,0.250000010231899));
#751=CARTESIAN_POINT('',(-0.300008118889079,-2.70000008297717,0.2));
#752=CARTESIAN_POINT('',(-0.300008118889079,-2.7,0.250000010231899));
#753=CARTESIAN_POINT('',(-2.60000008297717,-2.70000008297717,0.2));
#754=CARTESIAN_POINT('',(2.60000008297717,-2.70000008297717,0.2));
#755=CARTESIAN_POINT('',(-2.60000008297717,-2.70000008297717,0.));
#756=CARTESIAN_POINT('',(-2.60000008297717,-2.70000008297717,0.));
#757=CARTESIAN_POINT('',(2.60000008297717,-2.70000008297717,0.));
#758=CARTESIAN_POINT('',(2.60000008297717,-2.70000008297717,0.));
#759=CARTESIAN_POINT('',(2.60000008297717,-2.70000008297717,0.2));
#760=CARTESIAN_POINT('',(2.60000008297717,-2.70000008297717,0.));
#761=CARTESIAN_POINT('',(2.60000008297717,-2.70000008297717,0.2));
#762=CARTESIAN_POINT('Origin',(0.2999919002595,-2.5,0.100000010231899));
#763=CARTESIAN_POINT('',(0.2999919002595,-2.60000004148859,0.2));
#764=CARTESIAN_POINT('',(0.2999919002595,0.,0.250000010231899));
#765=CARTESIAN_POINT('Origin',(-0.300008118889079,-2.5,0.250000010231899));
#766=CARTESIAN_POINT('',(-0.300008118889079,2.60000008297717,0.2));
#767=CARTESIAN_POINT('',(-0.300008118889079,0.,0.250000010231899));
#768=CARTESIAN_POINT('Origin',(-0.512057076186104,0.,0.46221508912415));
#769=CARTESIAN_POINT('',(0.512206979151751,0.,0.462048967528925));
#770=CARTESIAN_POINT('',(-0.512057076186104,0.,0.46221508912415));
#771=CARTESIAN_POINT('Origin',(-0.300008118889079,0.,0.250000010231899));
#772=CARTESIAN_POINT('Origin',(0.512206979151751,0.,0.462048967528925));
#773=CARTESIAN_POINT('Origin',(0.,0.,0.2));
#774=CARTESIAN_POINT('',(2.60000008297717,-2.60000008297717,0.2));
#775=CARTESIAN_POINT('',(2.45000007340289,2.30000007340289,0.2));
#776=CARTESIAN_POINT('Origin',(2.30000007340289,2.30000007340289,0.2));
#777=CARTESIAN_POINT('',(2.45000007340289,-2.30000007340289,0.2));
#778=CARTESIAN_POINT('Origin',(2.30000007340289,-2.30000007340289,0.2));
#779=CARTESIAN_POINT('Origin',(0.,0.,0.2));
#780=CARTESIAN_POINT('',(-2.60000008297717,2.60000008297717,0.2));
#781=CARTESIAN_POINT('',(-2.15000007340289,-2.30000007340289,0.2));
#782=CARTESIAN_POINT('Origin',(-2.30000007340289,-2.30000007340289,0.2));
#783=CARTESIAN_POINT('',(-2.15000007340289,2.30000007340289,0.2));
#784=CARTESIAN_POINT('Origin',(-2.30000007340289,2.30000007340289,0.2));
#785=CARTESIAN_POINT('Origin',(-2.30000007340289,2.30000007340289,0.2));
#786=CARTESIAN_POINT('',(-2.15000007340289,2.30000007340289,0.));
#787=CARTESIAN_POINT('',(-2.15000007340289,2.30000007340289,0.2));
#788=CARTESIAN_POINT('Origin',(-2.30000007340289,2.30000007340289,0.));
#789=CARTESIAN_POINT('Origin',(2.30000007340289,2.30000007340289,0.2));
#790=CARTESIAN_POINT('',(2.45000007340289,2.30000007340289,0.));
#791=CARTESIAN_POINT('',(2.45000007340289,2.30000007340289,0.2));
#792=CARTESIAN_POINT('Origin',(2.30000007340289,2.30000007340289,0.));
#793=CARTESIAN_POINT('Origin',(-2.30000007340289,-2.30000007340289,0.2));
#794=CARTESIAN_POINT('',(-2.15000007340289,-2.30000007340289,0.));
#795=CARTESIAN_POINT('',(-2.15000007340289,-2.30000007340289,0.2));
#796=CARTESIAN_POINT('Origin',(-2.30000007340289,-2.30000007340289,0.));
#797=CARTESIAN_POINT('Origin',(2.30000007340289,-2.30000007340289,0.2));
#798=CARTESIAN_POINT('',(2.45000007340289,-2.30000007340289,0.));
#799=CARTESIAN_POINT('',(2.45000007340289,-2.30000007340289,0.2));
#800=CARTESIAN_POINT('Origin',(2.30000007340289,-2.30000007340289,0.));
#801=CARTESIAN_POINT('Origin',(2.60000008297717,-2.60000008297717,0.));
#802=CARTESIAN_POINT('',(2.60000008297717,-2.60000008297717,0.));
#803=CARTESIAN_POINT('Origin',(-2.60000008297717,2.60000008297717,0.));
#804=CARTESIAN_POINT('',(-2.60000008297717,2.60000008297717,0.));
#805=CARTESIAN_POINT('Origin',(0.,0.,0.));
#806=UNCERTAINTY_MEASURE_WITH_UNIT(LENGTH_MEASURE(0.000393700787401575),
#811,'DISTANCE_ACCURACY_VALUE',
'Maximum model space distance between geometric entities at asserted c
onnectivities');
#807=UNCERTAINTY_MEASURE_WITH_UNIT(LENGTH_MEASURE(0.000393700787401575),
#811,'DISTANCE_ACCURACY_VALUE',
'Maximum model space distance between geometric entities at asserted c
onnectivities');
#808=(
GEOMETRIC_REPRESENTATION_CONTEXT(3)
GLOBAL_UNCERTAINTY_ASSIGNED_CONTEXT((#806))
GLOBAL_UNIT_ASSIGNED_CONTEXT((#811,#815,#816))
REPRESENTATION_CONTEXT('','3D')
);
#809=(
GEOMETRIC_REPRESENTATION_CONTEXT(3)
GLOBAL_UNCERTAINTY_ASSIGNED_CONTEXT((#807))
GLOBAL_UNIT_ASSIGNED_CONTEXT((#811,#815,#816))
REPRESENTATION_CONTEXT('','3D')
);
#810=DIMENSIONAL_EXPONENTS(1.,0.,0.,0.,0.,0.,0.);
#811=(
CONVERSION_BASED_UNIT('inch',#814)
LENGTH_UNIT()
NAMED_UNIT(#810)
);
#812=(
LENGTH_UNIT()
NAMED_UNIT(*)
SI_UNIT(.MILLI.,.METRE.)
);
#813=(
LENGTH_UNIT()
NAMED_UNIT(*)
SI_UNIT($,.METRE.)
);
#814=LENGTH_MEASURE_WITH_UNIT(LENGTH_MEASURE(25.4),#812);
#815=(
NAMED_UNIT(*)
PLANE_ANGLE_UNIT()
SI_UNIT($,.RADIAN.)
);
#816=(
NAMED_UNIT(*)
SI_UNIT($,.STERADIAN.)
SOLID_ANGLE_UNIT()
);
#817=SHAPE_DEFINITION_REPRESENTATION(#818,#819);
#818=PRODUCT_DEFINITION_SHAPE('',$,#821);
#819=SHAPE_REPRESENTATION('',(#514),#808);
#820=PRODUCT_DEFINITION_CONTEXT('part definition',#825,'design');
#821=PRODUCT_DEFINITION('2026-03-16-14-32-38-053','base_bottom',#822,#820);
#822=PRODUCT_DEFINITION_FORMATION('',$,#827);
#823=PRODUCT_RELATED_PRODUCT_CATEGORY('base_bottom','base_bottom',(#827));
#824=APPLICATION_PROTOCOL_DEFINITION('international standard',
'automotive_design',2009,#825);
#825=APPLICATION_CONTEXT(
'Core Data for Automotive Mechanical Design Process');
#826=PRODUCT_CONTEXT('part definition',#825,'mechanical');
#827=PRODUCT('2026-03-16-14-32-38-053','base_bottom',$,(#826));
#828=PRESENTATION_STYLE_ASSIGNMENT((#829));
#829=SURFACE_STYLE_USAGE(.BOTH.,#830);
#830=SURFACE_SIDE_STYLE('',(#831));
#831=SURFACE_STYLE_FILL_AREA(#832);
#832=FILL_AREA_STYLE('Steel - Satin',(#833));
#833=FILL_AREA_STYLE_COLOUR('Steel - Satin',#834);
#834=COLOUR_RGB('Steel - Satin',0.627450980392157,0.627450980392157,0.627450980392157);
ENDSEC;
END-ISO-10303-21;
