ISO-10303-21;
HEADER;
/* Generated by software containing ST-Developer
 * from STEP Tools, Inc. (www.steptools.com) 
 */

FILE_DESCRIPTION(
/* description */ (''),
/* implementation_level */ '2;1');

FILE_NAME(
/* name */ 'base_legs.step',
/* time_stamp */ '2026-08-19T18:50:41-05:00',
/* author */ (''),
/* organization */ (''),
/* preprocessor_version */ 'ST-DEVELOPER v20.1',
/* originating_system */ 'Autodesk Translation Framework v15.8.0.0',
/* authorisation */ '');

FILE_SCHEMA (('AUTOMOTIVE_DESIGN { 1 0 10303 214 3 1 1 }'));
ENDSEC;

DATA;
#10=MECHANICAL_DESIGN_GEOMETRIC_PRESENTATION_REPRESENTATION('',(#13,#14),
#1897);
#11=SHAPE_REPRESENTATION_RELATIONSHIP('SRR','None',#1907,#12);
#12=ADVANCED_BREP_SHAPE_REPRESENTATION('',(#15,#16),#1896);
#13=STYLED_ITEM('',(#1916),#15);
#14=STYLED_ITEM('',(#1916),#16);
#15=MANIFOLD_SOLID_BREP('Body1',#1187);
#16=MANIFOLD_SOLID_BREP('Body7',#1188);
#17=CYLINDRICAL_SURFACE('',#1227,0.14);
#18=CYLINDRICAL_SURFACE('',#1264,0.14);
#19=FACE_BOUND('',#103,.T.);
#20=FACE_BOUND('',#118,.T.);
#21=CIRCLE('',#1218,0.14);
#22=CIRCLE('',#1228,0.14);
#23=CIRCLE('',#1234,0.14);
#24=CIRCLE('',#1265,0.14);
#25=FACE_OUTER_BOUND('',#87,.T.);
#26=FACE_OUTER_BOUND('',#88,.T.);
#27=FACE_OUTER_BOUND('',#89,.T.);
#28=FACE_OUTER_BOUND('',#90,.T.);
#29=FACE_OUTER_BOUND('',#91,.T.);
#30=FACE_OUTER_BOUND('',#92,.T.);
#31=FACE_OUTER_BOUND('',#93,.T.);
#32=FACE_OUTER_BOUND('',#94,.T.);
#33=FACE_OUTER_BOUND('',#95,.T.);
#34=FACE_OUTER_BOUND('',#96,.T.);
#35=FACE_OUTER_BOUND('',#97,.T.);
#36=FACE_OUTER_BOUND('',#98,.T.);
#37=FACE_OUTER_BOUND('',#99,.T.);
#38=FACE_OUTER_BOUND('',#100,.T.);
#39=FACE_OUTER_BOUND('',#101,.T.);
#40=FACE_OUTER_BOUND('',#102,.T.);
#41=FACE_OUTER_BOUND('',#104,.T.);
#42=FACE_OUTER_BOUND('',#105,.T.);
#43=FACE_OUTER_BOUND('',#106,.T.);
#44=FACE_OUTER_BOUND('',#107,.T.);
#45=FACE_OUTER_BOUND('',#108,.T.);
#46=FACE_OUTER_BOUND('',#109,.T.);
#47=FACE_OUTER_BOUND('',#110,.T.);
#48=FACE_OUTER_BOUND('',#111,.T.);
#49=FACE_OUTER_BOUND('',#112,.T.);
#50=FACE_OUTER_BOUND('',#113,.T.);
#51=FACE_OUTER_BOUND('',#114,.T.);
#52=FACE_OUTER_BOUND('',#115,.T.);
#53=FACE_OUTER_BOUND('',#116,.T.);
#54=FACE_OUTER_BOUND('',#117,.T.);
#55=FACE_OUTER_BOUND('',#119,.T.);
#56=FACE_OUTER_BOUND('',#120,.T.);
#57=FACE_OUTER_BOUND('',#121,.T.);
#58=FACE_OUTER_BOUND('',#122,.T.);
#59=FACE_OUTER_BOUND('',#123,.T.);
#60=FACE_OUTER_BOUND('',#124,.T.);
#61=FACE_OUTER_BOUND('',#125,.T.);
#62=FACE_OUTER_BOUND('',#126,.T.);
#63=FACE_OUTER_BOUND('',#127,.T.);
#64=FACE_OUTER_BOUND('',#128,.T.);
#65=FACE_OUTER_BOUND('',#129,.T.);
#66=FACE_OUTER_BOUND('',#130,.T.);
#67=FACE_OUTER_BOUND('',#131,.T.);
#68=FACE_OUTER_BOUND('',#132,.T.);
#69=FACE_OUTER_BOUND('',#133,.T.);
#70=FACE_OUTER_BOUND('',#134,.T.);
#71=FACE_OUTER_BOUND('',#135,.T.);
#72=FACE_OUTER_BOUND('',#136,.T.);
#73=FACE_OUTER_BOUND('',#137,.T.);
#74=FACE_OUTER_BOUND('',#138,.T.);
#75=FACE_OUTER_BOUND('',#139,.T.);
#76=FACE_OUTER_BOUND('',#140,.T.);
#77=FACE_OUTER_BOUND('',#141,.T.);
#78=FACE_OUTER_BOUND('',#142,.T.);
#79=FACE_OUTER_BOUND('',#143,.T.);
#80=FACE_OUTER_BOUND('',#144,.T.);
#81=FACE_OUTER_BOUND('',#145,.T.);
#82=FACE_OUTER_BOUND('',#146,.T.);
#83=FACE_OUTER_BOUND('',#147,.T.);
#84=FACE_OUTER_BOUND('',#148,.T.);
#85=FACE_OUTER_BOUND('',#149,.T.);
#86=FACE_OUTER_BOUND('',#150,.T.);
#87=EDGE_LOOP('',(#739,#740,#741,#742));
#88=EDGE_LOOP('',(#743,#744,#745,#746));
#89=EDGE_LOOP('',(#747,#748,#749));
#90=EDGE_LOOP('',(#750,#751,#752,#753,#754,#755,#756,#757,#758,#759));
#91=EDGE_LOOP('',(#760,#761,#762,#763));
#92=EDGE_LOOP('',(#764,#765,#766,#767,#768));
#93=EDGE_LOOP('',(#769,#770,#771,#772));
#94=EDGE_LOOP('',(#773,#774,#775,#776));
#95=EDGE_LOOP('',(#777,#778,#779));
#96=EDGE_LOOP('',(#780,#781,#782));
#97=EDGE_LOOP('',(#783,#784,#785,#786));
#98=EDGE_LOOP('',(#787,#788,#789,#790));
#99=EDGE_LOOP('',(#791,#792,#793,#794));
#100=EDGE_LOOP('',(#795,#796,#797,#798,#799,#800,#801,#802));
#101=EDGE_LOOP('',(#803,#804,#805,#806));
#102=EDGE_LOOP('',(#807,#808,#809,#810,#811,#812,#813,#814,#815,#816,#817,
#818,#819,#820,#821,#822,#823));
#103=EDGE_LOOP('',(#824));
#104=EDGE_LOOP('',(#825,#826,#827,#828,#829,#830,#831));
#105=EDGE_LOOP('',(#832,#833,#834,#835));
#106=EDGE_LOOP('',(#836,#837,#838,#839,#840));
#107=EDGE_LOOP('',(#841,#842,#843,#844));
#108=EDGE_LOOP('',(#845,#846,#847,#848));
#109=EDGE_LOOP('',(#849,#850,#851,#852));
#110=EDGE_LOOP('',(#853,#854,#855,#856));
#111=EDGE_LOOP('',(#857,#858,#859,#860,#861,#862,#863,#864,#865,#866,#867,
#868,#869));
#112=EDGE_LOOP('',(#870,#871,#872,#873));
#113=EDGE_LOOP('',(#874));
#114=EDGE_LOOP('',(#875,#876,#877,#878));
#115=EDGE_LOOP('',(#879,#880,#881,#882));
#116=EDGE_LOOP('',(#883,#884,#885,#886,#887,#888,#889));
#117=EDGE_LOOP('',(#890,#891,#892,#893,#894,#895,#896,#897,#898,#899,#900,
#901));
#118=EDGE_LOOP('',(#902));
#119=EDGE_LOOP('',(#903,#904,#905,#906));
#120=EDGE_LOOP('',(#907,#908,#909,#910,#911,#912,#913,#914,#915,#916,#917,
#918));
#121=EDGE_LOOP('',(#919,#920,#921,#922));
#122=EDGE_LOOP('',(#923,#924,#925,#926));
#123=EDGE_LOOP('',(#927,#928,#929,#930,#931));
#124=EDGE_LOOP('',(#932,#933,#934,#935));
#125=EDGE_LOOP('',(#936,#937,#938,#939));
#126=EDGE_LOOP('',(#940,#941,#942,#943));
#127=EDGE_LOOP('',(#944,#945,#946,#947));
#128=EDGE_LOOP('',(#948,#949,#950,#951,#952,#953));
#129=EDGE_LOOP('',(#954,#955,#956,#957,#958,#959,#960,#961,#962,#963,#964,
#965));
#130=EDGE_LOOP('',(#966,#967,#968));
#131=EDGE_LOOP('',(#969,#970,#971));
#132=EDGE_LOOP('',(#972,#973,#974,#975));
#133=EDGE_LOOP('',(#976,#977,#978,#979));
#134=EDGE_LOOP('',(#980,#981,#982,#983,#984,#985,#986,#987,#988,#989));
#135=EDGE_LOOP('',(#990,#991,#992));
#136=EDGE_LOOP('',(#993,#994,#995,#996));
#137=EDGE_LOOP('',(#997,#998,#999));
#138=EDGE_LOOP('',(#1000,#1001,#1002,#1003,#1004,#1005));
#139=EDGE_LOOP('',(#1006,#1007,#1008,#1009));
#140=EDGE_LOOP('',(#1010,#1011,#1012,#1013));
#141=EDGE_LOOP('',(#1014,#1015,#1016,#1017,#1018));
#142=EDGE_LOOP('',(#1019,#1020,#1021,#1022,#1023,#1024,#1025,#1026));
#143=EDGE_LOOP('',(#1027,#1028,#1029,#1030));
#144=EDGE_LOOP('',(#1031,#1032,#1033,#1034));
#145=EDGE_LOOP('',(#1035,#1036,#1037,#1038));
#146=EDGE_LOOP('',(#1039,#1040,#1041,#1042));
#147=EDGE_LOOP('',(#1043,#1044,#1045,#1046,#1047,#1048,#1049,#1050,#1051,
#1052,#1053,#1054,#1055));
#148=EDGE_LOOP('',(#1056,#1057,#1058,#1059));
#149=EDGE_LOOP('',(#1060));
#150=EDGE_LOOP('',(#1061,#1062,#1063,#1064));
#151=LINE('',#1565,#310);
#152=LINE('',#1567,#311);
#153=LINE('',#1569,#312);
#154=LINE('',#1570,#313);
#155=LINE('',#1573,#314);
#156=LINE('',#1575,#315);
#157=LINE('',#1576,#316);
#158=LINE('',#1580,#317);
#159=LINE('',#1582,#318);
#160=LINE('',#1583,#319);
#161=LINE('',#1586,#320);
#162=LINE('',#1588,#321);
#163=LINE('',#1590,#322);
#164=LINE('',#1592,#323);
#165=LINE('',#1594,#324);
#166=LINE('',#1596,#325);
#167=LINE('',#1598,#326);
#168=LINE('',#1600,#327);
#169=LINE('',#1601,#328);
#170=LINE('',#1605,#329);
#171=LINE('',#1607,#330);
#172=LINE('',#1609,#331);
#173=LINE('',#1610,#332);
#174=LINE('',#1613,#333);
#175=LINE('',#1615,#334);
#176=LINE('',#1617,#335);
#177=LINE('',#1618,#336);
#178=LINE('',#1621,#337);
#179=LINE('',#1623,#338);
#180=LINE('',#1624,#339);
#181=LINE('',#1628,#340);
#182=LINE('',#1630,#341);
#183=LINE('',#1632,#342);
#184=LINE('',#1633,#343);
#185=LINE('',#1636,#344);
#186=LINE('',#1637,#345);
#187=LINE('',#1640,#346);
#188=LINE('',#1641,#347);
#189=LINE('',#1643,#348);
#190=LINE('',#1645,#349);
#191=LINE('',#1646,#350);
#192=LINE('',#1649,#351);
#193=LINE('',#1651,#352);
#194=LINE('',#1653,#353);
#195=LINE('',#1654,#354);
#196=LINE('',#1656,#355);
#197=LINE('',#1657,#356);
#198=LINE('',#1660,#357);
#199=LINE('',#1662,#358);
#200=LINE('',#1663,#359);
#201=LINE('',#1665,#360);
#202=LINE('',#1667,#361);
#203=LINE('',#1669,#362);
#204=LINE('',#1670,#363);
#205=LINE('',#1675,#364);
#206=LINE('',#1676,#365);
#207=LINE('',#1677,#366);
#208=LINE('',#1680,#367);
#209=LINE('',#1681,#368);
#210=LINE('',#1685,#369);
#211=LINE('',#1686,#370);
#212=LINE('',#1689,#371);
#213=LINE('',#1690,#372);
#214=LINE('',#1692,#373);
#215=LINE('',#1695,#374);
#216=LINE('',#1696,#375);
#217=LINE('',#1698,#376);
#218=LINE('',#1702,#377);
#219=LINE('',#1708,#378);
#220=LINE('',#1710,#379);
#221=LINE('',#1712,#380);
#222=LINE('',#1713,#381);
#223=LINE('',#1717,#382);
#224=LINE('',#1719,#383);
#225=LINE('',#1721,#384);
#226=LINE('',#1723,#385);
#227=LINE('',#1725,#386);
#228=LINE('',#1727,#387);
#229=LINE('',#1728,#388);
#230=LINE('',#1732,#389);
#231=LINE('',#1733,#390);
#232=LINE('',#1735,#391);
#233=LINE('',#1737,#392);
#234=LINE('',#1738,#393);
#235=LINE('',#1740,#394);
#236=LINE('',#1742,#395);
#237=LINE('',#1744,#396);
#238=LINE('',#1746,#397);
#239=LINE('',#1747,#398);
#240=LINE('',#1752,#399);
#241=LINE('',#1753,#400);
#242=LINE('',#1756,#401);
#243=LINE('',#1758,#402);
#244=LINE('',#1760,#403);
#245=LINE('',#1762,#404);
#246=LINE('',#1764,#405);
#247=LINE('',#1766,#406);
#248=LINE('',#1768,#407);
#249=LINE('',#1770,#408);
#250=LINE('',#1772,#409);
#251=LINE('',#1773,#410);
#252=LINE('',#1776,#411);
#253=LINE('',#1777,#412);
#254=LINE('',#1780,#413);
#255=LINE('',#1781,#414);
#256=LINE('',#1784,#415);
#257=LINE('',#1786,#416);
#258=LINE('',#1787,#417);
#259=LINE('',#1789,#418);
#260=LINE('',#1792,#419);
#261=LINE('',#1793,#420);
#262=LINE('',#1796,#421);
#263=LINE('',#1798,#422);
#264=LINE('',#1799,#423);
#265=LINE('',#1802,#424);
#266=LINE('',#1804,#425);
#267=LINE('',#1805,#426);
#268=LINE('',#1808,#427);
#269=LINE('',#1810,#428);
#270=LINE('',#1812,#429);
#271=LINE('',#1813,#430);
#272=LINE('',#1816,#431);
#273=LINE('',#1818,#432);
#274=LINE('',#1820,#433);
#275=LINE('',#1822,#434);
#276=LINE('',#1824,#435);
#277=LINE('',#1826,#436);
#278=LINE('',#1828,#437);
#279=LINE('',#1830,#438);
#280=LINE('',#1832,#439);
#281=LINE('',#1833,#440);
#282=LINE('',#1836,#441);
#283=LINE('',#1837,#442);
#284=LINE('',#1840,#443);
#285=LINE('',#1841,#444);
#286=LINE('',#1843,#445);
#287=LINE('',#1845,#446);
#288=LINE('',#1847,#447);
#289=LINE('',#1848,#448);
#290=LINE('',#1850,#449);
#291=LINE('',#1853,#450);
#292=LINE('',#1855,#451);
#293=LINE('',#1858,#452);
#294=LINE('',#1859,#453);
#295=LINE('',#1861,#454);
#296=LINE('',#1863,#455);
#297=LINE('',#1866,#456);
#298=LINE('',#1867,#457);
#299=LINE('',#1870,#458);
#300=LINE('',#1871,#459);
#301=LINE('',#1874,#460);
#302=LINE('',#1875,#461);
#303=LINE('',#1878,#462);
#304=LINE('',#1879,#463);
#305=LINE('',#1881,#464);
#306=LINE('',#1884,#465);
#307=LINE('',#1885,#466);
#308=LINE('',#1887,#467);
#309=LINE('',#1891,#468);
#310=VECTOR('',#1272,0.393700787401575);
#311=VECTOR('',#1273,0.393700787401575);
#312=VECTOR('',#1274,0.393700787401575);
#313=VECTOR('',#1275,0.393700787401575);
#314=VECTOR('',#1278,0.393700787401575);
#315=VECTOR('',#1279,0.393700787401575);
#316=VECTOR('',#1280,0.393700787401575);
#317=VECTOR('',#1283,0.393700787401575);
#318=VECTOR('',#1284,0.393700787401575);
#319=VECTOR('',#1285,0.393700787401575);
#320=VECTOR('',#1288,0.393700787401575);
#321=VECTOR('',#1289,0.393700787401575);
#322=VECTOR('',#1290,0.393700787401575);
#323=VECTOR('',#1291,0.393700787401575);
#324=VECTOR('',#1292,0.393700787401575);
#325=VECTOR('',#1293,0.393700787401575);
#326=VECTOR('',#1294,0.393700787401575);
#327=VECTOR('',#1295,0.393700787401575);
#328=VECTOR('',#1296,0.393700787401575);
#329=VECTOR('',#1299,0.393700787401575);
#330=VECTOR('',#1300,0.393700787401575);
#331=VECTOR('',#1301,0.393700787401575);
#332=VECTOR('',#1302,0.393700787401575);
#333=VECTOR('',#1305,0.393700787401575);
#334=VECTOR('',#1306,0.393700787401575);
#335=VECTOR('',#1307,0.393700787401575);
#336=VECTOR('',#1308,0.393700787401575);
#337=VECTOR('',#1311,0.393700787401575);
#338=VECTOR('',#1312,0.393700787401575);
#339=VECTOR('',#1313,0.393700787401575);
#340=VECTOR('',#1316,0.393700787401575);
#341=VECTOR('',#1317,0.393700787401575);
#342=VECTOR('',#1318,0.393700787401575);
#343=VECTOR('',#1319,0.393700787401575);
#344=VECTOR('',#1322,0.393700787401575);
#345=VECTOR('',#1323,0.393700787401575);
#346=VECTOR('',#1326,0.393700787401575);
#347=VECTOR('',#1327,0.393700787401575);
#348=VECTOR('',#1330,0.393700787401575);
#349=VECTOR('',#1333,0.393700787401575);
#350=VECTOR('',#1334,0.393700787401575);
#351=VECTOR('',#1339,0.393700787401575);
#352=VECTOR('',#1340,0.393700787401575);
#353=VECTOR('',#1341,0.393700787401575);
#354=VECTOR('',#1342,0.393700787401575);
#355=VECTOR('',#1345,0.393700787401575);
#356=VECTOR('',#1346,0.393700787401575);
#357=VECTOR('',#1349,0.393700787401575);
#358=VECTOR('',#1350,0.393700787401575);
#359=VECTOR('',#1351,0.393700787401575);
#360=VECTOR('',#1352,0.393700787401575);
#361=VECTOR('',#1353,0.393700787401575);
#362=VECTOR('',#1354,0.393700787401575);
#363=VECTOR('',#1355,0.393700787401575);
#364=VECTOR('',#1360,0.393700787401575);
#365=VECTOR('',#1361,0.393700787401575);
#366=VECTOR('',#1362,0.393700787401575);
#367=VECTOR('',#1365,0.393700787401575);
#368=VECTOR('',#1366,0.393700787401575);
#369=VECTOR('',#1371,0.393700787401575);
#370=VECTOR('',#1372,0.393700787401575);
#371=VECTOR('',#1375,0.393700787401575);
#372=VECTOR('',#1376,0.393700787401575);
#373=VECTOR('',#1379,0.393700787401575);
#374=VECTOR('',#1382,0.393700787401575);
#375=VECTOR('',#1383,0.393700787401575);
#376=VECTOR('',#1386,0.393700787401575);
#377=VECTOR('',#1391,0.14);
#378=VECTOR('',#1398,0.393700787401575);
#379=VECTOR('',#1399,0.393700787401575);
#380=VECTOR('',#1400,0.393700787401575);
#381=VECTOR('',#1401,0.393700787401575);
#382=VECTOR('',#1404,0.393700787401575);
#383=VECTOR('',#1405,0.393700787401575);
#384=VECTOR('',#1406,0.393700787401575);
#385=VECTOR('',#1407,0.393700787401575);
#386=VECTOR('',#1408,0.393700787401575);
#387=VECTOR('',#1409,0.393700787401575);
#388=VECTOR('',#1410,0.393700787401575);
#389=VECTOR('',#1413,0.393700787401575);
#390=VECTOR('',#1414,0.393700787401575);
#391=VECTOR('',#1415,0.393700787401575);
#392=VECTOR('',#1416,0.393700787401575);
#393=VECTOR('',#1417,0.393700787401575);
#394=VECTOR('',#1418,0.393700787401575);
#395=VECTOR('',#1419,0.393700787401575);
#396=VECTOR('',#1420,0.393700787401575);
#397=VECTOR('',#1421,0.393700787401575);
#398=VECTOR('',#1422,0.393700787401575);
#399=VECTOR('',#1427,0.393700787401575);
#400=VECTOR('',#1428,0.393700787401575);
#401=VECTOR('',#1431,0.393700787401575);
#402=VECTOR('',#1432,0.393700787401575);
#403=VECTOR('',#1433,0.393700787401575);
#404=VECTOR('',#1434,0.393700787401575);
#405=VECTOR('',#1435,0.393700787401575);
#406=VECTOR('',#1436,0.393700787401575);
#407=VECTOR('',#1437,0.393700787401575);
#408=VECTOR('',#1438,0.393700787401575);
#409=VECTOR('',#1439,0.393700787401575);
#410=VECTOR('',#1440,0.393700787401575);
#411=VECTOR('',#1443,0.393700787401575);
#412=VECTOR('',#1444,0.393700787401575);
#413=VECTOR('',#1447,0.393700787401575);
#414=VECTOR('',#1448,0.393700787401575);
#415=VECTOR('',#1451,0.393700787401575);
#416=VECTOR('',#1452,0.393700787401575);
#417=VECTOR('',#1453,0.393700787401575);
#418=VECTOR('',#1456,0.393700787401575);
#419=VECTOR('',#1459,0.393700787401575);
#420=VECTOR('',#1460,0.393700787401575);
#421=VECTOR('',#1463,0.393700787401575);
#422=VECTOR('',#1464,0.393700787401575);
#423=VECTOR('',#1465,0.393700787401575);
#424=VECTOR('',#1468,0.393700787401575);
#425=VECTOR('',#1469,0.393700787401575);
#426=VECTOR('',#1470,0.393700787401575);
#427=VECTOR('',#1473,0.393700787401575);
#428=VECTOR('',#1474,0.393700787401575);
#429=VECTOR('',#1475,0.393700787401575);
#430=VECTOR('',#1476,0.393700787401575);
#431=VECTOR('',#1479,0.393700787401575);
#432=VECTOR('',#1480,0.393700787401575);
#433=VECTOR('',#1481,0.393700787401575);
#434=VECTOR('',#1482,0.393700787401575);
#435=VECTOR('',#1483,0.393700787401575);
#436=VECTOR('',#1484,0.393700787401575);
#437=VECTOR('',#1485,0.393700787401575);
#438=VECTOR('',#1486,0.393700787401575);
#439=VECTOR('',#1487,0.393700787401575);
#440=VECTOR('',#1488,0.393700787401575);
#441=VECTOR('',#1491,0.393700787401575);
#442=VECTOR('',#1492,0.393700787401575);
#443=VECTOR('',#1495,0.393700787401575);
#444=VECTOR('',#1496,0.393700787401575);
#445=VECTOR('',#1499,0.393700787401575);
#446=VECTOR('',#1502,0.393700787401575);
#447=VECTOR('',#1503,0.393700787401575);
#448=VECTOR('',#1504,0.393700787401575);
#449=VECTOR('',#1507,0.393700787401575);
#450=VECTOR('',#1512,0.393700787401575);
#451=VECTOR('',#1515,0.393700787401575);
#452=VECTOR('',#1518,0.393700787401575);
#453=VECTOR('',#1519,0.393700787401575);
#454=VECTOR('',#1522,0.393700787401575);
#455=VECTOR('',#1525,0.393700787401575);
#456=VECTOR('',#1528,0.393700787401575);
#457=VECTOR('',#1529,0.393700787401575);
#458=VECTOR('',#1532,0.393700787401575);
#459=VECTOR('',#1533,0.393700787401575);
#460=VECTOR('',#1536,0.393700787401575);
#461=VECTOR('',#1537,0.393700787401575);
#462=VECTOR('',#1540,0.393700787401575);
#463=VECTOR('',#1541,0.393700787401575);
#464=VECTOR('',#1544,0.393700787401575);
#465=VECTOR('',#1547,0.393700787401575);
#466=VECTOR('',#1548,0.393700787401575);
#467=VECTOR('',#1551,0.393700787401575);
#468=VECTOR('',#1556,0.14);
#469=VERTEX_POINT('',#1563);
#470=VERTEX_POINT('',#1564);
#471=VERTEX_POINT('',#1566);
#472=VERTEX_POINT('',#1568);
#473=VERTEX_POINT('',#1572);
#474=VERTEX_POINT('',#1574);
#475=VERTEX_POINT('',#1578);
#476=VERTEX_POINT('',#1579);
#477=VERTEX_POINT('',#1581);
#478=VERTEX_POINT('',#1585);
#479=VERTEX_POINT('',#1587);
#480=VERTEX_POINT('',#1589);
#481=VERTEX_POINT('',#1591);
#482=VERTEX_POINT('',#1593);
#483=VERTEX_POINT('',#1595);
#484=VERTEX_POINT('',#1597);
#485=VERTEX_POINT('',#1599);
#486=VERTEX_POINT('',#1603);
#487=VERTEX_POINT('',#1604);
#488=VERTEX_POINT('',#1606);
#489=VERTEX_POINT('',#1608);
#490=VERTEX_POINT('',#1612);
#491=VERTEX_POINT('',#1614);
#492=VERTEX_POINT('',#1616);
#493=VERTEX_POINT('',#1620);
#494=VERTEX_POINT('',#1622);
#495=VERTEX_POINT('',#1626);
#496=VERTEX_POINT('',#1627);
#497=VERTEX_POINT('',#1629);
#498=VERTEX_POINT('',#1631);
#499=VERTEX_POINT('',#1635);
#500=VERTEX_POINT('',#1639);
#501=VERTEX_POINT('',#1650);
#502=VERTEX_POINT('',#1652);
#503=VERTEX_POINT('',#1659);
#504=VERTEX_POINT('',#1661);
#505=VERTEX_POINT('',#1664);
#506=VERTEX_POINT('',#1666);
#507=VERTEX_POINT('',#1668);
#508=VERTEX_POINT('',#1671);
#509=VERTEX_POINT('',#1674);
#510=VERTEX_POINT('',#1679);
#511=VERTEX_POINT('',#1684);
#512=VERTEX_POINT('',#1688);
#513=VERTEX_POINT('',#1694);
#514=VERTEX_POINT('',#1700);
#515=VERTEX_POINT('',#1706);
#516=VERTEX_POINT('',#1707);
#517=VERTEX_POINT('',#1709);
#518=VERTEX_POINT('',#1711);
#519=VERTEX_POINT('',#1715);
#520=VERTEX_POINT('',#1716);
#521=VERTEX_POINT('',#1718);
#522=VERTEX_POINT('',#1720);
#523=VERTEX_POINT('',#1722);
#524=VERTEX_POINT('',#1724);
#525=VERTEX_POINT('',#1726);
#526=VERTEX_POINT('',#1730);
#527=VERTEX_POINT('',#1731);
#528=VERTEX_POINT('',#1734);
#529=VERTEX_POINT('',#1736);
#530=VERTEX_POINT('',#1739);
#531=VERTEX_POINT('',#1741);
#532=VERTEX_POINT('',#1743);
#533=VERTEX_POINT('',#1745);
#534=VERTEX_POINT('',#1748);
#535=VERTEX_POINT('',#1751);
#536=VERTEX_POINT('',#1755);
#537=VERTEX_POINT('',#1757);
#538=VERTEX_POINT('',#1759);
#539=VERTEX_POINT('',#1761);
#540=VERTEX_POINT('',#1763);
#541=VERTEX_POINT('',#1765);
#542=VERTEX_POINT('',#1767);
#543=VERTEX_POINT('',#1769);
#544=VERTEX_POINT('',#1771);
#545=VERTEX_POINT('',#1775);
#546=VERTEX_POINT('',#1779);
#547=VERTEX_POINT('',#1783);
#548=VERTEX_POINT('',#1785);
#549=VERTEX_POINT('',#1791);
#550=VERTEX_POINT('',#1795);
#551=VERTEX_POINT('',#1797);
#552=VERTEX_POINT('',#1801);
#553=VERTEX_POINT('',#1803);
#554=VERTEX_POINT('',#1807);
#555=VERTEX_POINT('',#1809);
#556=VERTEX_POINT('',#1811);
#557=VERTEX_POINT('',#1815);
#558=VERTEX_POINT('',#1817);
#559=VERTEX_POINT('',#1819);
#560=VERTEX_POINT('',#1821);
#561=VERTEX_POINT('',#1823);
#562=VERTEX_POINT('',#1825);
#563=VERTEX_POINT('',#1827);
#564=VERTEX_POINT('',#1829);
#565=VERTEX_POINT('',#1831);
#566=VERTEX_POINT('',#1835);
#567=VERTEX_POINT('',#1839);
#568=VERTEX_POINT('',#1846);
#569=VERTEX_POINT('',#1857);
#570=VERTEX_POINT('',#1865);
#571=VERTEX_POINT('',#1869);
#572=VERTEX_POINT('',#1873);
#573=VERTEX_POINT('',#1877);
#574=VERTEX_POINT('',#1883);
#575=VERTEX_POINT('',#1889);
#576=EDGE_CURVE('',#469,#470,#151,.T.);
#577=EDGE_CURVE('',#471,#470,#152,.T.);
#578=EDGE_CURVE('',#471,#472,#153,.T.);
#579=EDGE_CURVE('',#472,#469,#154,.T.);
#580=EDGE_CURVE('',#473,#470,#155,.T.);
#581=EDGE_CURVE('',#474,#473,#156,.T.);
#582=EDGE_CURVE('',#471,#474,#157,.T.);
#583=EDGE_CURVE('',#475,#476,#158,.T.);
#584=EDGE_CURVE('',#477,#476,#159,.T.);
#585=EDGE_CURVE('',#475,#477,#160,.T.);
#586=EDGE_CURVE('',#476,#478,#161,.T.);
#587=EDGE_CURVE('',#479,#478,#162,.T.);
#588=EDGE_CURVE('',#480,#479,#163,.T.);
#589=EDGE_CURVE('',#481,#480,#164,.T.);
#590=EDGE_CURVE('',#482,#481,#165,.T.);
#591=EDGE_CURVE('',#482,#483,#166,.T.);
#592=EDGE_CURVE('',#483,#484,#167,.T.);
#593=EDGE_CURVE('',#484,#485,#168,.T.);
#594=EDGE_CURVE('',#477,#485,#169,.T.);
#595=EDGE_CURVE('',#486,#487,#170,.T.);
#596=EDGE_CURVE('',#486,#488,#171,.T.);
#597=EDGE_CURVE('',#488,#489,#172,.T.);
#598=EDGE_CURVE('',#487,#489,#173,.T.);
#599=EDGE_CURVE('',#478,#490,#174,.T.);
#600=EDGE_CURVE('',#490,#491,#175,.T.);
#601=EDGE_CURVE('',#491,#492,#176,.T.);
#602=EDGE_CURVE('',#492,#479,#177,.T.);
#603=EDGE_CURVE('',#491,#493,#178,.T.);
#604=EDGE_CURVE('',#493,#494,#179,.T.);
#605=EDGE_CURVE('',#492,#494,#180,.T.);
#606=EDGE_CURVE('',#495,#496,#181,.T.);
#607=EDGE_CURVE('',#497,#495,#182,.T.);
#608=EDGE_CURVE('',#498,#497,#183,.T.);
#609=EDGE_CURVE('',#498,#496,#184,.T.);
#610=EDGE_CURVE('',#499,#484,#185,.T.);
#611=EDGE_CURVE('',#485,#499,#186,.T.);
#612=EDGE_CURVE('',#500,#482,#187,.T.);
#613=EDGE_CURVE('',#500,#483,#188,.T.);
#614=EDGE_CURVE('',#499,#500,#189,.T.);
#615=EDGE_CURVE('',#493,#481,#190,.T.);
#616=EDGE_CURVE('',#494,#480,#191,.T.);
#617=EDGE_CURVE('',#489,#475,#192,.T.);
#618=EDGE_CURVE('',#488,#501,#193,.T.);
#619=EDGE_CURVE('',#501,#502,#194,.T.);
#620=EDGE_CURVE('',#490,#502,#195,.T.);
#621=EDGE_CURVE('',#501,#498,#196,.T.);
#622=EDGE_CURVE('',#502,#497,#197,.T.);
#623=EDGE_CURVE('',#503,#469,#198,.T.);
#624=EDGE_CURVE('',#503,#504,#199,.T.);
#625=EDGE_CURVE('',#504,#487,#200,.T.);
#626=EDGE_CURVE('',#481,#505,#201,.T.);
#627=EDGE_CURVE('',#505,#506,#202,.T.);
#628=EDGE_CURVE('',#506,#507,#203,.T.);
#629=EDGE_CURVE('',#507,#473,#204,.T.);
#630=EDGE_CURVE('',#508,#508,#21,.T.);
#631=EDGE_CURVE('',#496,#509,#205,.T.);
#632=EDGE_CURVE('',#509,#505,#206,.T.);
#633=EDGE_CURVE('',#495,#491,#207,.T.);
#634=EDGE_CURVE('',#472,#510,#208,.T.);
#635=EDGE_CURVE('',#510,#503,#209,.T.);
#636=EDGE_CURVE('',#474,#511,#210,.T.);
#637=EDGE_CURVE('',#511,#507,#211,.T.);
#638=EDGE_CURVE('',#511,#512,#212,.T.);
#639=EDGE_CURVE('',#512,#506,#213,.T.);
#640=EDGE_CURVE('',#512,#509,#214,.T.);
#641=EDGE_CURVE('',#513,#510,#215,.T.);
#642=EDGE_CURVE('',#513,#504,#216,.T.);
#643=EDGE_CURVE('',#486,#513,#217,.T.);
#644=EDGE_CURVE('',#514,#514,#22,.T.);
#645=EDGE_CURVE('',#514,#508,#218,.T.);
#646=EDGE_CURVE('',#515,#516,#219,.T.);
#647=EDGE_CURVE('',#517,#516,#220,.T.);
#648=EDGE_CURVE('',#517,#518,#221,.T.);
#649=EDGE_CURVE('',#518,#515,#222,.T.);
#650=EDGE_CURVE('',#519,#520,#223,.T.);
#651=EDGE_CURVE('',#521,#519,#224,.T.);
#652=EDGE_CURVE('',#522,#521,#225,.T.);
#653=EDGE_CURVE('',#523,#522,#226,.T.);
#654=EDGE_CURVE('',#524,#523,#227,.T.);
#655=EDGE_CURVE('',#524,#525,#228,.T.);
#656=EDGE_CURVE('',#520,#525,#229,.T.);
#657=EDGE_CURVE('',#526,#527,#230,.T.);
#658=EDGE_CURVE('',#527,#516,#231,.T.);
#659=EDGE_CURVE('',#528,#515,#232,.T.);
#660=EDGE_CURVE('',#529,#528,#233,.T.);
#661=EDGE_CURVE('',#529,#525,#234,.T.);
#662=EDGE_CURVE('',#524,#530,#235,.T.);
#663=EDGE_CURVE('',#530,#531,#236,.T.);
#664=EDGE_CURVE('',#531,#532,#237,.T.);
#665=EDGE_CURVE('',#532,#533,#238,.T.);
#666=EDGE_CURVE('',#533,#526,#239,.T.);
#667=EDGE_CURVE('',#534,#534,#23,.T.);
#668=EDGE_CURVE('',#535,#523,#240,.T.);
#669=EDGE_CURVE('',#535,#530,#241,.T.);
#670=EDGE_CURVE('',#536,#522,#242,.T.);
#671=EDGE_CURVE('',#537,#536,#243,.T.);
#672=EDGE_CURVE('',#537,#538,#244,.T.);
#673=EDGE_CURVE('',#538,#539,#245,.T.);
#674=EDGE_CURVE('',#539,#540,#246,.T.);
#675=EDGE_CURVE('',#540,#541,#247,.T.);
#676=EDGE_CURVE('',#541,#542,#248,.T.);
#677=EDGE_CURVE('',#542,#543,#249,.T.);
#678=EDGE_CURVE('',#543,#544,#250,.T.);
#679=EDGE_CURVE('',#544,#535,#251,.T.);
#680=EDGE_CURVE('',#545,#527,#252,.T.);
#681=EDGE_CURVE('',#545,#517,#253,.T.);
#682=EDGE_CURVE('',#521,#546,#254,.T.);
#683=EDGE_CURVE('',#546,#536,#255,.T.);
#684=EDGE_CURVE('',#547,#546,#256,.T.);
#685=EDGE_CURVE('',#548,#547,#257,.T.);
#686=EDGE_CURVE('',#548,#537,#258,.T.);
#687=EDGE_CURVE('',#531,#544,#259,.T.);
#688=EDGE_CURVE('',#549,#548,#260,.T.);
#689=EDGE_CURVE('',#549,#538,#261,.T.);
#690=EDGE_CURVE('',#540,#550,#262,.T.);
#691=EDGE_CURVE('',#551,#539,#263,.T.);
#692=EDGE_CURVE('',#550,#551,#264,.T.);
#693=EDGE_CURVE('',#552,#528,#265,.T.);
#694=EDGE_CURVE('',#552,#553,#266,.T.);
#695=EDGE_CURVE('',#529,#553,#267,.T.);
#696=EDGE_CURVE('',#554,#550,#268,.T.);
#697=EDGE_CURVE('',#555,#554,#269,.T.);
#698=EDGE_CURVE('',#555,#556,#270,.T.);
#699=EDGE_CURVE('',#556,#541,#271,.T.);
#700=EDGE_CURVE('',#547,#557,#272,.T.);
#701=EDGE_CURVE('',#557,#558,#273,.T.);
#702=EDGE_CURVE('',#558,#559,#274,.T.);
#703=EDGE_CURVE('',#559,#560,#275,.T.);
#704=EDGE_CURVE('',#560,#561,#276,.T.);
#705=EDGE_CURVE('',#561,#562,#277,.T.);
#706=EDGE_CURVE('',#562,#563,#278,.T.);
#707=EDGE_CURVE('',#563,#564,#279,.T.);
#708=EDGE_CURVE('',#564,#565,#280,.T.);
#709=EDGE_CURVE('',#565,#549,#281,.T.);
#710=EDGE_CURVE('',#566,#557,#282,.T.);
#711=EDGE_CURVE('',#558,#566,#283,.T.);
#712=EDGE_CURVE('',#560,#567,#284,.T.);
#713=EDGE_CURVE('',#559,#567,#285,.T.);
#714=EDGE_CURVE('',#567,#566,#286,.T.);
#715=EDGE_CURVE('',#525,#561,#287,.T.);
#716=EDGE_CURVE('',#561,#568,#288,.T.);
#717=EDGE_CURVE('',#520,#568,#289,.T.);
#718=EDGE_CURVE('',#568,#519,#290,.T.);
#719=EDGE_CURVE('',#518,#552,#291,.T.);
#720=EDGE_CURVE('',#551,#554,#292,.T.);
#721=EDGE_CURVE('',#553,#569,#293,.T.);
#722=EDGE_CURVE('',#569,#562,#294,.T.);
#723=EDGE_CURVE('',#532,#543,#295,.T.);
#724=EDGE_CURVE('',#533,#542,#296,.T.);
#725=EDGE_CURVE('',#556,#570,#297,.T.);
#726=EDGE_CURVE('',#570,#533,#298,.T.);
#727=EDGE_CURVE('',#571,#565,#299,.T.);
#728=EDGE_CURVE('',#555,#571,#300,.T.);
#729=EDGE_CURVE('',#571,#572,#301,.T.);
#730=EDGE_CURVE('',#572,#564,#302,.T.);
#731=EDGE_CURVE('',#572,#573,#303,.T.);
#732=EDGE_CURVE('',#573,#563,#304,.T.);
#733=EDGE_CURVE('',#573,#569,#305,.T.);
#734=EDGE_CURVE('',#574,#570,#306,.T.);
#735=EDGE_CURVE('',#574,#526,#307,.T.);
#736=EDGE_CURVE('',#545,#574,#308,.T.);
#737=EDGE_CURVE('',#575,#575,#24,.T.);
#738=EDGE_CURVE('',#575,#534,#309,.T.);
#739=ORIENTED_EDGE('',*,*,#576,.T.);
#740=ORIENTED_EDGE('',*,*,#577,.F.);
#741=ORIENTED_EDGE('',*,*,#578,.T.);
#742=ORIENTED_EDGE('',*,*,#579,.T.);
#743=ORIENTED_EDGE('',*,*,#580,.F.);
#744=ORIENTED_EDGE('',*,*,#581,.F.);
#745=ORIENTED_EDGE('',*,*,#582,.F.);
#746=ORIENTED_EDGE('',*,*,#577,.T.);
#747=ORIENTED_EDGE('',*,*,#583,.T.);
#748=ORIENTED_EDGE('',*,*,#584,.F.);
#749=ORIENTED_EDGE('',*,*,#585,.F.);
#750=ORIENTED_EDGE('',*,*,#586,.T.);
#751=ORIENTED_EDGE('',*,*,#587,.F.);
#752=ORIENTED_EDGE('',*,*,#588,.F.);
#753=ORIENTED_EDGE('',*,*,#589,.F.);
#754=ORIENTED_EDGE('',*,*,#590,.F.);
#755=ORIENTED_EDGE('',*,*,#591,.T.);
#756=ORIENTED_EDGE('',*,*,#592,.T.);
#757=ORIENTED_EDGE('',*,*,#593,.T.);
#758=ORIENTED_EDGE('',*,*,#594,.F.);
#759=ORIENTED_EDGE('',*,*,#584,.T.);
#760=ORIENTED_EDGE('',*,*,#595,.F.);
#761=ORIENTED_EDGE('',*,*,#596,.T.);
#762=ORIENTED_EDGE('',*,*,#597,.T.);
#763=ORIENTED_EDGE('',*,*,#598,.F.);
#764=ORIENTED_EDGE('',*,*,#599,.T.);
#765=ORIENTED_EDGE('',*,*,#600,.T.);
#766=ORIENTED_EDGE('',*,*,#601,.T.);
#767=ORIENTED_EDGE('',*,*,#602,.T.);
#768=ORIENTED_EDGE('',*,*,#587,.T.);
#769=ORIENTED_EDGE('',*,*,#601,.F.);
#770=ORIENTED_EDGE('',*,*,#603,.T.);
#771=ORIENTED_EDGE('',*,*,#604,.T.);
#772=ORIENTED_EDGE('',*,*,#605,.F.);
#773=ORIENTED_EDGE('',*,*,#606,.F.);
#774=ORIENTED_EDGE('',*,*,#607,.F.);
#775=ORIENTED_EDGE('',*,*,#608,.F.);
#776=ORIENTED_EDGE('',*,*,#609,.T.);
#777=ORIENTED_EDGE('',*,*,#593,.F.);
#778=ORIENTED_EDGE('',*,*,#610,.F.);
#779=ORIENTED_EDGE('',*,*,#611,.F.);
#780=ORIENTED_EDGE('',*,*,#591,.F.);
#781=ORIENTED_EDGE('',*,*,#612,.F.);
#782=ORIENTED_EDGE('',*,*,#613,.T.);
#783=ORIENTED_EDGE('',*,*,#592,.F.);
#784=ORIENTED_EDGE('',*,*,#613,.F.);
#785=ORIENTED_EDGE('',*,*,#614,.F.);
#786=ORIENTED_EDGE('',*,*,#610,.T.);
#787=ORIENTED_EDGE('',*,*,#615,.T.);
#788=ORIENTED_EDGE('',*,*,#589,.T.);
#789=ORIENTED_EDGE('',*,*,#616,.F.);
#790=ORIENTED_EDGE('',*,*,#604,.F.);
#791=ORIENTED_EDGE('',*,*,#602,.F.);
#792=ORIENTED_EDGE('',*,*,#605,.T.);
#793=ORIENTED_EDGE('',*,*,#616,.T.);
#794=ORIENTED_EDGE('',*,*,#588,.T.);
#795=ORIENTED_EDGE('',*,*,#617,.F.);
#796=ORIENTED_EDGE('',*,*,#597,.F.);
#797=ORIENTED_EDGE('',*,*,#618,.T.);
#798=ORIENTED_EDGE('',*,*,#619,.T.);
#799=ORIENTED_EDGE('',*,*,#620,.F.);
#800=ORIENTED_EDGE('',*,*,#599,.F.);
#801=ORIENTED_EDGE('',*,*,#586,.F.);
#802=ORIENTED_EDGE('',*,*,#583,.F.);
#803=ORIENTED_EDGE('',*,*,#621,.T.);
#804=ORIENTED_EDGE('',*,*,#608,.T.);
#805=ORIENTED_EDGE('',*,*,#622,.F.);
#806=ORIENTED_EDGE('',*,*,#619,.F.);
#807=ORIENTED_EDGE('',*,*,#580,.T.);
#808=ORIENTED_EDGE('',*,*,#576,.F.);
#809=ORIENTED_EDGE('',*,*,#623,.F.);
#810=ORIENTED_EDGE('',*,*,#624,.T.);
#811=ORIENTED_EDGE('',*,*,#625,.T.);
#812=ORIENTED_EDGE('',*,*,#598,.T.);
#813=ORIENTED_EDGE('',*,*,#617,.T.);
#814=ORIENTED_EDGE('',*,*,#585,.T.);
#815=ORIENTED_EDGE('',*,*,#594,.T.);
#816=ORIENTED_EDGE('',*,*,#611,.T.);
#817=ORIENTED_EDGE('',*,*,#614,.T.);
#818=ORIENTED_EDGE('',*,*,#612,.T.);
#819=ORIENTED_EDGE('',*,*,#590,.T.);
#820=ORIENTED_EDGE('',*,*,#626,.T.);
#821=ORIENTED_EDGE('',*,*,#627,.T.);
#822=ORIENTED_EDGE('',*,*,#628,.T.);
#823=ORIENTED_EDGE('',*,*,#629,.T.);
#824=ORIENTED_EDGE('',*,*,#630,.T.);
#825=ORIENTED_EDGE('',*,*,#606,.T.);
#826=ORIENTED_EDGE('',*,*,#631,.T.);
#827=ORIENTED_EDGE('',*,*,#632,.T.);
#828=ORIENTED_EDGE('',*,*,#626,.F.);
#829=ORIENTED_EDGE('',*,*,#615,.F.);
#830=ORIENTED_EDGE('',*,*,#603,.F.);
#831=ORIENTED_EDGE('',*,*,#633,.F.);
#832=ORIENTED_EDGE('',*,*,#623,.T.);
#833=ORIENTED_EDGE('',*,*,#579,.F.);
#834=ORIENTED_EDGE('',*,*,#634,.T.);
#835=ORIENTED_EDGE('',*,*,#635,.T.);
#836=ORIENTED_EDGE('',*,*,#620,.T.);
#837=ORIENTED_EDGE('',*,*,#622,.T.);
#838=ORIENTED_EDGE('',*,*,#607,.T.);
#839=ORIENTED_EDGE('',*,*,#633,.T.);
#840=ORIENTED_EDGE('',*,*,#600,.F.);
#841=ORIENTED_EDGE('',*,*,#636,.F.);
#842=ORIENTED_EDGE('',*,*,#581,.T.);
#843=ORIENTED_EDGE('',*,*,#629,.F.);
#844=ORIENTED_EDGE('',*,*,#637,.F.);
#845=ORIENTED_EDGE('',*,*,#638,.F.);
#846=ORIENTED_EDGE('',*,*,#637,.T.);
#847=ORIENTED_EDGE('',*,*,#628,.F.);
#848=ORIENTED_EDGE('',*,*,#639,.F.);
#849=ORIENTED_EDGE('',*,*,#640,.F.);
#850=ORIENTED_EDGE('',*,*,#639,.T.);
#851=ORIENTED_EDGE('',*,*,#627,.F.);
#852=ORIENTED_EDGE('',*,*,#632,.F.);
#853=ORIENTED_EDGE('',*,*,#641,.F.);
#854=ORIENTED_EDGE('',*,*,#642,.T.);
#855=ORIENTED_EDGE('',*,*,#624,.F.);
#856=ORIENTED_EDGE('',*,*,#635,.F.);
#857=ORIENTED_EDGE('',*,*,#643,.T.);
#858=ORIENTED_EDGE('',*,*,#641,.T.);
#859=ORIENTED_EDGE('',*,*,#634,.F.);
#860=ORIENTED_EDGE('',*,*,#578,.F.);
#861=ORIENTED_EDGE('',*,*,#582,.T.);
#862=ORIENTED_EDGE('',*,*,#636,.T.);
#863=ORIENTED_EDGE('',*,*,#638,.T.);
#864=ORIENTED_EDGE('',*,*,#640,.T.);
#865=ORIENTED_EDGE('',*,*,#631,.F.);
#866=ORIENTED_EDGE('',*,*,#609,.F.);
#867=ORIENTED_EDGE('',*,*,#621,.F.);
#868=ORIENTED_EDGE('',*,*,#618,.F.);
#869=ORIENTED_EDGE('',*,*,#596,.F.);
#870=ORIENTED_EDGE('',*,*,#644,.F.);
#871=ORIENTED_EDGE('',*,*,#645,.T.);
#872=ORIENTED_EDGE('',*,*,#630,.F.);
#873=ORIENTED_EDGE('',*,*,#645,.F.);
#874=ORIENTED_EDGE('',*,*,#644,.T.);
#875=ORIENTED_EDGE('',*,*,#595,.T.);
#876=ORIENTED_EDGE('',*,*,#625,.F.);
#877=ORIENTED_EDGE('',*,*,#642,.F.);
#878=ORIENTED_EDGE('',*,*,#643,.F.);
#879=ORIENTED_EDGE('',*,*,#646,.T.);
#880=ORIENTED_EDGE('',*,*,#647,.F.);
#881=ORIENTED_EDGE('',*,*,#648,.T.);
#882=ORIENTED_EDGE('',*,*,#649,.T.);
#883=ORIENTED_EDGE('',*,*,#650,.F.);
#884=ORIENTED_EDGE('',*,*,#651,.F.);
#885=ORIENTED_EDGE('',*,*,#652,.F.);
#886=ORIENTED_EDGE('',*,*,#653,.F.);
#887=ORIENTED_EDGE('',*,*,#654,.F.);
#888=ORIENTED_EDGE('',*,*,#655,.T.);
#889=ORIENTED_EDGE('',*,*,#656,.F.);
#890=ORIENTED_EDGE('',*,*,#657,.T.);
#891=ORIENTED_EDGE('',*,*,#658,.T.);
#892=ORIENTED_EDGE('',*,*,#646,.F.);
#893=ORIENTED_EDGE('',*,*,#659,.F.);
#894=ORIENTED_EDGE('',*,*,#660,.F.);
#895=ORIENTED_EDGE('',*,*,#661,.T.);
#896=ORIENTED_EDGE('',*,*,#655,.F.);
#897=ORIENTED_EDGE('',*,*,#662,.T.);
#898=ORIENTED_EDGE('',*,*,#663,.T.);
#899=ORIENTED_EDGE('',*,*,#664,.T.);
#900=ORIENTED_EDGE('',*,*,#665,.T.);
#901=ORIENTED_EDGE('',*,*,#666,.T.);
#902=ORIENTED_EDGE('',*,*,#667,.T.);
#903=ORIENTED_EDGE('',*,*,#654,.T.);
#904=ORIENTED_EDGE('',*,*,#668,.F.);
#905=ORIENTED_EDGE('',*,*,#669,.T.);
#906=ORIENTED_EDGE('',*,*,#662,.F.);
#907=ORIENTED_EDGE('',*,*,#653,.T.);
#908=ORIENTED_EDGE('',*,*,#670,.F.);
#909=ORIENTED_EDGE('',*,*,#671,.F.);
#910=ORIENTED_EDGE('',*,*,#672,.T.);
#911=ORIENTED_EDGE('',*,*,#673,.T.);
#912=ORIENTED_EDGE('',*,*,#674,.T.);
#913=ORIENTED_EDGE('',*,*,#675,.T.);
#914=ORIENTED_EDGE('',*,*,#676,.T.);
#915=ORIENTED_EDGE('',*,*,#677,.T.);
#916=ORIENTED_EDGE('',*,*,#678,.T.);
#917=ORIENTED_EDGE('',*,*,#679,.T.);
#918=ORIENTED_EDGE('',*,*,#668,.T.);
#919=ORIENTED_EDGE('',*,*,#680,.F.);
#920=ORIENTED_EDGE('',*,*,#681,.T.);
#921=ORIENTED_EDGE('',*,*,#647,.T.);
#922=ORIENTED_EDGE('',*,*,#658,.F.);
#923=ORIENTED_EDGE('',*,*,#652,.T.);
#924=ORIENTED_EDGE('',*,*,#682,.T.);
#925=ORIENTED_EDGE('',*,*,#683,.T.);
#926=ORIENTED_EDGE('',*,*,#670,.T.);
#927=ORIENTED_EDGE('',*,*,#683,.F.);
#928=ORIENTED_EDGE('',*,*,#684,.F.);
#929=ORIENTED_EDGE('',*,*,#685,.F.);
#930=ORIENTED_EDGE('',*,*,#686,.T.);
#931=ORIENTED_EDGE('',*,*,#671,.T.);
#932=ORIENTED_EDGE('',*,*,#687,.F.);
#933=ORIENTED_EDGE('',*,*,#663,.F.);
#934=ORIENTED_EDGE('',*,*,#669,.F.);
#935=ORIENTED_EDGE('',*,*,#679,.F.);
#936=ORIENTED_EDGE('',*,*,#686,.F.);
#937=ORIENTED_EDGE('',*,*,#688,.F.);
#938=ORIENTED_EDGE('',*,*,#689,.T.);
#939=ORIENTED_EDGE('',*,*,#672,.F.);
#940=ORIENTED_EDGE('',*,*,#690,.F.);
#941=ORIENTED_EDGE('',*,*,#674,.F.);
#942=ORIENTED_EDGE('',*,*,#691,.F.);
#943=ORIENTED_EDGE('',*,*,#692,.F.);
#944=ORIENTED_EDGE('',*,*,#660,.T.);
#945=ORIENTED_EDGE('',*,*,#693,.F.);
#946=ORIENTED_EDGE('',*,*,#694,.T.);
#947=ORIENTED_EDGE('',*,*,#695,.F.);
#948=ORIENTED_EDGE('',*,*,#690,.T.);
#949=ORIENTED_EDGE('',*,*,#696,.F.);
#950=ORIENTED_EDGE('',*,*,#697,.F.);
#951=ORIENTED_EDGE('',*,*,#698,.T.);
#952=ORIENTED_EDGE('',*,*,#699,.T.);
#953=ORIENTED_EDGE('',*,*,#675,.F.);
#954=ORIENTED_EDGE('',*,*,#688,.T.);
#955=ORIENTED_EDGE('',*,*,#685,.T.);
#956=ORIENTED_EDGE('',*,*,#700,.T.);
#957=ORIENTED_EDGE('',*,*,#701,.T.);
#958=ORIENTED_EDGE('',*,*,#702,.T.);
#959=ORIENTED_EDGE('',*,*,#703,.T.);
#960=ORIENTED_EDGE('',*,*,#704,.T.);
#961=ORIENTED_EDGE('',*,*,#705,.T.);
#962=ORIENTED_EDGE('',*,*,#706,.T.);
#963=ORIENTED_EDGE('',*,*,#707,.T.);
#964=ORIENTED_EDGE('',*,*,#708,.T.);
#965=ORIENTED_EDGE('',*,*,#709,.T.);
#966=ORIENTED_EDGE('',*,*,#710,.F.);
#967=ORIENTED_EDGE('',*,*,#711,.F.);
#968=ORIENTED_EDGE('',*,*,#701,.F.);
#969=ORIENTED_EDGE('',*,*,#712,.F.);
#970=ORIENTED_EDGE('',*,*,#703,.F.);
#971=ORIENTED_EDGE('',*,*,#713,.T.);
#972=ORIENTED_EDGE('',*,*,#714,.F.);
#973=ORIENTED_EDGE('',*,*,#713,.F.);
#974=ORIENTED_EDGE('',*,*,#702,.F.);
#975=ORIENTED_EDGE('',*,*,#711,.T.);
#976=ORIENTED_EDGE('',*,*,#656,.T.);
#977=ORIENTED_EDGE('',*,*,#715,.T.);
#978=ORIENTED_EDGE('',*,*,#716,.T.);
#979=ORIENTED_EDGE('',*,*,#717,.F.);
#980=ORIENTED_EDGE('',*,*,#651,.T.);
#981=ORIENTED_EDGE('',*,*,#718,.F.);
#982=ORIENTED_EDGE('',*,*,#716,.F.);
#983=ORIENTED_EDGE('',*,*,#704,.F.);
#984=ORIENTED_EDGE('',*,*,#712,.T.);
#985=ORIENTED_EDGE('',*,*,#714,.T.);
#986=ORIENTED_EDGE('',*,*,#710,.T.);
#987=ORIENTED_EDGE('',*,*,#700,.F.);
#988=ORIENTED_EDGE('',*,*,#684,.T.);
#989=ORIENTED_EDGE('',*,*,#682,.F.);
#990=ORIENTED_EDGE('',*,*,#650,.T.);
#991=ORIENTED_EDGE('',*,*,#717,.T.);
#992=ORIENTED_EDGE('',*,*,#718,.T.);
#993=ORIENTED_EDGE('',*,*,#659,.T.);
#994=ORIENTED_EDGE('',*,*,#649,.F.);
#995=ORIENTED_EDGE('',*,*,#719,.T.);
#996=ORIENTED_EDGE('',*,*,#693,.T.);
#997=ORIENTED_EDGE('',*,*,#692,.T.);
#998=ORIENTED_EDGE('',*,*,#720,.T.);
#999=ORIENTED_EDGE('',*,*,#696,.T.);
#1000=ORIENTED_EDGE('',*,*,#661,.F.);
#1001=ORIENTED_EDGE('',*,*,#695,.T.);
#1002=ORIENTED_EDGE('',*,*,#721,.T.);
#1003=ORIENTED_EDGE('',*,*,#722,.T.);
#1004=ORIENTED_EDGE('',*,*,#705,.F.);
#1005=ORIENTED_EDGE('',*,*,#715,.F.);
#1006=ORIENTED_EDGE('',*,*,#687,.T.);
#1007=ORIENTED_EDGE('',*,*,#678,.F.);
#1008=ORIENTED_EDGE('',*,*,#723,.F.);
#1009=ORIENTED_EDGE('',*,*,#664,.F.);
#1010=ORIENTED_EDGE('',*,*,#665,.F.);
#1011=ORIENTED_EDGE('',*,*,#723,.T.);
#1012=ORIENTED_EDGE('',*,*,#677,.F.);
#1013=ORIENTED_EDGE('',*,*,#724,.F.);
#1014=ORIENTED_EDGE('',*,*,#725,.T.);
#1015=ORIENTED_EDGE('',*,*,#726,.T.);
#1016=ORIENTED_EDGE('',*,*,#724,.T.);
#1017=ORIENTED_EDGE('',*,*,#676,.F.);
#1018=ORIENTED_EDGE('',*,*,#699,.F.);
#1019=ORIENTED_EDGE('',*,*,#697,.T.);
#1020=ORIENTED_EDGE('',*,*,#720,.F.);
#1021=ORIENTED_EDGE('',*,*,#691,.T.);
#1022=ORIENTED_EDGE('',*,*,#673,.F.);
#1023=ORIENTED_EDGE('',*,*,#689,.F.);
#1024=ORIENTED_EDGE('',*,*,#709,.F.);
#1025=ORIENTED_EDGE('',*,*,#727,.F.);
#1026=ORIENTED_EDGE('',*,*,#728,.F.);
#1027=ORIENTED_EDGE('',*,*,#729,.F.);
#1028=ORIENTED_EDGE('',*,*,#727,.T.);
#1029=ORIENTED_EDGE('',*,*,#708,.F.);
#1030=ORIENTED_EDGE('',*,*,#730,.F.);
#1031=ORIENTED_EDGE('',*,*,#731,.F.);
#1032=ORIENTED_EDGE('',*,*,#730,.T.);
#1033=ORIENTED_EDGE('',*,*,#707,.F.);
#1034=ORIENTED_EDGE('',*,*,#732,.F.);
#1035=ORIENTED_EDGE('',*,*,#733,.F.);
#1036=ORIENTED_EDGE('',*,*,#732,.T.);
#1037=ORIENTED_EDGE('',*,*,#706,.F.);
#1038=ORIENTED_EDGE('',*,*,#722,.F.);
#1039=ORIENTED_EDGE('',*,*,#734,.F.);
#1040=ORIENTED_EDGE('',*,*,#735,.T.);
#1041=ORIENTED_EDGE('',*,*,#666,.F.);
#1042=ORIENTED_EDGE('',*,*,#726,.F.);
#1043=ORIENTED_EDGE('',*,*,#736,.T.);
#1044=ORIENTED_EDGE('',*,*,#734,.T.);
#1045=ORIENTED_EDGE('',*,*,#725,.F.);
#1046=ORIENTED_EDGE('',*,*,#698,.F.);
#1047=ORIENTED_EDGE('',*,*,#728,.T.);
#1048=ORIENTED_EDGE('',*,*,#729,.T.);
#1049=ORIENTED_EDGE('',*,*,#731,.T.);
#1050=ORIENTED_EDGE('',*,*,#733,.T.);
#1051=ORIENTED_EDGE('',*,*,#721,.F.);
#1052=ORIENTED_EDGE('',*,*,#694,.F.);
#1053=ORIENTED_EDGE('',*,*,#719,.F.);
#1054=ORIENTED_EDGE('',*,*,#648,.F.);
#1055=ORIENTED_EDGE('',*,*,#681,.F.);
#1056=ORIENTED_EDGE('',*,*,#737,.F.);
#1057=ORIENTED_EDGE('',*,*,#738,.T.);
#1058=ORIENTED_EDGE('',*,*,#667,.F.);
#1059=ORIENTED_EDGE('',*,*,#738,.F.);
#1060=ORIENTED_EDGE('',*,*,#737,.T.);
#1061=ORIENTED_EDGE('',*,*,#680,.T.);
#1062=ORIENTED_EDGE('',*,*,#657,.F.);
#1063=ORIENTED_EDGE('',*,*,#735,.F.);
#1064=ORIENTED_EDGE('',*,*,#736,.F.);
#1065=PLANE('',#1202);
#1066=PLANE('',#1203);
#1067=PLANE('',#1204);
#1068=PLANE('',#1205);
#1069=PLANE('',#1206);
#1070=PLANE('',#1207);
#1071=PLANE('',#1208);
#1072=PLANE('',#1209);
#1073=PLANE('',#1210);
#1074=PLANE('',#1211);
#1075=PLANE('',#1212);
#1076=PLANE('',#1213);
#1077=PLANE('',#1214);
#1078=PLANE('',#1215);
#1079=PLANE('',#1216);
#1080=PLANE('',#1217);
#1081=PLANE('',#1219);
#1082=PLANE('',#1220);
#1083=PLANE('',#1221);
#1084=PLANE('',#1222);
#1085=PLANE('',#1223);
#1086=PLANE('',#1224);
#1087=PLANE('',#1225);
#1088=PLANE('',#1226);
#1089=PLANE('',#1229);
#1090=PLANE('',#1230);
#1091=PLANE('',#1231);
#1092=PLANE('',#1232);
#1093=PLANE('',#1233);
#1094=PLANE('',#1235);
#1095=PLANE('',#1236);
#1096=PLANE('',#1237);
#1097=PLANE('',#1238);
#1098=PLANE('',#1239);
#1099=PLANE('',#1240);
#1100=PLANE('',#1241);
#1101=PLANE('',#1242);
#1102=PLANE('',#1243);
#1103=PLANE('',#1244);
#1104=PLANE('',#1245);
#1105=PLANE('',#1246);
#1106=PLANE('',#1247);
#1107=PLANE('',#1248);
#1108=PLANE('',#1249);
#1109=PLANE('',#1250);
#1110=PLANE('',#1251);
#1111=PLANE('',#1252);
#1112=PLANE('',#1253);
#1113=PLANE('',#1254);
#1114=PLANE('',#1255);
#1115=PLANE('',#1256);
#1116=PLANE('',#1257);
#1117=PLANE('',#1258);
#1118=PLANE('',#1259);
#1119=PLANE('',#1260);
#1120=PLANE('',#1261);
#1121=PLANE('',#1262);
#1122=PLANE('',#1263);
#1123=PLANE('',#1266);
#1124=PLANE('',#1267);
#1125=ADVANCED_FACE('',(#25),#1065,.T.);
#1126=ADVANCED_FACE('',(#26),#1066,.T.);
#1127=ADVANCED_FACE('',(#27),#1067,.F.);
#1128=ADVANCED_FACE('',(#28),#1068,.T.);
#1129=ADVANCED_FACE('',(#29),#1069,.T.);
#1130=ADVANCED_FACE('',(#30),#1070,.T.);
#1131=ADVANCED_FACE('',(#31),#1071,.T.);
#1132=ADVANCED_FACE('',(#32),#1072,.T.);
#1133=ADVANCED_FACE('',(#33),#1073,.F.);
#1134=ADVANCED_FACE('',(#34),#1074,.F.);
#1135=ADVANCED_FACE('',(#35),#1075,.F.);
#1136=ADVANCED_FACE('',(#36),#1076,.T.);
#1137=ADVANCED_FACE('',(#37),#1077,.T.);
#1138=ADVANCED_FACE('',(#38),#1078,.T.);
#1139=ADVANCED_FACE('',(#39),#1079,.T.);
#1140=ADVANCED_FACE('',(#40,#19),#1080,.T.);
#1141=ADVANCED_FACE('',(#41),#1081,.T.);
#1142=ADVANCED_FACE('',(#42),#1082,.T.);
#1143=ADVANCED_FACE('',(#43),#1083,.T.);
#1144=ADVANCED_FACE('',(#44),#1084,.T.);
#1145=ADVANCED_FACE('',(#45),#1085,.T.);
#1146=ADVANCED_FACE('',(#46),#1086,.T.);
#1147=ADVANCED_FACE('',(#47),#1087,.F.);
#1148=ADVANCED_FACE('',(#48),#1088,.F.);
#1149=ADVANCED_FACE('',(#49),#17,.T.);
#1150=ADVANCED_FACE('',(#50),#1089,.T.);
#1151=ADVANCED_FACE('',(#51),#1090,.T.);
#1152=ADVANCED_FACE('',(#52),#1091,.T.);
#1153=ADVANCED_FACE('',(#53),#1092,.F.);
#1154=ADVANCED_FACE('',(#54,#20),#1093,.T.);
#1155=ADVANCED_FACE('',(#55),#1094,.T.);
#1156=ADVANCED_FACE('',(#56),#1095,.T.);
#1157=ADVANCED_FACE('',(#57),#1096,.T.);
#1158=ADVANCED_FACE('',(#58),#1097,.T.);
#1159=ADVANCED_FACE('',(#59),#1098,.F.);
#1160=ADVANCED_FACE('',(#60),#1099,.T.);
#1161=ADVANCED_FACE('',(#61),#1100,.T.);
#1162=ADVANCED_FACE('',(#62),#1101,.T.);
#1163=ADVANCED_FACE('',(#63),#1102,.T.);
#1164=ADVANCED_FACE('',(#64),#1103,.T.);
#1165=ADVANCED_FACE('',(#65),#1104,.T.);
#1166=ADVANCED_FACE('',(#66),#1105,.F.);
#1167=ADVANCED_FACE('',(#67),#1106,.F.);
#1168=ADVANCED_FACE('',(#68),#1107,.F.);
#1169=ADVANCED_FACE('',(#69),#1108,.T.);
#1170=ADVANCED_FACE('',(#70),#1109,.T.);
#1171=ADVANCED_FACE('',(#71),#1110,.T.);
#1172=ADVANCED_FACE('',(#72),#1111,.T.);
#1173=ADVANCED_FACE('',(#73),#1112,.T.);
#1174=ADVANCED_FACE('',(#74),#1113,.T.);
#1175=ADVANCED_FACE('',(#75),#1114,.T.);
#1176=ADVANCED_FACE('',(#76),#1115,.T.);
#1177=ADVANCED_FACE('',(#77),#1116,.T.);
#1178=ADVANCED_FACE('',(#78),#1117,.T.);
#1179=ADVANCED_FACE('',(#79),#1118,.T.);
#1180=ADVANCED_FACE('',(#80),#1119,.T.);
#1181=ADVANCED_FACE('',(#81),#1120,.T.);
#1182=ADVANCED_FACE('',(#82),#1121,.F.);
#1183=ADVANCED_FACE('',(#83),#1122,.F.);
#1184=ADVANCED_FACE('',(#84),#18,.T.);
#1185=ADVANCED_FACE('',(#85),#1123,.T.);
#1186=ADVANCED_FACE('',(#86),#1124,.T.);
#1187=CLOSED_SHELL('',(#1125,#1126,#1127,#1128,#1129,#1130,#1131,#1132,
#1133,#1134,#1135,#1136,#1137,#1138,#1139,#1140,#1141,#1142,#1143,#1144,
#1145,#1146,#1147,#1148,#1149,#1150,#1151));
#1188=CLOSED_SHELL('',(#1152,#1153,#1154,#1155,#1156,#1157,#1158,#1159,
#1160,#1161,#1162,#1163,#1164,#1165,#1166,#1167,#1168,#1169,#1170,#1171,
#1172,#1173,#1174,#1175,#1176,#1177,#1178,#1179,#1180,#1181,#1182,#1183,
#1184,#1185,#1186));
#1189=DERIVED_UNIT_ELEMENT(#1191,1.);
#1190=DERIVED_UNIT_ELEMENT(#1901,-3.);
#1191=(
MASS_UNIT()
NAMED_UNIT(*)
SI_UNIT(.KILO.,.GRAM.)
);
#1192=DERIVED_UNIT((#1189,#1190));
#1193=MEASURE_REPRESENTATION_ITEM('density measure',
POSITIVE_RATIO_MEASURE(7850.),#1192);
#1194=PROPERTY_DEFINITION_REPRESENTATION(#1199,#1196);
#1195=PROPERTY_DEFINITION_REPRESENTATION(#1200,#1197);
#1196=REPRESENTATION('material name',(#1198),#1896);
#1197=REPRESENTATION('density',(#1193),#1896);
#1198=DESCRIPTIVE_REPRESENTATION_ITEM('Steel','Steel');
#1199=PROPERTY_DEFINITION('material property','material name',#1909);
#1200=PROPERTY_DEFINITION('material property','density of part',#1909);
#1201=AXIS2_PLACEMENT_3D('',#1561,#1268,#1269);
#1202=AXIS2_PLACEMENT_3D('',#1562,#1270,#1271);
#1203=AXIS2_PLACEMENT_3D('',#1571,#1276,#1277);
#1204=AXIS2_PLACEMENT_3D('',#1577,#1281,#1282);
#1205=AXIS2_PLACEMENT_3D('',#1584,#1286,#1287);
#1206=AXIS2_PLACEMENT_3D('',#1602,#1297,#1298);
#1207=AXIS2_PLACEMENT_3D('',#1611,#1303,#1304);
#1208=AXIS2_PLACEMENT_3D('',#1619,#1309,#1310);
#1209=AXIS2_PLACEMENT_3D('',#1625,#1314,#1315);
#1210=AXIS2_PLACEMENT_3D('',#1634,#1320,#1321);
#1211=AXIS2_PLACEMENT_3D('',#1638,#1324,#1325);
#1212=AXIS2_PLACEMENT_3D('',#1642,#1328,#1329);
#1213=AXIS2_PLACEMENT_3D('',#1644,#1331,#1332);
#1214=AXIS2_PLACEMENT_3D('',#1647,#1335,#1336);
#1215=AXIS2_PLACEMENT_3D('',#1648,#1337,#1338);
#1216=AXIS2_PLACEMENT_3D('',#1655,#1343,#1344);
#1217=AXIS2_PLACEMENT_3D('',#1658,#1347,#1348);
#1218=AXIS2_PLACEMENT_3D('',#1672,#1356,#1357);
#1219=AXIS2_PLACEMENT_3D('',#1673,#1358,#1359);
#1220=AXIS2_PLACEMENT_3D('',#1678,#1363,#1364);
#1221=AXIS2_PLACEMENT_3D('',#1682,#1367,#1368);
#1222=AXIS2_PLACEMENT_3D('',#1683,#1369,#1370);
#1223=AXIS2_PLACEMENT_3D('',#1687,#1373,#1374);
#1224=AXIS2_PLACEMENT_3D('',#1691,#1377,#1378);
#1225=AXIS2_PLACEMENT_3D('',#1693,#1380,#1381);
#1226=AXIS2_PLACEMENT_3D('',#1697,#1384,#1385);
#1227=AXIS2_PLACEMENT_3D('',#1699,#1387,#1388);
#1228=AXIS2_PLACEMENT_3D('',#1701,#1389,#1390);
#1229=AXIS2_PLACEMENT_3D('',#1703,#1392,#1393);
#1230=AXIS2_PLACEMENT_3D('',#1704,#1394,#1395);
#1231=AXIS2_PLACEMENT_3D('',#1705,#1396,#1397);
#1232=AXIS2_PLACEMENT_3D('',#1714,#1402,#1403);
#1233=AXIS2_PLACEMENT_3D('',#1729,#1411,#1412);
#1234=AXIS2_PLACEMENT_3D('',#1749,#1423,#1424);
#1235=AXIS2_PLACEMENT_3D('',#1750,#1425,#1426);
#1236=AXIS2_PLACEMENT_3D('',#1754,#1429,#1430);
#1237=AXIS2_PLACEMENT_3D('',#1774,#1441,#1442);
#1238=AXIS2_PLACEMENT_3D('',#1778,#1445,#1446);
#1239=AXIS2_PLACEMENT_3D('',#1782,#1449,#1450);
#1240=AXIS2_PLACEMENT_3D('',#1788,#1454,#1455);
#1241=AXIS2_PLACEMENT_3D('',#1790,#1457,#1458);
#1242=AXIS2_PLACEMENT_3D('',#1794,#1461,#1462);
#1243=AXIS2_PLACEMENT_3D('',#1800,#1466,#1467);
#1244=AXIS2_PLACEMENT_3D('',#1806,#1471,#1472);
#1245=AXIS2_PLACEMENT_3D('',#1814,#1477,#1478);
#1246=AXIS2_PLACEMENT_3D('',#1834,#1489,#1490);
#1247=AXIS2_PLACEMENT_3D('',#1838,#1493,#1494);
#1248=AXIS2_PLACEMENT_3D('',#1842,#1497,#1498);
#1249=AXIS2_PLACEMENT_3D('',#1844,#1500,#1501);
#1250=AXIS2_PLACEMENT_3D('',#1849,#1505,#1506);
#1251=AXIS2_PLACEMENT_3D('',#1851,#1508,#1509);
#1252=AXIS2_PLACEMENT_3D('',#1852,#1510,#1511);
#1253=AXIS2_PLACEMENT_3D('',#1854,#1513,#1514);
#1254=AXIS2_PLACEMENT_3D('',#1856,#1516,#1517);
#1255=AXIS2_PLACEMENT_3D('',#1860,#1520,#1521);
#1256=AXIS2_PLACEMENT_3D('',#1862,#1523,#1524);
#1257=AXIS2_PLACEMENT_3D('',#1864,#1526,#1527);
#1258=AXIS2_PLACEMENT_3D('',#1868,#1530,#1531);
#1259=AXIS2_PLACEMENT_3D('',#1872,#1534,#1535);
#1260=AXIS2_PLACEMENT_3D('',#1876,#1538,#1539);
#1261=AXIS2_PLACEMENT_3D('',#1880,#1542,#1543);
#1262=AXIS2_PLACEMENT_3D('',#1882,#1545,#1546);
#1263=AXIS2_PLACEMENT_3D('',#1886,#1549,#1550);
#1264=AXIS2_PLACEMENT_3D('',#1888,#1552,#1553);
#1265=AXIS2_PLACEMENT_3D('',#1890,#1554,#1555);
#1266=AXIS2_PLACEMENT_3D('',#1892,#1557,#1558);
#1267=AXIS2_PLACEMENT_3D('',#1893,#1559,#1560);
#1268=DIRECTION('axis',(0.,0.,1.));
#1269=DIRECTION('refdir',(1.,0.,0.));
#1270=DIRECTION('center_axis',(0.,0.,-1.));
#1271=DIRECTION('ref_axis',(-1.,0.,0.));
#1272=DIRECTION('',(1.,0.,0.));
#1273=DIRECTION('',(0.,1.,0.));
#1274=DIRECTION('',(-1.,0.,0.));
#1275=DIRECTION('',(0.,1.,0.));
#1276=DIRECTION('center_axis',(-0.707138308344379,0.,-0.707075252622979));
#1277=DIRECTION('ref_axis',(-0.707075252622979,0.,0.707138308344379));
#1278=DIRECTION('',(-0.707075252622979,0.,0.707138308344379));
#1279=DIRECTION('',(0.,1.,0.));
#1280=DIRECTION('',(0.707075252622979,0.,-0.707138308344379));
#1281=DIRECTION('center_axis',(0.70713830834438,-1.23125543376417E-15,0.707075252622978));
#1282=DIRECTION('ref_axis',(0.707075252622978,0.,-0.70713830834438));
#1283=DIRECTION('',(0.,1.,1.74133577606724E-15));
#1284=DIRECTION('',(-0.700738117772391,0.133583672744957,0.700800608359307));
#1285=DIRECTION('',(0.707075252622978,0.,-0.70713830834438));
#1286=DIRECTION('center_axis',(0.0944537091524461,0.991037538328377,-0.0944621323672972));
#1287=DIRECTION('ref_axis',(-0.700738117772392,0.133583672744957,0.700800608359306));
#1288=DIRECTION('',(0.,0.0948863450549763,0.995488112195273));
#1289=DIRECTION('',(-0.70713830834438,8.82207381737557E-16,-0.707075252622979));
#1290=DIRECTION('',(-0.700738117772392,0.133583672744957,0.700800608359306));
#1291=DIRECTION('',(0.70713830834438,-8.83021573709661E-16,0.707075252622979));
#1292=DIRECTION('',(0.707138308344375,0.,0.707075252622983));
#1293=DIRECTION('',(-0.700738117772392,0.133583672744957,0.700800608359307));
#1294=DIRECTION('',(-0.70713830834438,9.24217257058393E-16,-0.707075252622978));
#1295=DIRECTION('',(0.700738117772392,-0.133583672744957,-0.700800608359307));
#1296=DIRECTION('',(0.707138308344375,0.,0.707075252622983));
#1297=DIRECTION('center_axis',(-0.707106781186548,0.,0.707106781186548));
#1298=DIRECTION('ref_axis',(0.707106781186548,0.,0.707106781186548));
#1299=DIRECTION('',(0.,1.,0.));
#1300=DIRECTION('',(0.707106781186547,0.,0.707106781186547));
#1301=DIRECTION('',(0.,1.,0.));
#1302=DIRECTION('',(0.707106781186547,0.,0.707106781186547));
#1303=DIRECTION('center_axis',(-0.465386684710524,0.752855787234499,0.465428187072581));
#1304=DIRECTION('ref_axis',(0.707138308344381,0.,0.707075252622978));
#1305=DIRECTION('',(0.,-0.525843700087626,0.850581214863198));
#1306=DIRECTION('',(0.70713830834438,0.,0.707075252622979));
#1307=DIRECTION('',(0.70713830834438,-8.82207381737557E-16,0.707075252622979));
#1308=DIRECTION('',(0.532325695947505,0.658185508521361,-0.53237316781228));
#1309=DIRECTION('center_axis',(-0.707075252622979,-2.95822839457879E-31,
0.70713830834438));
#1310=DIRECTION('ref_axis',(-6.3577716563984E-16,-1.,-6.35720473211561E-16));
#1311=DIRECTION('',(2.09169008941327E-31,-1.,-2.09187662263876E-31));
#1312=DIRECTION('',(0.70713830834438,-8.83021573709661E-16,0.707075252622979));
#1313=DIRECTION('',(-6.3577716563984E-16,-1.,-6.35720473211561E-16));
#1314=DIRECTION('center_axis',(1.,0.,0.));
#1315=DIRECTION('ref_axis',(0.,0.,-1.));
#1316=DIRECTION('',(0.,-1.,0.));
#1317=DIRECTION('',(0.,0.,-1.));
#1318=DIRECTION('',(0.,1.,0.));
#1319=DIRECTION('',(0.,0.,-1.));
#1320=DIRECTION('center_axis',(-0.70713830834438,0.,-0.707075252622979));
#1321=DIRECTION('ref_axis',(-0.707075252622979,0.,0.70713830834438));
#1322=DIRECTION('',(0.,1.,0.));
#1323=DIRECTION('',(-0.707075252622978,0.,0.70713830834438));
#1324=DIRECTION('center_axis',(0.70713830834438,0.,0.707075252622978));
#1325=DIRECTION('ref_axis',(0.707075252622978,0.,-0.70713830834438));
#1326=DIRECTION('',(0.707075252622978,0.,-0.70713830834438));
#1327=DIRECTION('',(0.,1.,0.));
#1328=DIRECTION('center_axis',(-0.707075252622978,0.,0.70713830834438));
#1329=DIRECTION('ref_axis',(0.70713830834438,0.,0.707075252622978));
#1330=DIRECTION('',(0.70713830834438,0.,0.707075252622978));
#1331=DIRECTION('center_axis',(-1.01389551537002E-9,-1.,1.01398468394344E-9));
#1332=DIRECTION('ref_axis',(0.707075252622979,-1.43392784175444E-9,-0.707138308344379));
#1333=DIRECTION('',(0.707075252622979,0.,-0.707138308344379));
#1334=DIRECTION('',(0.707075252622979,-1.43392784175444E-9,-0.707138308344379));
#1335=DIRECTION('center_axis',(0.70713830834438,-8.83021573709661E-16,0.707075252622979));
#1336=DIRECTION('ref_axis',(0.707075252622979,0.,-0.70713830834438));
#1337=DIRECTION('center_axis',(-1.,0.,0.));
#1338=DIRECTION('ref_axis',(0.,0.,1.));
#1339=DIRECTION('',(0.,0.,-1.));
#1340=DIRECTION('',(0.,0.,1.));
#1341=DIRECTION('',(0.,1.,0.));
#1342=DIRECTION('',(0.,0.,1.));
#1343=DIRECTION('center_axis',(0.,0.,1.));
#1344=DIRECTION('ref_axis',(1.,0.,0.));
#1345=DIRECTION('',(1.,0.,0.));
#1346=DIRECTION('',(1.,0.,0.));
#1347=DIRECTION('center_axis',(0.,1.,0.));
#1348=DIRECTION('ref_axis',(0.,0.,1.));
#1349=DIRECTION('',(0.,0.,-1.));
#1350=DIRECTION('',(0.707098793830823,0.,0.70711476845205));
#1351=DIRECTION('',(0.,0.,-1.));
#1352=DIRECTION('',(0.707075252622979,0.,-0.707138308344379));
#1353=DIRECTION('',(0.368049516558846,0.,-0.929806191289776));
#1354=DIRECTION('',(-0.70713830834438,0.,-0.707075252622978));
#1355=DIRECTION('',(-0.929217745342643,0.,0.369532653144936));
#1356=DIRECTION('center_axis',(0.,-1.,0.));
#1357=DIRECTION('ref_axis',(-1.,0.,0.));
#1358=DIRECTION('center_axis',(0.707138308344379,0.,0.707075252622979));
#1359=DIRECTION('ref_axis',(0.707075252622979,0.,-0.707138308344379));
#1360=DIRECTION('',(0.707075252622979,0.,-0.707138308344379));
#1361=DIRECTION('',(0.,1.,0.));
#1362=DIRECTION('',(0.707075252622979,0.,-0.707138308344379));
#1363=DIRECTION('center_axis',(-1.,0.,0.));
#1364=DIRECTION('ref_axis',(0.,0.,1.));
#1365=DIRECTION('',(0.,0.,1.));
#1366=DIRECTION('',(0.,1.,0.));
#1367=DIRECTION('center_axis',(0.,1.,0.));
#1368=DIRECTION('ref_axis',(0.,0.,1.));
#1369=DIRECTION('center_axis',(-0.369532653144936,0.,-0.929217745342643));
#1370=DIRECTION('ref_axis',(-0.929217745342643,0.,0.369532653144936));
#1371=DIRECTION('',(0.929217745342643,0.,-0.369532653144936));
#1372=DIRECTION('',(0.,1.,0.));
#1373=DIRECTION('center_axis',(0.707075252622978,0.,-0.70713830834438));
#1374=DIRECTION('ref_axis',(-0.70713830834438,0.,-0.707075252622978));
#1375=DIRECTION('',(0.70713830834438,0.,0.707075252622978));
#1376=DIRECTION('',(0.,1.,0.));
#1377=DIRECTION('center_axis',(0.929806191289776,0.,0.368049516558846));
#1378=DIRECTION('ref_axis',(0.368049516558846,0.,-0.929806191289776));
#1379=DIRECTION('',(-0.368049516558846,0.,0.929806191289776));
#1380=DIRECTION('center_axis',(0.70711476845205,0.,-0.707098793830823));
#1381=DIRECTION('ref_axis',(0.707098793830823,0.,0.70711476845205));
#1382=DIRECTION('',(-0.707098793830823,0.,-0.70711476845205));
#1383=DIRECTION('',(0.,1.,0.));
#1384=DIRECTION('center_axis',(0.,1.,0.));
#1385=DIRECTION('ref_axis',(1.,0.,0.));
#1386=DIRECTION('',(0.,0.,1.));
#1387=DIRECTION('center_axis',(0.,1.,0.));
#1388=DIRECTION('ref_axis',(-1.,0.,0.));
#1389=DIRECTION('center_axis',(0.,1.,0.));
#1390=DIRECTION('ref_axis',(-1.,0.,0.));
#1391=DIRECTION('',(0.,-1.,0.));
#1392=DIRECTION('center_axis',(0.,1.,0.));
#1393=DIRECTION('ref_axis',(-1.,0.,0.));
#1394=DIRECTION('center_axis',(1.,0.,0.));
#1395=DIRECTION('ref_axis',(0.,0.,-1.));
#1396=DIRECTION('center_axis',(1.,-3.48236100133482E-15,1.66533453693773E-16));
#1397=DIRECTION('ref_axis',(1.66533453693773E-16,-4.81321991408169E-31,
-1.));
#1398=DIRECTION('',(-1.66533453693773E-16,0.,1.));
#1399=DIRECTION('',(3.48236100133482E-15,1.,9.86076131526266E-32));
#1400=DIRECTION('',(1.66533453693773E-16,-4.81321991408169E-31,-1.));
#1401=DIRECTION('',(3.48236100133482E-15,1.,9.86076131526266E-32));
#1402=DIRECTION('center_axis',(0.,0.,1.));
#1403=DIRECTION('ref_axis',(0.,1.,0.));
#1404=DIRECTION('',(-2.23363559176526E-15,-1.,0.));
#1405=DIRECTION('',(-0.995488911375643,-0.0948779601811621,0.));
#1406=DIRECTION('',(-0.850602187158748,0.525809774729183,0.));
#1407=DIRECTION('',(-1.,3.48236100133482E-15,0.));
#1408=DIRECTION('',(3.48236100133482E-15,1.,0.));
#1409=DIRECTION('',(-1.,0.,0.));
#1410=DIRECTION('',(1.,1.01389203300902E-9,0.));
#1411=DIRECTION('center_axis',(3.48236100133482E-15,1.,9.86076131526266E-32));
#1412=DIRECTION('ref_axis',(1.66533453693773E-16,-4.81321991408169E-31,
-1.));
#1413=DIRECTION('',(-1.66533453693773E-16,4.81321991408169E-31,1.));
#1414=DIRECTION('',(-0.707106781186547,2.46240107858343E-15,-0.707106781186548));
#1415=DIRECTION('',(1.,-3.49676543189026E-15,1.66533453693773E-16));
#1416=DIRECTION('',(1.66533453693773E-16,0.,-1.));
#1417=DIRECTION('',(-0.707075252622979,2.46229128474323E-15,0.707138308344379));
#1418=DIRECTION('',(-1.66533453693773E-16,4.81321991408169E-31,1.));
#1419=DIRECTION('',(0.999706309911153,-3.48133826642294E-15,0.0242341478873315));
#1420=DIRECTION('',(1.66533453693773E-16,-4.81321991408169E-31,-1.));
#1421=DIRECTION('',(1.,-3.48236100133482E-15,1.66533453693773E-16));
#1422=DIRECTION('',(-0.707098793830823,2.46237326372735E-15,-0.70711476845205));
#1423=DIRECTION('center_axis',(-3.48236100133482E-15,-1.,-9.86076131526266E-32));
#1424=DIRECTION('ref_axis',(1.,-3.48236100133482E-15,1.66533453693773E-16));
#1425=DIRECTION('center_axis',(1.,-3.48236100133482E-15,1.66533453693773E-16));
#1426=DIRECTION('ref_axis',(1.66533453693773E-16,-4.81321991408169E-31,
-1.));
#1427=DIRECTION('',(1.66533453693773E-16,-4.81321991408169E-31,-1.));
#1428=DIRECTION('',(-3.48236100133482E-15,-1.,-9.86076131526266E-32));
#1429=DIRECTION('center_axis',(3.48236100133482E-15,1.,9.86076131526266E-32));
#1430=DIRECTION('ref_axis',(1.66533453693773E-16,-4.81321991408169E-31,
-1.));
#1431=DIRECTION('',(-0.70713830834438,2.46251086752835E-15,-0.707075252622979));
#1432=DIRECTION('',(0.707075252622978,-2.46229128474323E-15,-0.70713830834438));
#1433=DIRECTION('',(0.708744002361207,-2.46810247375262E-15,0.705465760414365));
#1434=DIRECTION('',(0.707075252622979,-2.46229128474323E-15,-0.707138308344379));
#1435=DIRECTION('',(-0.999706309911153,3.48133826642294E-15,-0.0242341478873315));
#1436=DIRECTION('',(1.,-3.48236100133482E-15,1.66533453693773E-16));
#1437=DIRECTION('',(1.66533453693773E-16,-4.81321991408169E-31,-1.));
#1438=DIRECTION('',(-1.,3.48236100133482E-15,-1.66533453693773E-16));
#1439=DIRECTION('',(-1.66533453693773E-16,4.81321991408169E-31,1.));
#1440=DIRECTION('',(-0.999706309911153,3.48133826642294E-15,-0.0242341478873315));
#1441=DIRECTION('center_axis',(0.707106781186548,-2.46240107858343E-15,
-0.707106781186547));
#1442=DIRECTION('ref_axis',(-0.707106781186547,2.46240107858343E-15,-0.707106781186548));
#1443=DIRECTION('',(3.48236100133482E-15,1.,9.86076131526266E-32));
#1444=DIRECTION('',(-0.707106781186547,2.46240107858343E-15,-0.707106781186548));
#1445=DIRECTION('center_axis',(0.465386684710527,0.752855787234498,-0.465428187072581));
#1446=DIRECTION('ref_axis',(-0.70713830834438,2.46251086752835E-15,-0.707075252622978));
#1447=DIRECTION('',(0.70713830834438,-1.58030348579079E-15,0.707075252622979));
#1448=DIRECTION('',(0.532325695947503,-0.658185508521363,-0.53237316781228));
#1449=DIRECTION('center_axis',(-0.70713830834438,1.23125543376417E-15,-0.707075252622978));
#1450=DIRECTION('ref_axis',(-0.707075252622978,2.46229128474323E-15,0.70713830834438));
#1451=DIRECTION('',(0.700738117772392,0.133583672744954,-0.700800608359307));
#1452=DIRECTION('',(-0.707075252622978,2.46229128474323E-15,0.70713830834438));
#1453=DIRECTION('',(2.60971384204608E-15,1.,-8.68610795647082E-16));
#1454=DIRECTION('center_axis',(0.0242341478873315,-8.43920515034237E-17,
-0.999706309911153));
#1455=DIRECTION('ref_axis',(-0.999706309911153,3.48133826642294E-15,-0.0242341478873315));
#1456=DIRECTION('',(3.48236100133482E-15,1.,9.86076131526266E-32));
#1457=DIRECTION('center_axis',(-0.705465760414365,2.456686451844E-15,0.708744002361207));
#1458=DIRECTION('ref_axis',(0.708744002361207,-2.46810247375262E-15,0.705465760414365));
#1459=DIRECTION('',(-0.708744002361207,2.46810247375262E-15,-0.705465760414365));
#1460=DIRECTION('',(3.48236100133482E-15,1.,9.86076131526266E-32));
#1461=DIRECTION('center_axis',(0.0242341478873315,-8.43920515034237E-17,
-0.999706309911153));
#1462=DIRECTION('ref_axis',(-0.999706309911153,3.48133826642294E-15,-0.0242341478873315));
#1463=DIRECTION('',(-3.48236100133482E-15,-1.,-9.86076131526266E-32));
#1464=DIRECTION('',(3.48236100133482E-15,1.,9.86076131526266E-32));
#1465=DIRECTION('',(0.999706309911153,-3.48133826642294E-15,0.0242341478873315));
#1466=DIRECTION('center_axis',(-1.,3.48236100133482E-15,-1.66533453693773E-16));
#1467=DIRECTION('ref_axis',(-1.66533453693773E-16,4.81321991408169E-31,
1.));
#1468=DIRECTION('',(3.48236100133482E-15,1.,9.86076131526266E-32));
#1469=DIRECTION('',(-1.66533453693773E-16,4.81321991408169E-31,1.));
#1470=DIRECTION('',(-3.48236100133482E-15,-1.,-9.86076131526266E-32));
#1471=DIRECTION('center_axis',(-1.66533453693773E-16,4.81321991408169E-31,
1.));
#1472=DIRECTION('ref_axis',(1.,-3.48236100133482E-15,1.66533453693773E-16));
#1473=DIRECTION('',(-1.,3.48236100133482E-15,-1.66533453693773E-16));
#1474=DIRECTION('',(3.48236100133482E-15,1.,9.86076131526266E-32));
#1475=DIRECTION('',(1.,-3.48236100133482E-15,1.66533453693773E-16));
#1476=DIRECTION('',(3.48236100133482E-15,1.,9.86076131526266E-32));
#1477=DIRECTION('center_axis',(3.48236100133482E-15,1.,9.86076131526266E-32));
#1478=DIRECTION('ref_axis',(1.66533453693773E-16,-4.81321991408169E-31,
-1.));
#1479=DIRECTION('',(-0.707138308344375,2.46251086752833E-15,-0.707075252622983));
#1480=DIRECTION('',(0.707075252622979,-2.46229128474323E-15,-0.70713830834438));
#1481=DIRECTION('',(-0.70713830834438,2.46251086752835E-15,-0.707075252622979));
#1482=DIRECTION('',(-0.707075252622979,2.46229128474323E-15,0.70713830834438));
#1483=DIRECTION('',(-0.707138308344375,2.46251086752833E-15,-0.707075252622983));
#1484=DIRECTION('',(-0.707075252622979,2.46229128474323E-15,0.707138308344379));
#1485=DIRECTION('',(-0.368049516558846,1.28168128302466E-15,0.929806191289776));
#1486=DIRECTION('',(0.70713830834438,-2.46251086752835E-15,0.707075252622979));
#1487=DIRECTION('',(0.929217745342643,-3.23587163812949E-15,-0.369532653144936));
#1488=DIRECTION('',(0.707075252622979,-2.46229128474323E-15,-0.707138308344379));
#1489=DIRECTION('center_axis',(0.70713830834438,-2.46251086752835E-15,0.707075252622979));
#1490=DIRECTION('ref_axis',(0.707075252622979,-2.46229128474323E-15,-0.70713830834438));
#1491=DIRECTION('',(-0.700738117772392,-0.133583672744954,0.700800608359306));
#1492=DIRECTION('',(3.48236100133482E-15,1.,9.86076131526266E-32));
#1493=DIRECTION('center_axis',(-0.70713830834438,2.46251086752835E-15,-0.707075252622979));
#1494=DIRECTION('ref_axis',(-0.707075252622979,2.46229128474323E-15,0.70713830834438));
#1495=DIRECTION('',(0.700738117772392,0.133583672744954,-0.700800608359307));
#1496=DIRECTION('',(3.48236100133482E-15,1.,9.86076131526266E-32));
#1497=DIRECTION('center_axis',(0.707075252622979,-2.46229128474323E-15,
-0.70713830834438));
#1498=DIRECTION('ref_axis',(-0.70713830834438,2.46251086752835E-15,-0.707075252622979));
#1499=DIRECTION('',(0.70713830834438,-1.53829361046995E-15,0.707075252622979));
#1500=DIRECTION('center_axis',(1.01389203300902E-9,-1.,-1.01398468394344E-9));
#1501=DIRECTION('ref_axis',(-0.707075252622979,-1.43392537946315E-9,0.707138308344379));
#1502=DIRECTION('',(-0.707075252622979,2.46229128474323E-15,0.707138308344379));
#1503=DIRECTION('',(-0.70713830834438,1.57948929381869E-15,-0.707075252622979));
#1504=DIRECTION('',(-0.707075252622979,-1.43392537946315E-9,0.707138308344379));
#1505=DIRECTION('center_axis',(-0.0944537091524426,0.991037538328377,0.0944621323672972));
#1506=DIRECTION('ref_axis',(0.700738117772392,0.133583672744954,-0.700800608359306));
#1507=DIRECTION('',(0.700738117772392,0.133583672744954,-0.700800608359306));
#1508=DIRECTION('center_axis',(-0.70713830834438,1.57948929381869E-15,-0.707075252622979));
#1509=DIRECTION('ref_axis',(-0.707075252622979,2.46229128474323E-15,0.70713830834438));
#1510=DIRECTION('center_axis',(1.66533453693773E-16,-4.81321991408169E-31,
-1.));
#1511=DIRECTION('ref_axis',(-1.,3.48236100133482E-15,-1.66533453693773E-16));
#1512=DIRECTION('',(-1.,3.48236100133482E-15,-1.66533453693773E-16));
#1513=DIRECTION('center_axis',(3.48236100133482E-15,1.,9.86076131526266E-32));
#1514=DIRECTION('ref_axis',(1.66533453693773E-16,-4.81321991408169E-31,
-1.));
#1515=DIRECTION('',(0.707075252622979,-2.46229128474323E-15,-0.707138308344379));
#1516=DIRECTION('center_axis',(-0.707138308344379,2.46251086752835E-15,
-0.707075252622979));
#1517=DIRECTION('ref_axis',(-0.707075252622979,2.46229128474323E-15,0.707138308344379));
#1518=DIRECTION('',(-0.707075252622979,2.46229128474323E-15,0.707138308344379));
#1519=DIRECTION('',(3.48236100133482E-15,1.,9.86076131526266E-32));
#1520=DIRECTION('center_axis',(-1.,3.48236100133482E-15,-1.66533453693773E-16));
#1521=DIRECTION('ref_axis',(-1.66533453693773E-16,4.81321991408169E-31,
1.));
#1522=DIRECTION('',(3.48236100133482E-15,1.,9.86076131526266E-32));
#1523=DIRECTION('center_axis',(1.66533453693773E-16,-4.81321991408169E-31,
-1.));
#1524=DIRECTION('ref_axis',(-1.,3.48236100133482E-15,-1.66533453693773E-16));
#1525=DIRECTION('',(3.48236100133482E-15,1.,9.86076131526266E-32));
#1526=DIRECTION('center_axis',(1.,-3.48236100133482E-15,1.66533453693773E-16));
#1527=DIRECTION('ref_axis',(1.66533453693773E-16,-4.81321991408169E-31,
-1.));
#1528=DIRECTION('',(1.66533453693773E-16,-4.81321991408169E-31,-1.));
#1529=DIRECTION('',(3.48236100133482E-15,1.,9.86076131526266E-32));
#1530=DIRECTION('center_axis',(0.707138308344379,-2.46251086752835E-15,
0.707075252622979));
#1531=DIRECTION('ref_axis',(0.707075252622979,-2.46229128474323E-15,-0.707138308344379));
#1532=DIRECTION('',(3.48236100133482E-15,1.,9.86076131526266E-32));
#1533=DIRECTION('',(-0.707075252622979,2.46229128474323E-15,0.707138308344379));
#1534=DIRECTION('center_axis',(0.369532653144936,-1.28684610003171E-15,
0.929217745342643));
#1535=DIRECTION('ref_axis',(0.929217745342643,-3.23587163812949E-15,-0.369532653144936));
#1536=DIRECTION('',(-0.929217745342643,3.23587163812949E-15,0.369532653144936));
#1537=DIRECTION('',(3.48236100133482E-15,1.,9.86076131526266E-32));
#1538=DIRECTION('center_axis',(-0.707075252622979,2.46229128474323E-15,
0.70713830834438));
#1539=DIRECTION('ref_axis',(0.70713830834438,-2.46251086752835E-15,0.707075252622979));
#1540=DIRECTION('',(-0.70713830834438,2.46251086752835E-15,-0.707075252622979));
#1541=DIRECTION('',(3.48236100133482E-15,1.,9.86076131526266E-32));
#1542=DIRECTION('center_axis',(-0.929806191289776,3.23792081934718E-15,
-0.368049516558846));
#1543=DIRECTION('ref_axis',(-0.368049516558846,1.28168128302466E-15,0.929806191289776));
#1544=DIRECTION('',(0.368049516558846,-1.28168128302466E-15,-0.929806191289776));
#1545=DIRECTION('center_axis',(-0.70711476845205,2.46242889312532E-15,0.707098793830823));
#1546=DIRECTION('ref_axis',(-0.707098793830823,2.46237326372735E-15,-0.70711476845205));
#1547=DIRECTION('',(0.707098793830823,-2.46237326372735E-15,0.70711476845205));
#1548=DIRECTION('',(3.48236100133482E-15,1.,9.86076131526266E-32));
#1549=DIRECTION('center_axis',(3.48236100133482E-15,1.,9.86076131526266E-32));
#1550=DIRECTION('ref_axis',(-1.,3.48236100133482E-15,-1.66533453693773E-16));
#1551=DIRECTION('',(1.66533453693773E-16,-4.81321991408169E-31,-1.));
#1552=DIRECTION('center_axis',(3.48236100133482E-15,1.,9.86076131526266E-32));
#1553=DIRECTION('ref_axis',(1.,-3.48236100133482E-15,1.66533453693773E-16));
#1554=DIRECTION('center_axis',(3.48236100133482E-15,1.,9.86076131526266E-32));
#1555=DIRECTION('ref_axis',(1.,-3.48236100133482E-15,1.66533453693773E-16));
#1556=DIRECTION('',(-3.48236100133482E-15,-1.,-9.86076131526266E-32));
#1557=DIRECTION('center_axis',(3.48236100133482E-15,1.,9.86076131526266E-32));
#1558=DIRECTION('ref_axis',(1.,-3.48236100133482E-15,1.66533453693773E-16));
#1559=DIRECTION('center_axis',(-1.,3.48236100133482E-15,-1.66533453693773E-16));
#1560=DIRECTION('ref_axis',(-1.66533453693773E-16,4.81321991408169E-31,
1.));
#1561=CARTESIAN_POINT('',(0.,0.,0.));
#1562=CARTESIAN_POINT('Origin',(1.59620055239631,0.,-1.0500000319143));
#1563=CARTESIAN_POINT('',(-1.0000000319143,0.10000000319143,-1.0500000319143));
#1564=CARTESIAN_POINT('',(1.34999558297456,0.1,-1.0500000319143));
#1565=CARTESIAN_POINT('',(1.59810030172959,0.10000000319143,-1.0500000319143));
#1566=CARTESIAN_POINT('',(1.34999558297456,0.,-1.0500000319143));
#1567=CARTESIAN_POINT('',(1.34999558297456,0.,-1.0500000319143));
#1568=CARTESIAN_POINT('',(-1.0000000319143,0.,-1.0500000319143));
#1569=CARTESIAN_POINT('',(1.59620055239631,0.,-1.0500000319143));
#1570=CARTESIAN_POINT('',(-1.0000000319143,0.,-1.0500000319143));
#1571=CARTESIAN_POINT('Origin',(3.06768817304603,0.,-2.76784580277525));
#1572=CARTESIAN_POINT('',(3.06768817304603,0.1,-2.76784580277525));
#1573=CARTESIAN_POINT('',(1.30000004148859,0.1,-1.0000000319143));
#1574=CARTESIAN_POINT('',(3.06768817304603,0.,-2.76784580277525));
#1575=CARTESIAN_POINT('',(3.06768817304603,0.,-2.76784580277525));
#1576=CARTESIAN_POINT('',(1.30000004148859,0.,-1.0000000319143));
#1577=CARTESIAN_POINT('Origin',(2.28056979276344,0.250000006382859,-1.98022575602676));
#1578=CARTESIAN_POINT('',(1.60000005106288,0.10000000319143,-1.29959532231942));
#1579=CARTESIAN_POINT('',(1.60000005106288,0.379738925031177,-1.29959532231942));
#1580=CARTESIAN_POINT('',(1.60000005106288,0.394594105012911,-1.29959532231942));
#1581=CARTESIAN_POINT('',(3.06742285630552,0.0999999999999999,-2.76714898973443));
#1582=CARTESIAN_POINT('',(2.67399632453448,0.17500000319143,-2.3736873728806));
#1583=CARTESIAN_POINT('',(2.26529393376745,0.1,-1.96494853475667));
#1584=CARTESIAN_POINT('Origin',(3.01721603641307,0.1,-2.81735133267066));
#1585=CARTESIAN_POINT('',(1.60000005106288,0.386641645491223,-1.22717630190292));
#1586=CARTESIAN_POINT('',(1.60000005106288,0.368893879957331,-1.41337474380499));
#1587=CARTESIAN_POINT('',(1.86361718373661,0.386641645491223,-0.963582676042882));
#1588=CARTESIAN_POINT('',(1.51358372110615,0.386641645491223,-1.31358492609126));
#1589=CARTESIAN_POINT('',(3.36724949904354,0.0999999999999996,-2.46734908262228));
#1590=CARTESIAN_POINT('',(1.79354337195937,0.400000012765719,-0.893502615206952));
#1591=CARTESIAN_POINT('',(3.36722050510322,0.0999999999999996,-2.4673780739772));
#1592=CARTESIAN_POINT('',(3.01721603641307,0.1,-2.81735133267066));
#1593=CARTESIAN_POINT('',(3.26670596639081,0.0999999999999997,-2.56788364977998));
#1594=CARTESIAN_POINT('',(3.11716174808876,0.1,-2.71741453318212));
#1595=CARTESIAN_POINT('',(1.82427104321457,0.374975414989567,-1.12532009280654));
#1596=CARTESIAN_POINT('',(2.55835834020416,0.235034294676288,-1.8594728544039));
#1597=CARTESIAN_POINT('',(1.72486583675098,0.374975414989567,-1.22471643527997));
#1598=CARTESIAN_POINT('',(1.6498234749939,0.374975414989567,-1.29975210548859));
#1599=CARTESIAN_POINT('',(3.16730075992722,0.0999999999999998,-2.66727999225342));
#1600=CARTESIAN_POINT('',(3.28157422109651,0.0782157295955312,-2.78156364412802));
#1601=CARTESIAN_POINT('',(3.11716174808876,0.1,-2.71741453318212));
#1602=CARTESIAN_POINT('Origin',(1.30000004148859,0.,-1.0000000319143));
#1603=CARTESIAN_POINT('',(1.59894125337287,0.,-0.701058820030016));
#1604=CARTESIAN_POINT('',(1.59894125337287,0.1,-0.701058820030016));
#1605=CARTESIAN_POINT('',(1.59894125337287,0.,-0.701058820030016));
#1606=CARTESIAN_POINT('',(1.60000005106288,0.,-0.700000022340009));
#1607=CARTESIAN_POINT('',(1.30000004148859,0.,-1.0000000319143));
#1608=CARTESIAN_POINT('',(1.60000005106288,0.1,-0.700000022340009));
#1609=CARTESIAN_POINT('',(1.60000005106288,0.,-0.700000022340009));
#1610=CARTESIAN_POINT('',(1.30000004148859,0.1,-1.0000000319143));
#1611=CARTESIAN_POINT('Origin',(1.47854681521753,0.343320829128471,-1.27854489567329));
#1612=CARTESIAN_POINT('',(1.60000005106288,0.3,-1.08702867779121));
#1613=CARTESIAN_POINT('',(1.60000005106288,0.13878935042293,-0.826261531581071));
#1614=CARTESIAN_POINT('',(1.79351437801906,0.3,-0.893531606561868));
#1615=CARTESIAN_POINT('',(1.48818808447696,0.3,-1.19883067407269));
#1616=CARTESIAN_POINT('',(1.79354337195937,0.300000012765719,-0.893502615206952));
#1617=CARTESIAN_POINT('',(1.44350990932891,0.300000012765719,-1.24350486525533));
#1618=CARTESIAN_POINT('',(2.02529354373351,0.586543769379934,-1.12527345405183));
#1619=CARTESIAN_POINT('Origin',(1.44350990932891,0.400000012765719,-1.24350486525533));
#1620=CARTESIAN_POINT('',(1.79351437801906,0.100000003191429,-0.893531606561868));
#1621=CARTESIAN_POINT('',(1.79351437801906,0.25000000638286,-0.893531606561868));
#1622=CARTESIAN_POINT('',(1.79354337195937,0.100000003191429,-0.893502615206952));
#1623=CARTESIAN_POINT('',(1.44350990932891,0.10000000319143,-1.24350486525533));
#1624=CARTESIAN_POINT('',(1.79354337195937,0.100000003191429,-0.893502615206952));
#1625=CARTESIAN_POINT('Origin',(1.65022082963036,0.,1.60000005106288));
#1626=CARTESIAN_POINT('',(1.65022082963036,0.3,-0.750225279507764));
#1627=CARTESIAN_POINT('',(1.65022082963036,0.,-0.750225279507764));
#1628=CARTESIAN_POINT('',(1.65022082963036,0.,-0.750225279507764));
#1629=CARTESIAN_POINT('',(1.65022082963036,0.3,1.60000005106288));
#1630=CARTESIAN_POINT('',(1.65022082963036,0.3,1.60000005106288));
#1631=CARTESIAN_POINT('',(1.65022082963036,0.,1.60000005106288));
#1632=CARTESIAN_POINT('',(1.65022082963036,0.,1.60000005106288));
#1633=CARTESIAN_POINT('',(1.65022082963036,0.,1.60000005106288));
#1634=CARTESIAN_POINT('Origin',(3.40000010850861,0.1,-2.90000009255146));
#1635=CARTESIAN_POINT('',(1.72486583675098,0.1,-1.22471643527997));
#1636=CARTESIAN_POINT('',(1.72486583675098,0.1,-1.22471643527997));
#1637=CARTESIAN_POINT('',(2.87494804345089,0.1,-2.37490120427851));
#1638=CARTESIAN_POINT('Origin',(1.82427104321457,0.1,-1.12532009280654));
#1639=CARTESIAN_POINT('',(1.82427104321457,0.1,-1.12532009280654));
#1640=CARTESIAN_POINT('',(2.13678611403567,0.1,-1.43786303316933));
#1641=CARTESIAN_POINT('',(1.82427104321457,0.1,-1.12532009280654));
#1642=CARTESIAN_POINT('Origin',(1.72486583675098,0.1,-1.22471643527997));
#1643=CARTESIAN_POINT('',(1.74976918666959,0.1,-1.19981530600006));
#1644=CARTESIAN_POINT('Origin',(1.44350990932891,0.10000000319143,-1.24350486525533));
#1645=CARTESIAN_POINT('',(1.60000005106288,0.1,-0.700000022340009));
#1646=CARTESIAN_POINT('',(3.36724949904354,0.0999999999999995,-2.46734908262228));
#1647=CARTESIAN_POINT('Origin',(2.58039643550145,0.250000006382859,-1.68042584891462));
#1648=CARTESIAN_POINT('Origin',(1.60000005106288,0.,-1.0500000319143));
#1649=CARTESIAN_POINT('',(1.60000005106288,0.1,-1.42500004468002));
#1650=CARTESIAN_POINT('',(1.60000005106288,0.,1.60000005106288));
#1651=CARTESIAN_POINT('',(1.60000005106288,0.,-1.0500000319143));
#1652=CARTESIAN_POINT('',(1.60000005106288,0.3,1.60000005106288));
#1653=CARTESIAN_POINT('',(1.60000005106288,0.,1.60000005106288));
#1654=CARTESIAN_POINT('',(1.60000005106288,0.3,-1.0500000319143));
#1655=CARTESIAN_POINT('Origin',(1.60000005106288,0.,1.60000005106288));
#1656=CARTESIAN_POINT('',(1.60000005106288,0.,1.60000005106288));
#1657=CARTESIAN_POINT('',(1.60000005106288,0.3,1.60000005106288));
#1658=CARTESIAN_POINT('Origin',(2.3997026782304,0.1,-1.80000005744574));
#1659=CARTESIAN_POINT('',(-1.0000000319143,0.1,-1.0000000319143));
#1660=CARTESIAN_POINT('',(-1.0000000319143,0.10000000319143,-0.525000015957149));
#1661=CARTESIAN_POINT('',(1.59894125337287,0.1,1.5989999680857));
#1662=CARTESIAN_POINT('',(-0.350264710592506,0.1,-0.350250031914298));
#1663=CARTESIAN_POINT('',(1.59894125337287,0.1,-1.0000000319143));
#1664=CARTESIAN_POINT('',(3.36768818262032,0.1,-2.46784579320096));
#1665=CARTESIAN_POINT('',(1.60000005106288,0.1,-0.700000022340009));
#1666=CARTESIAN_POINT('',(3.49940531497221,0.1,-2.80060375007803));
#1667=CARTESIAN_POINT('',(3.49940531497221,0.1,-2.80060375007803));
#1668=CARTESIAN_POINT('',(3.40000010850861,0.1,-2.90000009255146));
#1669=CARTESIAN_POINT('',(3.40000010850861,0.1,-2.90000009255146));
#1670=CARTESIAN_POINT('',(3.06768817304603,0.1,-2.76784580277525));
#1671=CARTESIAN_POINT('',(1.44000004148859,0.1,-0.700000022340009));
#1672=CARTESIAN_POINT('Origin',(1.30000004148859,0.1,-0.700000022340009));
#1673=CARTESIAN_POINT('Origin',(1.60000005106288,0.,-0.700000022340009));
#1674=CARTESIAN_POINT('',(3.36768818262032,0.,-2.46784579320096));
#1675=CARTESIAN_POINT('',(1.60000005106288,0.,-0.700000022340009));
#1676=CARTESIAN_POINT('',(3.36768818262032,0.,-2.46784579320096));
#1677=CARTESIAN_POINT('',(1.6444434043242,0.3,-0.744447338981034));
#1678=CARTESIAN_POINT('Origin',(-1.0000000319143,0.,-1.0500000319143));
#1679=CARTESIAN_POINT('',(-1.0000000319143,0.,-1.0000000319143));
#1680=CARTESIAN_POINT('',(-1.0000000319143,0.,-1.0500000319143));
#1681=CARTESIAN_POINT('',(-1.0000000319143,0.,-1.0000000319143));
#1682=CARTESIAN_POINT('Origin',(0.298100260241006,0.3,-1.0250000319143));
#1683=CARTESIAN_POINT('Origin',(3.40000010850861,0.,-2.90000009255146));
#1684=CARTESIAN_POINT('',(3.40000010850861,0.,-2.90000009255146));
#1685=CARTESIAN_POINT('',(3.06768817304603,0.,-2.76784580277525));
#1686=CARTESIAN_POINT('',(3.40000010850861,0.,-2.90000009255146));
#1687=CARTESIAN_POINT('Origin',(3.49940531497221,0.,-2.80060375007803));
#1688=CARTESIAN_POINT('',(3.49940531497221,0.,-2.80060375007803));
#1689=CARTESIAN_POINT('',(3.40000010850861,0.,-2.90000009255146));
#1690=CARTESIAN_POINT('',(3.49940531497221,0.,-2.80060375007803));
#1691=CARTESIAN_POINT('Origin',(3.36768818262032,0.,-2.46784579320096));
#1692=CARTESIAN_POINT('',(3.49940531497221,0.,-2.80060375007803));
#1693=CARTESIAN_POINT('Origin',(-1.0000000319143,0.1,-1.0000000319143));
#1694=CARTESIAN_POINT('',(1.59894125337287,0.,1.5989999680857));
#1695=CARTESIAN_POINT('',(-0.350264710592506,0.,-0.350250031914298));
#1696=CARTESIAN_POINT('',(1.59894125337287,0.,1.5989999680857));
#1697=CARTESIAN_POINT('Origin',(0.299470610729286,0.,0.299499968085702));
#1698=CARTESIAN_POINT('',(1.59894125337287,0.,-1.0000000319143));
#1699=CARTESIAN_POINT('Origin',(1.30000004148859,0.1,-0.700000022340009));
#1700=CARTESIAN_POINT('',(1.44000004148859,0.3,-0.700000022340009));
#1701=CARTESIAN_POINT('Origin',(1.30000004148859,0.3,-0.700000022340009));
#1702=CARTESIAN_POINT('',(1.44000004148859,0.1,-0.700000022340009));
#1703=CARTESIAN_POINT('Origin',(1.30000004148859,0.3,-0.700000022340009));
#1704=CARTESIAN_POINT('Origin',(1.59894125337287,0.,1.5989999680857));
#1705=CARTESIAN_POINT('Origin',(-1.70555713732037,5.78456379537409E-15,
1.7566613594068));
#1706=CARTESIAN_POINT('',(-1.70555713732037,0.100000000000006,-0.893338723570379));
#1707=CARTESIAN_POINT('',(-1.70555713732037,0.100000000000006,1.40666134983251));
#1708=CARTESIAN_POINT('',(-1.70555713732037,0.10000000319143,0.493619541068625));
#1709=CARTESIAN_POINT('',(-1.70555713732037,5.78456379537409E-15,1.40666134983251));
#1710=CARTESIAN_POINT('',(-1.70555713732037,5.78456379537409E-15,1.40666134983251));
#1711=CARTESIAN_POINT('',(-1.70555713732037,5.78456379537409E-15,-0.893338723570379));
#1712=CARTESIAN_POINT('',(-1.70555713732037,5.78456379537409E-15,1.7566613594068));
#1713=CARTESIAN_POINT('',(-1.70555713732037,5.78456379537409E-15,-0.893338723570379));
#1714=CARTESIAN_POINT('Origin',(0.,0.10000000319143,1.70000005425431));
#1715=CARTESIAN_POINT('',(-1.99892766735764,0.380969671902729,1.70000005425431));
#1716=CARTESIAN_POINT('',(-1.99892766735764,0.10000000319143,1.70000005425431));
#1717=CARTESIAN_POINT('',(-1.99892766735764,0.175000004787151,1.70000005425431));
#1718=CARTESIAN_POINT('',(-1.93941556568317,0.38664164549123,1.70000005425431));
#1719=CARTESIAN_POINT('',(-1.59186280418214,0.419766170224488,1.70000005425431));
#1720=CARTESIAN_POINT('',(-1.79925544345403,0.300000000000006,1.70000005425431));
#1721=CARTESIAN_POINT('',(-1.03548169028318,-0.172135741364276,1.70000005425431));
#1722=CARTESIAN_POINT('',(-1.70555713732037,0.300000000000006,1.70000005425431));
#1723=CARTESIAN_POINT('',(-0.20182867324925,0.300000000000001,1.70000005425431));
#1724=CARTESIAN_POINT('',(-1.70555713732037,0.10000000319143,1.70000005425431));
#1725=CARTESIAN_POINT('',(-1.70555713732037,0.0500000015957208,1.70000005425431));
#1726=CARTESIAN_POINT('',(-1.99886968464758,0.10000000319143,1.70000005425431));
#1727=CARTESIAN_POINT('',(0.,0.10000000319143,1.70000005425431));
#1728=CARTESIAN_POINT('',(-0.774533497793201,0.100000004230393,1.70000005425431));
#1729=CARTESIAN_POINT('Origin',(-0.405027696986782,0.100000000000001,0.407161359406797));
#1730=CARTESIAN_POINT('',(-1.70449833963037,0.100000000000006,-0.892338640593204));
#1731=CARTESIAN_POINT('',(-1.70449833963037,0.100000000000006,1.40772014752251));
#1732=CARTESIAN_POINT('',(-1.70449833963037,0.100000000000006,1.7066613594068));
#1733=CARTESIAN_POINT('',(-1.40555712774608,0.100000000000005,1.7066613594068));
#1734=CARTESIAN_POINT('',(-1.75577791588785,0.100000000000006,-0.893338723570379));
#1735=CARTESIAN_POINT('',(-1.05460724190944,0.100000000000003,-0.893338723570378));
#1736=CARTESIAN_POINT('',(-1.75577791588785,0.10000000319143,1.45688660700026));
#1737=CARTESIAN_POINT('',(-1.75577791588785,0.10000000319143,-0.831380500419962));
#1738=CARTESIAN_POINT('',(-1.70555713732037,0.100000000000006,1.40666134983251));
#1739=CARTESIAN_POINT('',(-1.70555713732037,0.100000000000006,1.75219941598959));
#1740=CARTESIAN_POINT('',(-1.70555713732037,0.100000000000006,2.13166137217252));
#1741=CARTESIAN_POINT('',(-1.70175763865381,0.100000000000006,1.7522915206524));
#1742=CARTESIAN_POINT('',(-1.97181245688842,0.100000000000007,1.74574504961596));
#1743=CARTESIAN_POINT('',(-1.70175763865381,0.100000000000006,1.7066613594068));
#1744=CARTESIAN_POINT('',(-1.70175763865381,0.100000000000006,2.10666137217252));
#1745=CARTESIAN_POINT('',(0.894442945656802,0.0999999999999967,1.7066613594068));
#1746=CARTESIAN_POINT('',(0.894442945656802,0.0999999999999967,1.7066613594068));
#1747=CARTESIAN_POINT('',(0.24470762433501,0.099999999999999,1.0569113594068));
#1748=CARTESIAN_POINT('',(-1.54555712774608,0.100000000000005,1.40666134983251));
#1749=CARTESIAN_POINT('Origin',(-1.40555712774608,0.100000000000005,1.40666134983251));
#1750=CARTESIAN_POINT('Origin',(-1.70555713732037,5.78456379537409E-15,
1.7566613594068));
#1751=CARTESIAN_POINT('',(-1.70555713732037,0.300000000000006,1.75219941598959));
#1752=CARTESIAN_POINT('',(-1.70555713732037,0.300000000000006,1.7566613594068));
#1753=CARTESIAN_POINT('',(-1.70555713732037,0.0500000000000058,1.75219941598959));
#1754=CARTESIAN_POINT('Origin',(-0.403657346498501,0.300000000000001,1.7316613594068));
#1755=CARTESIAN_POINT('',(-1.59927381547885,0.300000000000005,1.89996384981159));
#1756=CARTESIAN_POINT('',(-1.59374517073445,0.300000000000005,1.90549200156519));
#1757=CARTESIAN_POINT('',(-1.59986901707079,0.300000000000005,1.90055910448256));
#1758=CARTESIAN_POINT('',(-1.97526709269395,0.300000000000007,2.27599065744265));
#1759=CARTESIAN_POINT('',(-1.59965279032198,0.300000000000005,1.90077433109085));
#1760=CARTESIAN_POINT('',(-1.90034819084142,0.300000000000006,1.60146977447545));
#1761=CARTESIAN_POINT('',(-1.45711318295953,0.300000000000005,1.75822201229813));
#1762=CARTESIAN_POINT('',(-1.45711318295953,0.300000000000005,1.75822201229813));
#1763=CARTESIAN_POINT('',(-1.52149318717095,0.300000000000005,1.7566613594068));
#1764=CARTESIAN_POINT('',(-1.45711318295953,0.300000000000005,1.75822201229813));
#1765=CARTESIAN_POINT('',(0.894442945656802,0.299999999999997,1.7566613594068));
#1766=CARTESIAN_POINT('',(-1.7017576386538,0.300000000000006,1.7566613594068));
#1767=CARTESIAN_POINT('',(0.894442945656802,0.299999999999997,1.7066613594068));
#1768=CARTESIAN_POINT('',(0.894442945656802,0.299999999999997,1.7566613594068));
#1769=CARTESIAN_POINT('',(-1.7017576386538,0.300000000000006,1.7066613594068));
#1770=CARTESIAN_POINT('',(0.894442945656802,0.299999999999997,1.7066613594068));
#1771=CARTESIAN_POINT('',(-1.7017576386538,0.300000000000006,1.7522915206524));
#1772=CARTESIAN_POINT('',(-1.7017576386538,0.300000000000006,1.7066613594068));
#1773=CARTESIAN_POINT('',(-1.45711318295953,0.300000000000005,1.75822201229813));
#1774=CARTESIAN_POINT('Origin',(-1.40555712774608,4.73985546163251E-15,
1.7066613594068));
#1775=CARTESIAN_POINT('',(-1.70449833963037,5.7808766795901E-15,1.40772014752251));
#1776=CARTESIAN_POINT('',(-1.70449833963037,5.7808766795901E-15,1.40772014752251));
#1777=CARTESIAN_POINT('',(-1.40555712774608,4.73985546163251E-15,1.7066613594068));
#1778=CARTESIAN_POINT('Origin',(-1.58410390147502,0.343320829128477,1.98520622316579));
#1779=CARTESIAN_POINT('',(-1.66934762725609,0.386641645491229,1.97004391064752));
#1780=CARTESIAN_POINT('',(-1.61914080736364,0.386641645491229,2.02024625358376));
#1781=CARTESIAN_POINT('',(-1.83102398725299,0.586543769379941,2.13173468865648));
#1782=CARTESIAN_POINT('Origin',(-2.38612687902093,0.250000006382868,2.68688708351926));
#1783=CARTESIAN_POINT('',(-3.17297994256301,0.100000000000011,3.47381031722693));
#1784=CARTESIAN_POINT('',(-2.77955341079197,0.175000003191439,3.08034870037309));
#1785=CARTESIAN_POINT('',(-1.59986901707079,0.100000000000005,1.90055910448256));
#1786=CARTESIAN_POINT('',(-2.37085102002495,0.100000000000008,2.67160986224917));
#1787=CARTESIAN_POINT('',(-1.59986901707079,0.175000003191435,1.90055910448256));
#1788=CARTESIAN_POINT('Origin',(-1.45711318295953,0.100000000000005,1.75822201229813));
#1789=CARTESIAN_POINT('',(-1.70175763865381,0.0500000000000058,1.7522915206524));
#1790=CARTESIAN_POINT('Origin',(-1.7500004905817,0.100000000000006,1.75112205278315));
#1791=CARTESIAN_POINT('',(-1.59965279032198,0.100000000000005,1.90077433109085));
#1792=CARTESIAN_POINT('',(-1.75080787442995,0.100000000000006,1.75031840342802));
#1793=CARTESIAN_POINT('',(-1.59965279032198,0.100000000000005,1.90077433109085));
#1794=CARTESIAN_POINT('Origin',(-1.45711318295953,0.100000000000005,1.75822201229813));
#1795=CARTESIAN_POINT('',(-1.52149318717095,0.100000000000005,1.7566613594068));
#1796=CARTESIAN_POINT('',(-1.52149318717095,0.0500000000000051,1.7566613594068));
#1797=CARTESIAN_POINT('',(-1.45711318295953,0.100000000000005,1.75822201229813));
#1798=CARTESIAN_POINT('',(-1.45711318295953,0.100000000000005,1.75822201229813));
#1799=CARTESIAN_POINT('',(-1.97181245688842,0.100000000000007,1.74574504961596));
#1800=CARTESIAN_POINT('Origin',(-1.75577791588785,5.95945067611415E-15,
-0.893338723570379));
#1801=CARTESIAN_POINT('',(-1.75577791588785,5.95945067611415E-15,-0.893338723570379));
#1802=CARTESIAN_POINT('',(-1.75577791588785,5.95945067611415E-15,-0.893338723570379));
#1803=CARTESIAN_POINT('',(-1.75577791588785,5.95945067611415E-15,1.45688660700026));
#1804=CARTESIAN_POINT('',(-1.75577791588785,5.95945067611415E-15,-0.893338723570379));
#1805=CARTESIAN_POINT('',(-1.75577791588785,5.95945067611415E-15,1.45688660700026));
#1806=CARTESIAN_POINT('Origin',(-1.70175763865381,5.77133256939301E-15,
1.7566613594068));
#1807=CARTESIAN_POINT('',(-1.45555266923205,0.100000000000005,1.7566613594068));
#1808=CARTESIAN_POINT('',(-2.10350870157085,0.100000000000007,1.7566613594068));
#1809=CARTESIAN_POINT('',(-1.45555266923205,4.91395798554386E-15,1.7566613594068));
#1810=CARTESIAN_POINT('',(-1.45555266923205,4.91395798554386E-15,1.7566613594068));
#1811=CARTESIAN_POINT('',(0.894442945656802,-3.26957509705293E-15,1.7566613594068));
#1812=CARTESIAN_POINT('',(-1.70175763865381,5.77133256939301E-15,1.7566613594068));
#1813=CARTESIAN_POINT('',(0.894442945656802,-3.26957509705293E-15,1.7566613594068));
#1814=CARTESIAN_POINT('Origin',(-2.50525976448789,0.100000000000009,2.50666138493823));
#1815=CARTESIAN_POINT('',(-3.27285784618472,0.100000000000011,3.37394131974592));
#1816=CARTESIAN_POINT('',(-3.22271883434626,0.100000000000011,3.42407586067462));
#1817=CARTESIAN_POINT('',(-1.83042292300848,0.100000000000006,1.93137776277247));
#1818=CARTESIAN_POINT('',(-2.98050512970839,0.10000000000001,3.08156253177101));
#1819=CARTESIAN_POINT('',(-1.92982812947207,0.100000000000007,1.83198142029903));
#1820=CARTESIAN_POINT('',(-1.85532627292709,0.100000000000006,1.90647663349256));
#1821=CARTESIAN_POINT('',(-3.37226305264831,0.100000000000011,3.27454497727248));
#1822=CARTESIAN_POINT('',(-2.24234320029316,0.100000000000008,2.14452436066183));
#1823=CARTESIAN_POINT('',(-3.47277759136072,0.100000000000012,3.1740394014697));
#1824=CARTESIAN_POINT('',(-3.22271883434626,0.100000000000011,3.42407586067462));
#1825=CARTESIAN_POINT('',(-3.47324526887782,0.100000000000012,3.17450712069345));
#1826=CARTESIAN_POINT('',(-1.70555713732037,0.100000000000006,1.40666134983251));
#1827=CARTESIAN_POINT('',(-3.6049624012297,0.100000000000012,3.50726507757053));
#1828=CARTESIAN_POINT('',(-3.6049624012297,0.100000000000012,3.50726507757053));
#1829=CARTESIAN_POINT('',(-3.50555719476611,0.100000000000012,3.60666142004396));
#1830=CARTESIAN_POINT('',(-3.50555719476611,0.100000000000012,3.60666142004396));
#1831=CARTESIAN_POINT('',(-3.17324525930353,0.100000000000011,3.47450713026774));
#1832=CARTESIAN_POINT('',(-3.17324525930353,0.100000000000011,3.47450713026774));
#1833=CARTESIAN_POINT('',(-1.40555712774608,0.100000000000005,1.7066613594068));
#1834=CARTESIAN_POINT('Origin',(-3.50555719476611,0.100000000000012,3.60666142004396));
#1835=CARTESIAN_POINT('',(-1.83042292300847,0.374975414989573,1.93137776277247));
#1836=CARTESIAN_POINT('',(-3.38713130735401,0.0782157295955428,3.48822497162052));
#1837=CARTESIAN_POINT('',(-1.83042292300848,0.100000000000006,1.93137776277247));
#1838=CARTESIAN_POINT('Origin',(-1.92982812947207,0.100000000000007,1.83198142029903));
#1839=CARTESIAN_POINT('',(-1.92982812947207,0.374975414989573,1.83198142029903));
#1840=CARTESIAN_POINT('',(-2.66391542646165,0.235034294676297,2.5661341818964));
#1841=CARTESIAN_POINT('',(-1.92982812947207,0.100000000000007,1.83198142029903));
#1842=CARTESIAN_POINT('Origin',(-1.83042292300848,0.100000000000006,1.93137776277247));
#1843=CARTESIAN_POINT('',(-1.7553805612514,0.374975414989573,2.00641343298109));
#1844=CARTESIAN_POINT('Origin',(-1.5490669955864,0.100000003191435,1.95016619274783));
#1845=CARTESIAN_POINT('',(-1.70555713732037,0.100000000000006,1.40666134983251));
#1846=CARTESIAN_POINT('',(-3.47280658530103,0.100000000000012,3.17401041011478));
#1847=CARTESIAN_POINT('',(-3.12277312267056,0.100000000000011,3.52401266016316));
#1848=CARTESIAN_POINT('',(-3.47280658530103,0.100000000000011,3.17401041011478));
#1849=CARTESIAN_POINT('Origin',(-3.12277312267056,0.100000000000011,3.52401266016316));
#1850=CARTESIAN_POINT('',(-1.89910045821687,0.400000012765725,1.60016394269945));
#1851=CARTESIAN_POINT('Origin',(-2.68595352175895,0.250000006382868,2.38708717640712));
#1852=CARTESIAN_POINT('Origin',(-1.70555713732037,5.78456379537409E-15,
-0.893338723570379));
#1853=CARTESIAN_POINT('',(-1.70555713732037,5.78456379537409E-15,-0.893338723570379));
#1854=CARTESIAN_POINT('Origin',(-2.50525976448789,0.100000000000009,2.50666138493823));
#1855=CARTESIAN_POINT('',(-1.40555712774608,0.100000000000005,1.7066613594068));
#1856=CARTESIAN_POINT('Origin',(-1.70555713732037,5.78456379537409E-15,
1.40666134983251));
#1857=CARTESIAN_POINT('',(-3.47324526887782,1.19402920072322E-14,3.17450712069345));
#1858=CARTESIAN_POINT('',(-1.70555713732037,5.78456379537409E-15,1.40666134983251));
#1859=CARTESIAN_POINT('',(-3.47324526887782,1.19402920072322E-14,3.17450712069345));
#1860=CARTESIAN_POINT('Origin',(-1.70175763865381,5.77133256939301E-15,
1.7066613594068));
#1861=CARTESIAN_POINT('',(-1.70175763865381,5.77133256939301E-15,1.7066613594068));
#1862=CARTESIAN_POINT('Origin',(0.894442945656802,-3.26957509705293E-15,
1.7066613594068));
#1863=CARTESIAN_POINT('',(0.894442945656802,-3.26957509705293E-15,1.7066613594068));
#1864=CARTESIAN_POINT('Origin',(0.894442945656802,-3.26957509705293E-15,
1.7566613594068));
#1865=CARTESIAN_POINT('',(0.894442945656802,-3.26957509705293E-15,1.7066613594068));
#1866=CARTESIAN_POINT('',(0.894442945656802,-3.26957509705293E-15,1.7566613594068));
#1867=CARTESIAN_POINT('',(0.894442945656802,-3.26957509705293E-15,1.7066613594068));
#1868=CARTESIAN_POINT('Origin',(-3.17324525930353,1.08955836734906E-14,
3.47450713026774));
#1869=CARTESIAN_POINT('',(-3.17324525930353,1.08955836734906E-14,3.47450713026774));
#1870=CARTESIAN_POINT('',(-3.17324525930353,1.08955836734906E-14,3.47450713026774));
#1871=CARTESIAN_POINT('',(-1.40555712774608,4.73985546163251E-15,1.7066613594068));
#1872=CARTESIAN_POINT('Origin',(-3.50555719476611,1.20528137978236E-14,
3.60666142004396));
#1873=CARTESIAN_POINT('',(-3.50555719476611,1.20528137978236E-14,3.60666142004396));
#1874=CARTESIAN_POINT('',(-3.17324525930353,1.08955836734906E-14,3.47450713026774));
#1875=CARTESIAN_POINT('',(-3.50555719476611,1.20528137978236E-14,3.60666142004396));
#1876=CARTESIAN_POINT('Origin',(-3.6049624012297,1.2398978612142E-14,3.50726507757053));
#1877=CARTESIAN_POINT('',(-3.6049624012297,1.2398978612142E-14,3.50726507757053));
#1878=CARTESIAN_POINT('',(-3.50555719476611,1.20528137978236E-14,3.60666142004396));
#1879=CARTESIAN_POINT('',(-3.6049624012297,1.2398978612142E-14,3.50726507757053));
#1880=CARTESIAN_POINT('Origin',(-3.47324526887782,1.19402920072322E-14,
3.17450712069345));
#1881=CARTESIAN_POINT('',(-3.6049624012297,1.2398978612142E-14,3.50726507757053));
#1882=CARTESIAN_POINT('Origin',(0.894442945656802,0.0999999999999967,1.7066613594068));
#1883=CARTESIAN_POINT('',(-1.70449833963037,5.7808766795901E-15,-0.892338640593204));
#1884=CARTESIAN_POINT('',(0.24470762433501,-1.00696215289217E-15,1.0569113594068));
#1885=CARTESIAN_POINT('',(-1.70449833963037,5.7808766795901E-15,-0.892338640593204));
#1886=CARTESIAN_POINT('Origin',(-0.405027696986782,1.25565079126859E-15,
0.407161359406797));
#1887=CARTESIAN_POINT('',(-1.70449833963037,5.7808766795901E-15,1.7066613594068));
#1888=CARTESIAN_POINT('Origin',(-1.40555712774608,0.100000000000005,1.40666134983251));
#1889=CARTESIAN_POINT('',(-1.54555712774608,0.300000000000005,1.40666134983251));
#1890=CARTESIAN_POINT('Origin',(-1.40555712774608,0.300000000000005,1.40666134983251));
#1891=CARTESIAN_POINT('',(-1.54555712774608,0.100000000000005,1.40666134983251));
#1892=CARTESIAN_POINT('Origin',(-1.40555712774608,0.300000000000005,1.40666134983251));
#1893=CARTESIAN_POINT('Origin',(-1.70449833963037,5.7808766795901E-15,-0.892338640593204));
#1894=UNCERTAINTY_MEASURE_WITH_UNIT(LENGTH_MEASURE(0.000393700787401575),
#1899,'DISTANCE_ACCURACY_VALUE',
'Maximum model space distance between geometric entities at asserted c
onnectivities');
#1895=UNCERTAINTY_MEASURE_WITH_UNIT(LENGTH_MEASURE(0.000393700787401575),
#1899,'DISTANCE_ACCURACY_VALUE',
'Maximum model space distance between geometric entities at asserted c
onnectivities');
#1896=(
GEOMETRIC_REPRESENTATION_CONTEXT(3)
GLOBAL_UNCERTAINTY_ASSIGNED_CONTEXT((#1894))
GLOBAL_UNIT_ASSIGNED_CONTEXT((#1899,#1903,#1904))
REPRESENTATION_CONTEXT('','3D')
);
#1897=(
GEOMETRIC_REPRESENTATION_CONTEXT(3)
GLOBAL_UNCERTAINTY_ASSIGNED_CONTEXT((#1895))
GLOBAL_UNIT_ASSIGNED_CONTEXT((#1899,#1903,#1904))
REPRESENTATION_CONTEXT('','3D')
);
#1898=DIMENSIONAL_EXPONENTS(1.,0.,0.,0.,0.,0.,0.);
#1899=(
CONVERSION_BASED_UNIT('inch',#1902)
LENGTH_UNIT()
NAMED_UNIT(#1898)
);
#1900=(
LENGTH_UNIT()
NAMED_UNIT(*)
SI_UNIT(.MILLI.,.METRE.)
);
#1901=(
LENGTH_UNIT()
NAMED_UNIT(*)
SI_UNIT($,.METRE.)
);
#1902=LENGTH_MEASURE_WITH_UNIT(LENGTH_MEASURE(25.4),#1900);
#1903=(
NAMED_UNIT(*)
PLANE_ANGLE_UNIT()
SI_UNIT($,.RADIAN.)
);
#1904=(
NAMED_UNIT(*)
SI_UNIT($,.STERADIAN.)
SOLID_ANGLE_UNIT()
);
#1905=SHAPE_DEFINITION_REPRESENTATION(#1906,#1907);
#1906=PRODUCT_DEFINITION_SHAPE('',$,#1909);
#1907=SHAPE_REPRESENTATION('',(#1201),#1896);
#1908=PRODUCT_DEFINITION_CONTEXT('part definition',#1913,'design');
#1909=PRODUCT_DEFINITION('2026-07-08-17-19-34-267','BaseLegs',#1910,#1908);
#1910=PRODUCT_DEFINITION_FORMATION('',$,#1915);
#1911=PRODUCT_RELATED_PRODUCT_CATEGORY('BaseLegs','BaseLegs',(#1915));
#1912=APPLICATION_PROTOCOL_DEFINITION('international standard',
'automotive_design',2009,#1913);
#1913=APPLICATION_CONTEXT(
'Core Data for Automotive Mechanical Design Process');
#1914=PRODUCT_CONTEXT('part definition',#1913,'mechanical');
#1915=PRODUCT('2026-07-08-17-19-34-267','BaseLegs',$,(#1914));
#1916=PRESENTATION_STYLE_ASSIGNMENT((#1917));
#1917=SURFACE_STYLE_USAGE(.BOTH.,#1918);
#1918=SURFACE_SIDE_STYLE('',(#1919));
#1919=SURFACE_STYLE_FILL_AREA(#1920);
#1920=FILL_AREA_STYLE('Steel - Satin',(#1921));
#1921=FILL_AREA_STYLE_COLOUR('Steel - Satin',#1922);
#1922=COLOUR_RGB('Steel - Satin',0.627450980392157,0.627450980392157,0.627450980392157);
ENDSEC;
END-ISO-10303-21;
