ISO-10303-21;
HEADER;
/* Generated by software containing ST-Developer
 * from STEP Tools, Inc. (www.steptools.com) 
 */

FILE_DESCRIPTION(
/* description */ (''),
/* implementation_level */ '2;1');

FILE_NAME(
/* name */ 'base_clip_ring.step',
/* time_stamp */ '2026-08-19T17:05:38-05:00',
/* author */ (''),
/* organization */ (''),
/* preprocessor_version */ 'ST-DEVELOPER v20.1',
/* originating_system */ 'Autodesk Translation Framework v15.8.0.0',
/* authorisation */ '');

FILE_SCHEMA (('AUTOMOTIVE_DESIGN { 1 0 10303 214 3 1 1 }'));
ENDSEC;

DATA;
#10=MECHANICAL_DESIGN_GEOMETRIC_PRESENTATION_REPRESENTATION('',(#13),#323);
#11=SHAPE_REPRESENTATION_RELATIONSHIP('SRR','None',#333,#12);
#12=ADVANCED_BREP_SHAPE_REPRESENTATION('',(#14),#322);
#13=STYLED_ITEM('',(#342),#14);
#14=MANIFOLD_SOLID_BREP('Body1',#183);
#15=CIRCLE('',#200,2.65);
#16=CIRCLE('',#201,2.65000008457289);
#17=CIRCLE('',#203,2.47000008457289);
#18=CIRCLE('',#205,2.3);
#19=CIRCLE('',#207,2.3);
#20=CIRCLE('',#209,2.55);
#21=CIRCLE('',#211,2.55000008457289);
#22=CIRCLE('',#213,2.47000008457289);
#23=CYLINDRICAL_SURFACE('',#199,2.65);
#24=CYLINDRICAL_SURFACE('',#206,2.3);
#25=CYLINDRICAL_SURFACE('',#210,2.55000008457289);
#26=CYLINDRICAL_SURFACE('',#214,2.47000008457289);
#27=FACE_OUTER_BOUND('',#37,.T.);
#28=FACE_OUTER_BOUND('',#38,.T.);
#29=FACE_OUTER_BOUND('',#39,.T.);
#30=FACE_OUTER_BOUND('',#40,.T.);
#31=FACE_OUTER_BOUND('',#41,.T.);
#32=FACE_OUTER_BOUND('',#42,.T.);
#33=FACE_OUTER_BOUND('',#43,.T.);
#34=FACE_OUTER_BOUND('',#44,.T.);
#35=FACE_OUTER_BOUND('',#45,.T.);
#36=FACE_OUTER_BOUND('',#46,.T.);
#37=EDGE_LOOP('',(#119,#120,#121,#122,#123,#124,#125,#126));
#38=EDGE_LOOP('',(#127,#128,#129,#130,#131,#132,#133,#134));
#39=EDGE_LOOP('',(#135,#136,#137,#138));
#40=EDGE_LOOP('',(#139,#140,#141,#142));
#41=EDGE_LOOP('',(#143,#144,#145,#146));
#42=EDGE_LOOP('',(#147,#148,#149,#150));
#43=EDGE_LOOP('',(#151,#152,#153,#154));
#44=EDGE_LOOP('',(#155,#156,#157,#158));
#45=EDGE_LOOP('',(#159,#160,#161,#162));
#46=EDGE_LOOP('',(#163,#164,#165,#166));
#47=LINE('',#273,#63);
#48=LINE('',#275,#64);
#49=LINE('',#277,#65);
#50=LINE('',#279,#66);
#51=LINE('',#281,#67);
#52=LINE('',#283,#68);
#53=LINE('',#285,#69);
#54=LINE('',#286,#70);
#55=LINE('',#290,#71);
#56=LINE('',#292,#72);
#57=LINE('',#294,#73);
#58=LINE('',#296,#74);
#59=LINE('',#298,#75);
#60=LINE('',#300,#76);
#61=LINE('',#302,#77);
#62=LINE('',#303,#78);
#63=VECTOR('',#219,0.393700787401575);
#64=VECTOR('',#220,0.393700787401575);
#65=VECTOR('',#221,0.393700787401575);
#66=VECTOR('',#222,0.393700787401575);
#67=VECTOR('',#223,0.393700787401575);
#68=VECTOR('',#224,0.393700787401575);
#69=VECTOR('',#225,0.393700787401575);
#70=VECTOR('',#226,0.393700787401575);
#71=VECTOR('',#229,0.393700787401575);
#72=VECTOR('',#230,0.393700787401575);
#73=VECTOR('',#231,0.393700787401575);
#74=VECTOR('',#232,0.393700787401575);
#75=VECTOR('',#233,0.393700787401575);
#76=VECTOR('',#234,0.393700787401575);
#77=VECTOR('',#235,0.393700787401575);
#78=VECTOR('',#236,0.393700787401575);
#79=VERTEX_POINT('',#271);
#80=VERTEX_POINT('',#272);
#81=VERTEX_POINT('',#274);
#82=VERTEX_POINT('',#276);
#83=VERTEX_POINT('',#278);
#84=VERTEX_POINT('',#280);
#85=VERTEX_POINT('',#282);
#86=VERTEX_POINT('',#284);
#87=VERTEX_POINT('',#288);
#88=VERTEX_POINT('',#289);
#89=VERTEX_POINT('',#291);
#90=VERTEX_POINT('',#293);
#91=VERTEX_POINT('',#295);
#92=VERTEX_POINT('',#297);
#93=VERTEX_POINT('',#299);
#94=VERTEX_POINT('',#301);
#95=EDGE_CURVE('',#79,#80,#47,.T.);
#96=EDGE_CURVE('',#81,#79,#48,.F.);
#97=EDGE_CURVE('',#82,#81,#49,.T.);
#98=EDGE_CURVE('',#83,#82,#50,.T.);
#99=EDGE_CURVE('',#84,#83,#51,.T.);
#100=EDGE_CURVE('',#85,#84,#52,.T.);
#101=EDGE_CURVE('',#86,#85,#53,.T.);
#102=EDGE_CURVE('',#80,#86,#54,.T.);
#103=EDGE_CURVE('',#87,#88,#55,.T.);
#104=EDGE_CURVE('',#89,#87,#56,.T.);
#105=EDGE_CURVE('',#90,#89,#57,.T.);
#106=EDGE_CURVE('',#91,#90,#58,.T.);
#107=EDGE_CURVE('',#92,#91,#59,.T.);
#108=EDGE_CURVE('',#93,#92,#60,.T.);
#109=EDGE_CURVE('',#94,#93,#61,.T.);
#110=EDGE_CURVE('',#88,#94,#62,.F.);
#111=EDGE_CURVE('',#93,#82,#15,.T.);
#112=EDGE_CURVE('',#92,#83,#16,.T.);
#113=EDGE_CURVE('',#91,#84,#17,.T.);
#114=EDGE_CURVE('',#81,#94,#18,.F.);
#115=EDGE_CURVE('',#79,#88,#19,.F.);
#116=EDGE_CURVE('',#80,#87,#20,.T.);
#117=EDGE_CURVE('',#89,#86,#21,.T.);
#118=EDGE_CURVE('',#90,#85,#22,.T.);
#119=ORIENTED_EDGE('',*,*,#95,.F.);
#120=ORIENTED_EDGE('',*,*,#96,.F.);
#121=ORIENTED_EDGE('',*,*,#97,.F.);
#122=ORIENTED_EDGE('',*,*,#98,.F.);
#123=ORIENTED_EDGE('',*,*,#99,.F.);
#124=ORIENTED_EDGE('',*,*,#100,.F.);
#125=ORIENTED_EDGE('',*,*,#101,.F.);
#126=ORIENTED_EDGE('',*,*,#102,.F.);
#127=ORIENTED_EDGE('',*,*,#103,.F.);
#128=ORIENTED_EDGE('',*,*,#104,.F.);
#129=ORIENTED_EDGE('',*,*,#105,.F.);
#130=ORIENTED_EDGE('',*,*,#106,.F.);
#131=ORIENTED_EDGE('',*,*,#107,.F.);
#132=ORIENTED_EDGE('',*,*,#108,.F.);
#133=ORIENTED_EDGE('',*,*,#109,.F.);
#134=ORIENTED_EDGE('',*,*,#110,.F.);
#135=ORIENTED_EDGE('',*,*,#98,.T.);
#136=ORIENTED_EDGE('',*,*,#111,.F.);
#137=ORIENTED_EDGE('',*,*,#108,.T.);
#138=ORIENTED_EDGE('',*,*,#112,.T.);
#139=ORIENTED_EDGE('',*,*,#99,.T.);
#140=ORIENTED_EDGE('',*,*,#112,.F.);
#141=ORIENTED_EDGE('',*,*,#107,.T.);
#142=ORIENTED_EDGE('',*,*,#113,.T.);
#143=ORIENTED_EDGE('',*,*,#97,.T.);
#144=ORIENTED_EDGE('',*,*,#114,.T.);
#145=ORIENTED_EDGE('',*,*,#109,.T.);
#146=ORIENTED_EDGE('',*,*,#111,.T.);
#147=ORIENTED_EDGE('',*,*,#96,.T.);
#148=ORIENTED_EDGE('',*,*,#115,.T.);
#149=ORIENTED_EDGE('',*,*,#110,.T.);
#150=ORIENTED_EDGE('',*,*,#114,.F.);
#151=ORIENTED_EDGE('',*,*,#95,.T.);
#152=ORIENTED_EDGE('',*,*,#116,.T.);
#153=ORIENTED_EDGE('',*,*,#103,.T.);
#154=ORIENTED_EDGE('',*,*,#115,.F.);
#155=ORIENTED_EDGE('',*,*,#102,.T.);
#156=ORIENTED_EDGE('',*,*,#117,.F.);
#157=ORIENTED_EDGE('',*,*,#104,.T.);
#158=ORIENTED_EDGE('',*,*,#116,.F.);
#159=ORIENTED_EDGE('',*,*,#101,.T.);
#160=ORIENTED_EDGE('',*,*,#118,.F.);
#161=ORIENTED_EDGE('',*,*,#105,.T.);
#162=ORIENTED_EDGE('',*,*,#117,.T.);
#163=ORIENTED_EDGE('',*,*,#100,.T.);
#164=ORIENTED_EDGE('',*,*,#113,.F.);
#165=ORIENTED_EDGE('',*,*,#106,.T.);
#166=ORIENTED_EDGE('',*,*,#118,.T.);
#167=PLANE('',#197);
#168=PLANE('',#198);
#169=PLANE('',#202);
#170=PLANE('',#204);
#171=PLANE('',#208);
#172=PLANE('',#212);
#173=ADVANCED_FACE('',(#27),#167,.F.);
#174=ADVANCED_FACE('',(#28),#168,.F.);
#175=ADVANCED_FACE('',(#29),#23,.T.);
#176=ADVANCED_FACE('',(#30),#169,.T.);
#177=ADVANCED_FACE('',(#31),#170,.T.);
#178=ADVANCED_FACE('',(#32),#24,.F.);
#179=ADVANCED_FACE('',(#33),#171,.F.);
#180=ADVANCED_FACE('',(#34),#25,.F.);
#181=ADVANCED_FACE('',(#35),#172,.T.);
#182=ADVANCED_FACE('',(#36),#26,.F.);
#183=CLOSED_SHELL('',(#173,#174,#175,#176,#177,#178,#179,#180,#181,#182));
#184=DERIVED_UNIT_ELEMENT(#186,1.);
#185=DERIVED_UNIT_ELEMENT(#327,-3.);
#186=(
MASS_UNIT()
NAMED_UNIT(*)
SI_UNIT(.KILO.,.GRAM.)
);
#187=DERIVED_UNIT((#184,#185));
#188=MEASURE_REPRESENTATION_ITEM('density measure',
POSITIVE_RATIO_MEASURE(7850.),#187);
#189=PROPERTY_DEFINITION_REPRESENTATION(#194,#191);
#190=PROPERTY_DEFINITION_REPRESENTATION(#195,#192);
#191=REPRESENTATION('material name',(#193),#322);
#192=REPRESENTATION('density',(#188),#322);
#193=DESCRIPTIVE_REPRESENTATION_ITEM('Steel','Steel');
#194=PROPERTY_DEFINITION('material property','material name',#335);
#195=PROPERTY_DEFINITION('material property','density of part',#335);
#196=AXIS2_PLACEMENT_3D('',#269,#215,#216);
#197=AXIS2_PLACEMENT_3D('',#270,#217,#218);
#198=AXIS2_PLACEMENT_3D('',#287,#227,#228);
#199=AXIS2_PLACEMENT_3D('',#304,#237,#238);
#200=AXIS2_PLACEMENT_3D('',#305,#239,#240);
#201=AXIS2_PLACEMENT_3D('',#306,#241,#242);
#202=AXIS2_PLACEMENT_3D('',#307,#243,#244);
#203=AXIS2_PLACEMENT_3D('',#308,#245,#246);
#204=AXIS2_PLACEMENT_3D('',#309,#247,#248);
#205=AXIS2_PLACEMENT_3D('',#310,#249,#250);
#206=AXIS2_PLACEMENT_3D('',#311,#251,#252);
#207=AXIS2_PLACEMENT_3D('',#312,#253,#254);
#208=AXIS2_PLACEMENT_3D('',#313,#255,#256);
#209=AXIS2_PLACEMENT_3D('',#314,#257,#258);
#210=AXIS2_PLACEMENT_3D('',#315,#259,#260);
#211=AXIS2_PLACEMENT_3D('',#316,#261,#262);
#212=AXIS2_PLACEMENT_3D('',#317,#263,#264);
#213=AXIS2_PLACEMENT_3D('',#318,#265,#266);
#214=AXIS2_PLACEMENT_3D('',#319,#267,#268);
#215=DIRECTION('axis',(0.,0.,1.));
#216=DIRECTION('refdir',(1.,0.,0.));
#217=DIRECTION('center_axis',(1.,0.,0.));
#218=DIRECTION('ref_axis',(0.,0.,-1.));
#219=DIRECTION('',(0.,0.,-1.));
#220=DIRECTION('',(0.,1.,0.));
#221=DIRECTION('',(0.,0.,1.));
#222=DIRECTION('',(0.,1.,0.));
#223=DIRECTION('',(0.,0.,-1.));
#224=DIRECTION('',(0.,-1.,0.));
#225=DIRECTION('',(0.,0.,1.));
#226=DIRECTION('',(0.,-1.,0.));
#227=DIRECTION('center_axis',(-1.,0.,0.));
#228=DIRECTION('ref_axis',(0.,0.,1.));
#229=DIRECTION('',(0.,0.,1.));
#230=DIRECTION('',(0.,1.,0.));
#231=DIRECTION('',(0.,0.,-1.));
#232=DIRECTION('',(0.,1.,0.));
#233=DIRECTION('',(0.,0.,1.));
#234=DIRECTION('',(0.,-1.,0.));
#235=DIRECTION('',(0.,0.,-1.));
#236=DIRECTION('',(0.,-1.,0.));
#237=DIRECTION('center_axis',(0.,-1.,0.));
#238=DIRECTION('ref_axis',(0.00188679575111303,0.,0.999998219999313));
#239=DIRECTION('center_axis',(0.,1.,0.));
#240=DIRECTION('ref_axis',(-1.,0.,0.));
#241=DIRECTION('center_axis',(0.,1.,0.));
#242=DIRECTION('ref_axis',(1.,0.,0.));
#243=DIRECTION('center_axis',(0.,-1.,0.));
#244=DIRECTION('ref_axis',(0.,0.,-1.));
#245=DIRECTION('center_axis',(0.,1.,0.));
#246=DIRECTION('ref_axis',(1.,0.,0.));
#247=DIRECTION('center_axis',(0.,1.,0.));
#248=DIRECTION('ref_axis',(1.,0.,0.));
#249=DIRECTION('center_axis',(0.,1.,0.));
#250=DIRECTION('ref_axis',(1.,0.,0.));
#251=DIRECTION('center_axis',(0.,1.,0.));
#252=DIRECTION('ref_axis',(0.00217391818036667,0.,0.999997637037081));
#253=DIRECTION('center_axis',(0.,1.,0.));
#254=DIRECTION('ref_axis',(1.,0.,0.));
#255=DIRECTION('center_axis',(0.,1.,0.));
#256=DIRECTION('ref_axis',(-1.,0.,0.));
#257=DIRECTION('center_axis',(0.,-1.,0.));
#258=DIRECTION('ref_axis',(-1.,0.,0.));
#259=DIRECTION('center_axis',(0.,1.,0.));
#260=DIRECTION('ref_axis',(0.00196078801800909,0.,0.999998077653326));
#261=DIRECTION('center_axis',(0.,1.,0.));
#262=DIRECTION('ref_axis',(-1.,0.,0.));
#263=DIRECTION('center_axis',(0.,1.,0.));
#264=DIRECTION('ref_axis',(0.,0.,1.));
#265=DIRECTION('center_axis',(0.,1.,0.));
#266=DIRECTION('ref_axis',(1.,0.,0.));
#267=DIRECTION('center_axis',(0.,1.,0.));
#268=DIRECTION('ref_axis',(0.00202429557621944,0.,0.999997951111611));
#269=CARTESIAN_POINT('',(0.,0.,0.));
#270=CARTESIAN_POINT('Origin',(0.,-0.511144242751903,-2.04609371950242));
#271=CARTESIAN_POINT('',(7.04171909509728E-17,0.05,-2.3));
#272=CARTESIAN_POINT('',(0.,0.05,-2.55));
#273=CARTESIAN_POINT('',(0.,0.05,-1.02304685975121));
#274=CARTESIAN_POINT('',(7.04171909509728E-17,0.1,-2.3));
#275=CARTESIAN_POINT('',(0.,0.,-2.3));
#276=CARTESIAN_POINT('',(0.,0.1,-2.65));
#277=CARTESIAN_POINT('',(0.,0.1,-1.02304685975121));
#278=CARTESIAN_POINT('',(0.,-0.610000011170004,-2.65000008457289));
#279=CARTESIAN_POINT('',(0.,0.1,-2.65));
#280=CARTESIAN_POINT('',(0.,-0.610000011170004,-2.47000008457289));
#281=CARTESIAN_POINT('',(0.,-0.610000011170004,-1.02304685975121));
#282=CARTESIAN_POINT('',(0.,-0.400000011170004,-2.47000008457289));
#283=CARTESIAN_POINT('',(0.,-0.505000011170004,-2.47000008457289));
#284=CARTESIAN_POINT('',(0.,-0.400000011170004,-2.55000008457289));
#285=CARTESIAN_POINT('',(0.,-0.400000011170004,-1.02304685975121));
#286=CARTESIAN_POINT('',(0.,-0.375000011170004,-2.55000008457289));
#287=CARTESIAN_POINT('Origin',(-0.01,-0.511144242751903,-2.04609371950242));
#288=CARTESIAN_POINT('',(-0.01,0.05,-2.54998039208148));
#289=CARTESIAN_POINT('',(-0.0100000000000001,0.05,-2.29997826076683));
#290=CARTESIAN_POINT('',(-0.01,0.05,-1.02304685975121));
#291=CARTESIAN_POINT('',(-0.01,-0.400000011170004,-2.54998047665502));
#292=CARTESIAN_POINT('',(-0.01,-0.375000011170004,-2.54998047665502));
#293=CARTESIAN_POINT('',(-0.01,-0.400000011170004,-2.46997984157565));
#294=CARTESIAN_POINT('',(-0.0100000000000001,-0.400000011170004,-1.02304685975121));
#295=CARTESIAN_POINT('',(-0.01,-0.610000011170004,-2.46997984157565));
#296=CARTESIAN_POINT('',(-0.01,-0.505000011170004,-2.46997984157565));
#297=CARTESIAN_POINT('',(-0.01,-0.610000011170004,-2.64998121658179));
#298=CARTESIAN_POINT('',(-0.0100000000000001,-0.610000011170004,-1.02304685975121));
#299=CARTESIAN_POINT('',(-0.01,0.1,-2.6499811320083));
#300=CARTESIAN_POINT('',(-0.01,0.1,-2.6499811320083));
#301=CARTESIAN_POINT('',(-0.0100000000000001,0.1,-2.29997826076683));
#302=CARTESIAN_POINT('',(-0.01,0.1,-1.02304685975121));
#303=CARTESIAN_POINT('',(-0.01,0.,-2.29997826076683));
#304=CARTESIAN_POINT('Origin',(0.,0.1,0.));
#305=CARTESIAN_POINT('Origin',(0.,0.1,0.));
#306=CARTESIAN_POINT('Origin',(0.,-0.610000011170004,0.));
#307=CARTESIAN_POINT('Origin',(-2.65000008457289,-0.610000011170004,0.));
#308=CARTESIAN_POINT('Origin',(0.,-0.610000011170004,0.));
#309=CARTESIAN_POINT('Origin',(0.,0.1,0.));
#310=CARTESIAN_POINT('Origin',(0.,0.1,0.));
#311=CARTESIAN_POINT('Origin',(0.,0.,0.));
#312=CARTESIAN_POINT('Origin',(0.,0.05,0.));
#313=CARTESIAN_POINT('Origin',(0.,0.05,0.));
#314=CARTESIAN_POINT('Origin',(0.,0.05,0.));
#315=CARTESIAN_POINT('Origin',(0.,-0.375000011170004,0.));
#316=CARTESIAN_POINT('Origin',(0.,-0.400000011170004,0.));
#317=CARTESIAN_POINT('Origin',(-2.47000008457289,-0.400000011170004,0.));
#318=CARTESIAN_POINT('Origin',(0.,-0.400000011170004,0.));
#319=CARTESIAN_POINT('Origin',(0.,-0.505000011170004,0.));
#320=UNCERTAINTY_MEASURE_WITH_UNIT(LENGTH_MEASURE(0.000393700787401575),
#325,'DISTANCE_ACCURACY_VALUE',
'Maximum model space distance between geometric entities at asserted c
onnectivities');
#321=UNCERTAINTY_MEASURE_WITH_UNIT(LENGTH_MEASURE(0.000393700787401575),
#325,'DISTANCE_ACCURACY_VALUE',
'Maximum model space distance between geometric entities at asserted c
onnectivities');
#322=(
GEOMETRIC_REPRESENTATION_CONTEXT(3)
GLOBAL_UNCERTAINTY_ASSIGNED_CONTEXT((#320))
GLOBAL_UNIT_ASSIGNED_CONTEXT((#325,#329,#330))
REPRESENTATION_CONTEXT('','3D')
);
#323=(
GEOMETRIC_REPRESENTATION_CONTEXT(3)
GLOBAL_UNCERTAINTY_ASSIGNED_CONTEXT((#321))
GLOBAL_UNIT_ASSIGNED_CONTEXT((#325,#329,#330))
REPRESENTATION_CONTEXT('','3D')
);
#324=DIMENSIONAL_EXPONENTS(1.,0.,0.,0.,0.,0.,0.);
#325=(
CONVERSION_BASED_UNIT('inch',#328)
LENGTH_UNIT()
NAMED_UNIT(#324)
);
#326=(
LENGTH_UNIT()
NAMED_UNIT(*)
SI_UNIT(.MILLI.,.METRE.)
);
#327=(
LENGTH_UNIT()
NAMED_UNIT(*)
SI_UNIT($,.METRE.)
);
#328=LENGTH_MEASURE_WITH_UNIT(LENGTH_MEASURE(25.4),#326);
#329=(
NAMED_UNIT(*)
PLANE_ANGLE_UNIT()
SI_UNIT($,.RADIAN.)
);
#330=(
NAMED_UNIT(*)
SI_UNIT($,.STERADIAN.)
SOLID_ANGLE_UNIT()
);
#331=SHAPE_DEFINITION_REPRESENTATION(#332,#333);
#332=PRODUCT_DEFINITION_SHAPE('',$,#335);
#333=SHAPE_REPRESENTATION('',(#196),#322);
#334=PRODUCT_DEFINITION_CONTEXT('part definition',#339,'design');
#335=PRODUCT_DEFINITION('2026-08-03-16-36-29-953','BaseClipRing',#336,#334);
#336=PRODUCT_DEFINITION_FORMATION('',$,#341);
#337=PRODUCT_RELATED_PRODUCT_CATEGORY('BaseClipRing','BaseClipRing',(#341));
#338=APPLICATION_PROTOCOL_DEFINITION('international standard',
'automotive_design',2009,#339);
#339=APPLICATION_CONTEXT(
'Core Data for Automotive Mechanical Design Process');
#340=PRODUCT_CONTEXT('part definition',#339,'mechanical');
#341=PRODUCT('2026-08-03-16-36-29-953','BaseClipRing',$,(#340));
#342=PRESENTATION_STYLE_ASSIGNMENT((#343));
#343=SURFACE_STYLE_USAGE(.BOTH.,#344);
#344=SURFACE_SIDE_STYLE('',(#345));
#345=SURFACE_STYLE_FILL_AREA(#346);
#346=FILL_AREA_STYLE('Steel - Satin',(#347));
#347=FILL_AREA_STYLE_COLOUR('Steel - Satin',#348);
#348=COLOUR_RGB('Steel - Satin',0.627450980392157,0.627450980392157,0.627450980392157);
ENDSEC;
END-ISO-10303-21;
